<?xml version="1.0" encoding="utf-8"?>
<!-- Generator: Adobe Illustrator 22.0.1, SVG Export Plug-In . SVG Version: 6.00 Build 0)  -->
<svg version="1.1" id="Layer_1" xmlns="http://www.w3.org/2000/svg" xmlns:xlink="http://www.w3.org/1999/xlink" x="0px" y="0px"
	 viewBox="0 0 1200 521" style="enable-background:new 0 0 1200 521;" xml:space="preserve">
<style type="text/css">
	.st0{fill:#E65479;}
</style>
<g>
	<path class="st0" d="M1200,23c-0.5,0-1,0-1.5,0c-0.7-0.8-0.7-2.2-2.2-3c-1.8,0.3-4.2-0.7-6.2,0.5c-1,0.6-2,0.7-2.8,0.4
		c-4.6-1.7-9.7-1-14.3-2.9c-0.4-0.2-1-0.1-1.5,0c-4.2,0.4-8.2-1.8-13-0.8c1.8-1.6,0.1-3.3,1.5-4.2c-1.5-2.9-1.3-6.6-4.5-9.7
		c-0.4,4.1-3,7.2-0.5,10.8c0.5-0.1,0.8,0.1,0.9,0.6c0,0.1-0.2,0.3-0.3,0.3c-0.5-0.1-0.7-0.4-0.6-0.9c-0.4,0.5-0.9,1.1-1.5,1.9
		c-2.1,0-4.6,0-7.3,0c-0.7-1.4,0.8-3.9-2-4.7c0,1.5,0,2.9,0,4.6c-2.1,0-4,0-5.9,0c-0.4-0.6-0.4-1.2,0.2-1.7c0.4,0.3,0.7,0.6,1.1,1
		c0.5-0.5,0.9-0.9,1.4-1.4c-0.9-1.6-0.9-1.6,0-3c-1.9-3.4-3.2-7-4.2-10.6c-1.8-0.1-2.1,1.3-3.1,1.9c-1.1-0.2-0.2-1.5-1-1.9
		c-1.4-0.2-2,0.8-2.5,1.8c-0.2,0.9,0.5,1.2,1,1.7c-1,1.2-2.5,0.1-3.6,0.7c-1.4,2.2,0.8,3.9,0.6,6.2c-1.6,0.6-2.1,2.5-3.4,3.7
		c-0.9-0.7-0.3-1.6-0.8-2.7c-2.1-2.4-5.8-3.7-7.2-7.8c-0.4,1.2-0.6,1.7-1.1,3.1c-0.2-2.5-2.4-2.8-2.8-4.5c-0.8,0-1.6-0.3-2.3,0.2
		c-0.6,1,0,1.5,0.6,2.1c-0.3,0.7-0.8,1.2-1.5,1.6c-0.2-0.6-0.4-1.2-0.7-1.7c-0.5-0.2-0.9-0.3-1.4,0.1c-0.6,1-0.2,2.2-0.2,3.3
		c0,0.4,0.6,0.7,0.9,1c-0.4,0.6-0.9,0.4-1.4,0.5c-1.3,0.7,0.1,2.3-1.1,3c-0.2-0.2-0.5-0.5-1-1c-0.6,1-0.8,2.2-1.9,2.9
		c-0.7-1.4-2.3-0.6-4-1.5c1.2-0.3,2.2-0.6,2.7-0.8c-1.3-3-2.2-4.9-2.5-7.4c-0.6-0.6-1.4-1.4-2.3-2.3c-0.9,0.7-1.5,1.4-1.6,2.8
		c-0.1,2,1.2,4.3-1.2,5.9c1.3,1.7,1.7,3,0.4,4.9c-0.8,1.2-0.1,3.2-0.1,4.8c-0.7,0.9-1.6,0.3-2.7,0.6c-0.2-1.7-0.5-3.5-2.1-4.5
		c-0.9-0.5-0.8-1.7-1.2-2.5c-1.7-3.5-2.9-7.2-5.3-10c-1.3-0.3-1.7,0.6-2.3,1.1c-1,1.6,0.7,3.9-1.2,5.4c0.6,0.6,1.2,1.2,1.8,1.8
		c-0.9,1.5-2.3,2.5-3.9,3.1c0.1,0.9-0.3,2,0.8,2.8c-0.5,1-1.3,2.1-0.6,3.6c0.2,0.6,1.3-0.4,1.6,0.8c-1,0.7-2.3,0.3-3.5,0.3
		c-0.6-1.2-1.1-2.5-2-4.3c-0.4,2-0.8,3.6-1.6,4.9c-0.5,0.9-2.2-0.2-2,2.2c-2.6-3.5-1.6-7.2-3-10.2c-0.1-0.8-0.9-0.4-1.5-0.8
		c-0.9-3.3-2-6.5-4.8-8.7c-1.6,0.6-1.2,2.4-2.4,3.3c0.3,0.5,0.6,0.9,1,1.5c-0.5,1-1.1,2.1-1.6,3.1c-0.6,0-1.4,0-1.4-0.4
		c0.4-2.1-2.1-1.2-2.6-2.8c-0.6,0.7-1.1,1.3-1.5,1.7c-0.2,1,0.2,1.5,1,2c-0.8,0.9-1.5,1.6-1.9,2.2c-0.2,1.2,0.6,1.4,0.9,2
		c-0.3,0.5-1.1,0.7-1.2,0.4c-0.9-1.3-2.4-0.7-3.5-1.2c-0.3-1.2-0.6-2.3,0.6-3.1c-0.5-1-1.2-1.8-2.5-1.8c-1.5-2.7-2.1-5.9-4.8-7.7
		c-2.7,0.8-0.8,3.4-2,4.6c-1.3,1.2-1.5,2.7-1.9,4.1c-0.6,0.3-1.2-0.1-1.8,0.9c0.1,3.2-0.2,6.9,0.2,11.1c-0.3,0.2-1.6,0.5-2.2,1.6
		c0.4,0.9,1.7,0.1,2,1.3c0,0.1,0,0.5,0,0.9c-1.2,0.6-2.4,0.4-3.8,0.2c-0.1-0.8-0.2-1.6-0.3-2.4c-2.5-1.6-4.4,1.3-6.6,0.6
		c-0.7,1.4,0,1.9,0.7,2.5c0,1.4-1.2,2.3-1.5,3.5c-1.6,0.2-1.7-1.2-2.4-1.4c-0.2-1,0.2-1.5,1-2c-1.9-2-3.6-4.2-3-7.1
		c-2.4-2-3.1-5.5-6.5-6.7c-0.6,2.4-1.2,4.8-1.8,7.1c-0.6,0.1-1.1,0.2-1.6,0.3c0,1.5-0.6,3.5,0.1,4.3c1,1.1-1.2,2.5,0.7,3
		c-1.1,0.5-0.5,2.2-2,2.6c-1.7-0.2-0.9-2.8-2.5-3c-2.5,3.2-1.1,7.2-1.6,11c-1.9-0.1-3.7-0.3-5.1,1.5c-0.8-1.7-1.4-2.9-2-4.3
		c-1.6,0.1-2.3-1.8-4-2.6c-2.6,3-1.6,6.8-3.3,10.3c-2.5,1.9-2.5,1.9-5.9,2c-3.3-6.3-6.5-12.7-9.8-19c-1.4,1.8-2,3.7-1.7,5.8
		c0.3,1.7-0.5,3.1-1.2,4.5c0.4,0.5,0.8,0.9,1,1.2c-0.5,0.9-1.1,1.9-1.3,2.3c-0.8,1.1,0.1,1.2,0.2,1.6c0.5,1.7-2.5,3.5,0.1,5
		c-0.2,0.9-1,0.5-1.7,0.9c0,1.3,0,2.8,0,4.1c-3.1,2.3-6.3,3.7-9.5,4.8c-1.2-0.9-0.1-2.3-0.9-2.8c-2.3-1.5-1.3-5.2-4.4-6.1
		c-1,0.6,0.4,2.2-0.9,2.8c-0.9-1.4,0-2.9-0.6-4.4c-2.4-0.7-2.2-3.7-3.9-5.2c-0.9-0.6-1.8-0.5-2.7-0.1c-0.6,1,0.1,1.5,0.7,2.1
		c-0.1,0.9-1,0.5-2.4,1.4c-0.1,0,1,1.3,0.2,2c-0.5,0.1-0.9,0.2-1.5,0.4c0,3.1,0,6.2,0,9.2c-1.4,1.1-1.2,2.9-2.7,3.6
		c-0.7-1.3-1.3-2.7-2-4c-0.4,0-0.7,0.1-1.4,0.1c0,1.5,0,3.1,0,5.3c-1.4-1.2-1.1-2.9-2.9-3.1c-1.9,0.7-0.8,2.9-1.3,4.4
		c-0.7,0.6-2.2,0.1-1.8,2.1c0.1,0.7,1.5-0.1,1.9,0.7c-0.6,1.6-2.5,1.4-3.4,2.6c-0.7-0.7-1.4-1.3-2.1-2c-0.8,0.1-1.6-0.3-2.3,0.3
		c0,0.4-0.1,0.7-0.1,1c0.6,1.4,2.3,0,2.8,0.8c-0.5,0.7-0.9,1.4-1.1,1.8c-2.7,0.3-2-2.6-3.7-2.9c0.1,0.5-0.1,0.8-0.6,0.9
		c-0.1,0-0.3-0.2-0.3-0.3c0.1-0.5,0.4-0.7,0.9-0.6c-0.1-1.2-1-1.2-1.6-0.8c-0.6,0.4-1.4,0.8-1.9,2.6c-0.3,0.5-0.1,0.2,0.1,0.1
		c0.4-0.2,0.4-1.7,1.1-0.5c0.4,0.7,0.7,1.8-0.3,2.6c-0.5-0.5-0.9-0.9-0.9-2.2c-0.7-1.4-1.9,0.8-3.1-0.7c-0.8,0.7-0.1,1.6-0.6,2.5
		c-0.5,0.2-1.1,0.5-1.8,0.8c-0.7,1.4,1.7,1.8,0.9,3.1c-0.5,0.7-0.9,0.1-1-0.2c-1-2.2-1.9-4.5-2.9-6.8c-0.1-0.2-0.5-0.4-0.7-0.6
		c-0.7,0-1.4,0-1.3,1c0.1,1.7-1,2.9-1.7,4.4c0.9,1.6,1.4,3.3-0.8,4.5c-1.6-0.8-1.3-2.4-1.9-4.4c-0.4,1-0.7,1.6-0.9,2.1
		c-0.7,0.6,1.4,0.9-0.3,2.3c-2,0.4-4.4,0.3-6.3-1.7c-0.3-1.7,1.6-0.8,1.9-1.7c0.7-2.8-2.6-4.4-2-7.1c-1-1-2.8,0.3-3.4-1.4
		c-1.5,3.2-2.2,6.3-1.5,7.5c-0.6,0.6-1.2,1.1-2,1.9c0,2.6,0.2,5.4-2,7.6c0.1,0.5-0.1,0.8-0.6,0.9c-0.1,0-0.3-0.2-0.3-0.3
		c0.1-0.5,0.4-0.7,0.9-0.6c0-1.5,0-3,0-4.5c-1.4-0.7-0.7-3-2.7-3.3c-1,0.8,0.1,2.3-0.4,3.3c-0.4,0.7-0.9,0.4-1.4,0.5
		c-0.9-0.4-0.1-1.7-1.1-2c-1.1-0.1-1.6,0.2-1.4,1.3c-0.6,1.3-1.8,0.3-2.8,0.9c-1.3,0.8-1.1,2.9-2.7,3.7c-0.7-0.6-1.4-1.3-2.1-1.9
		c-0.9,0.9-0.6,5.1,0.5,7.4c-1.1,2.2-3.5,2.6-5.5,3.4c-0.4-0.7-1.5-0.7-2.4-1.2c0.3-0.3,0.6-0.7,1-1.1c-0.8-0.7-1.7-1.4-2.7-2.3
		c-1.1,0-2.6,0-3.9,0c-0.8,0.9,0.2,2.1-0.9,2.9c-1.1-1.7-3-2.9-3.6-4.8c-0.7-2.4-3.5-3.3-3.9-5.9c-2.5-0.9-1.1-4.4-3.6-5.4
		c-3.2,0-1.5,3.6-3.3,4.7c1.3,1.9-2.5,3.7-0.1,5.8c-0.7,0.8-1.4,1.6-1.9,2.1c-0.2,1.2,0.6,1.4,0.9,2c-0.6,0.6-1.2,1.2-1.9,1.9
		c0,0.9,0,2.1,0,2.9c-0.5,0.9-1.1,0.6-1.5,0.7c-0.9,0.8-0.5,1.8-0.3,2.7c0.6,0.2,1.2,0.4,1.7,0.6c-0.4,1.1-1.8,1.4-1.9,2.7
		c-0.2,0.8,0.8,0.9,0.9,1.6c-1.4,0.5-2.6,1.8-4.4,1.4c-1.6-1.2-2.2-3-2.7-4.9c-1.5,0.5-2.1,1.6-1.8,2.9c0.3,1.4-0.6,2.1-1.5,2.9
		c-1.2-1-0.1-2.5-0.7-3.6c-0.9-0.6-1.9-0.2-2.8-0.3c-0.1,0.6,0.3,1.3-0.3,1.8c-3-0.1-3-0.1-3.7-2.8c-3.3-0.5-6.2-2.1-10.3-2.1
		c1-1,1.6-1.8,2.3-2.5c0-0.7,0-1.3,0-2.1c0.6-0.2,1.2-0.4,1.8-0.6c-0.2-1-1.2-1.4-1.7-2.1c0.2-0.7,1.3-1.1,0.8-2.3
		c-1.5-0.6-3.4-0.7-4.8-1.9c0.3-0.3,0.6-0.7,0.8-1c-0.4-0.6-0.9-0.4-1.3-0.5c-0.8,0.3-0.5,1.1-0.9,2c-0.9-1-2-1.1-3.2-0.9
		c-0.9,0.7,0,1.9-0.8,3c-0.9-1.7-1.7-3.2-2.4-4.5c-1.2-1-1.3,0.7-2.2,0.5c-0.5-0.2-1.3-0.4-1.8,0.3c1.5,1.4-1.3,2.7-0.2,3.7
		c0.3,2.1,3.3,1.2,3,3.8c-1.4-0.6-2.6-1.1-4.6-2c1.9,3.2,3.4,5.8,5.6,7.6c-0.2,1.5-1.5,2.3-1.1,3.8c0.4,1.3-0.6,2-1.7,2.5
		c-0.5-1.3-0.1-3-1.7-3.8c-1.1,2.1-1.1,2.1-0.3,9.6c0.9,0.2,1.7-1.6,2.8-0.3c0.3,2.2-1.8,2.2-2.9,3.1c2.1-0.5,1.4,2.3,3,2.4
		c-0.1-0.5,0.1-0.8,0.6-0.9c0.1,0,0.3,0.2,0.3,0.3c-0.1,0.5-0.4,0.7-0.9,0.6c-0.6,2-1.9,2.3-3.7,1.8c-0.7-2.7-4.5-9.5-7.2-10.2
		c-0.6-0.8,0.7-2.4-1.2-2.7c0.1,0.5-0.1,0.8-0.6,0.9c-0.1,0-0.3-0.2-0.3-0.3c0.1-0.5,0.4-0.7,0.9-0.6c-0.9-1.1-0.8-3-2.7-3.4
		c-0.3,0-0.3-1.5-0.4-2.3c-0.5-0.2-1.1-0.4-1.8-0.7c0.3-0.4,0.5-0.7,0.9-1.1c-0.7-0.7-1.4-1.5-1.8-2.1c-0.2-1.2,0.6-1.4,0.9-2
		c-0.7-1-1.9-0.1-2.7-0.7c-0.5-0.7,0.8-0.8,0.6-1.5c-2.6-4.6-2.6-4.6-5.1-6.3c-1.5,3.7-1.5,3.9-0.9,5.3c-0.6,1-0.7,2.3-1.8,3.1
		c0.3,0.3,0.6,0.7,0.9,1c-0.3,0.3-0.6,0.7-0.9,1c0.3,0.3,0.6,0.7,0.9,1c-0.6,0.6-1.2,1.2-1.8,1.8c-0.5,2.1-0.2,4.1,0.9,5.7
		c-0.3,1.1-1,0.9-1.6,1c-1,0.9,0.3,2.8-1.4,3.4c0.7,1.1,1.8,1.6,3,2.1c-2.6,0.7-3.9,2.7-4.9,5.1c0.4,0.8,1.7,1.1,1.8,2.4
		c-2.7,1.9-2.7,1.9-3.5,5c-0.6-0.6-1-1.3-2.1-0.9c-0.9,1-0.2,2.2-0.5,3.6c-2.1-0.2-2.9,3.2-5.6,2.2c-0.5-1-0.6-1.9,0.1-2.8
		c0.3,0.3,0.7,0.6,1,0.9c0.9-0.3,0.1-1.6,1.3-1.9c0.3,0,0.8,0,1.3,0c-1-1.9-3.1-1.7-4.8-2.3c0.2-1,2-2.1-0.1-3
		c0.2-1.3,1.6-0.3,1.8-1.2c-0.1-0.6-1.8-1,0.3-1.9c-1.9-1.4-2.8-3.5-4.7-4.9c-1.5,2.7,0.6,5.6-1.5,7.7c1.1,1.2,2.1,2.4,3.1,3.5
		c-1.2,2.1-1.9,0.5-2.8,0.1c-0.2,0.6-0.4,1.2-0.6,1.7c-3.4-3.5-6.3-7.4-8.2-12.1c-3,1.5-2.1,4.3-2.7,6.5c-0.8-0.8-1.3-1.6-2.6-1
		c0,2.1,0,4.3,0,6.6c-1.1,0.1-1.9,0.2-2.7,0.3c-1.1,1.3,0,2.5,0.4,3.9c-2.4-0.1-3-1.4-2.8-3.7c0.6-0.3,1.5-0.8,1.9-1
		c0-1.9,0.3-3.1-0.2-4.1c-1.1-0.7-1.7,0.2-2.3,0.9c-0.2-0.6-0.5-0.9-0.4-1.2c0.4-1.3,1.8-2.4,0.5-3.9c-0.4,0.3-0.7,0.6-1.1,0.9
		c-1-0.7-0.1-1.9-0.3-2.2c-0.6-0.8-0.9-0.8-1.1-0.3c-1.2,2.5-1.7,5.1,0,7.7c-0.3,0.5-0.6,1-1,1.5c0.6,0.2,1.2,0.4,1.8,0.7
		c-0.4,1.6-1.8-0.1-2.4,0.7c-0.2,0.3-0.4,0.5-0.4,0.8c0,1.7-0.1,3.3,0,5c0,1-0.9,1.3-1.3,2.2c-1,0-2,0.2-2.9,0
		c-1.1-0.3-1.6,0.7-2.6,0.9c-0.1-0.5-0.2-0.9-0.3-1.5c-0.7-0.9-1.9,0-2.5-0.4c-0.5-0.9-0.4-1.4,0.1-1.9c1.4-0.9,1.6,2,3.4,0.5
		c1.5-2.5-1.6-4.5-2-7.2c-0.5-0.7-1.9-0.1-2.3-1.3c-1.9,1.2-2.1,3-0.6,6.6c-2-0.2-1.7,2.6-3.7,2.5c-1.1,0.8,0.7,2.5-1.3,2.9
		c0.8,1.5,1.4,2.8,2,3.9c-0.2,1.5-1.6,0.5-2,1.4c-0.5,1.5,1.8,2.4,0.8,4.3c-0.3,0.3-0.8,0.7-1.3,1.2c-1-0.7-2-1.4-1.7-2.9
		c-0.7,0-1,0-1.4,0c-1.1,1.1,0,2.6-0.7,3.7c-1.1,0.5-2.2,0.2-3.4,0.2c-1-0.8,0-2.1-1-3.1c-0.7-0.8-1.9-0.4-2.4-1.3
		c2.4-2.1,0.2-3.9-0.7-5.4c-0.9-1.5-1.7-3.4-4.2-3.8c-0.2,0.3-1.1,0.8-1.1,1.4c-0.1,1,0.4,2.1,0.7,3.1c0.5,1-0.7,1.2-0.9,2.2
		c-0.3,1,2.1,1.5,0.5,3c-1.7-1.8-3.6-3.3-4.5-5.8c-0.9-2.6-3.4-3.6-5-5.9c-1.4,2-1.3,3.1-0.1,4.1c-0.2,0.9-1,0.5-1.6,0.8
		c-0.8,0.7,0.1,1.9-0.5,2.8c-0.7,0-1.4,0.1-2.4,0.1c-0.4-1.4-1.2-2.6-2.4-3.5c0.4-0.4,0.6-0.6,0.9-0.9c-1.1-0.9-2.2-1.9-2.7-2.3
		c-0.4-1.6,0.2-2.5-0.6-3.2c-0.3,0.3-0.7,0.6-1,0.9c-1.1-2.2-2.6-4.3-2.9-7.1c-0.6,0.6-0.8,0.8-1,1c-0.2-0.1-0.6-0.2-0.6-0.4
		c-0.4-2.3-0.8-4.6-2.5-6.5c-1.2-1.4-2.1-3.3-1.5-5.4c-0.9-0.8-1.7-1.5-2.7-2.4c-1.4,0.5-1.1,2.4-2.4,3.3c0,0.9-0.1,1.9,0,2.9
		c0.1,0.9-0.3,1.6-1,2.1c1.1,0.7,0.6,1.3,0,2.2c-0.6,0.7,0.6,1.3,0.9,2c-0.6,0.2-1.2,0.4-2,0.7c0.4,1.9-0.8,4.1,1,6.1
		c-1.6,1.1-2.1,2.9-2.9,4.5c-0.1,1.6,1.8,0.5,2,1.6c0.2,2-1.9,1.2-2.6,2.3c-0.7,1.1,0.3,2.8-1.4,3.4c0.7,0.7,1.3,1.4,1.9,2.1
		c-0.3,0.6-1.1,0.7-1.3,0.4c-1.3-1.2-2.5-2.1-2.9-4.3c-0.2-1.5-1-4.5-4.2-3.6c-1.9,2.5-1,6-2.5,8.9c1.1,2.2,1.5,4.6,0.4,7.2
		c-0.8,1.9-0.6,2,0.5,4.4c-1.2,0.4-0.5,2.2-2.4,2.6c-0.6-1.9-1.3-3.8-2-6c-0.6,0-1.3-0.1-2.5-0.2c0.2-1.6-0.6-3-1.2-4.3
		c-0.6-1.3-1.6-2.9-2.9-3.4c-2-0.8,0-3.5-2.1-3.7c-0.8-0.6-0.8,0.3-1.4,0.4c-2.5-1.1-2.6-5-5.9-6c-0.7,2.2-1.3,4.3-1.8,6.6
		c-0.4,2-0.2,4.4-1.7,6.2c1.9,2.2,0.4,4.7,0.9,6.9c-0.9,0.9-1.8,0.3-2.6,0.5c-0.8,0.8-0.5,1.8-0.2,2.8c0.4,0.1,0.9,0.2,1.4,0.3
		c0.4,0.2,0.4,0.4,0.1,0.7c-1,0.8-1.8,1.8-2.3,3.2c-0.1-2.9-2.5-4.9-2.7-7.7c-2.6-1.7-1.4-5.7-4.4-7.1c-0.3,0.4-0.8,0.8-1.3,1.4
		c-0.3,1.8,0.5,3.9-1.2,5.6c2.2,2.4,0.9,4.6-0.3,6.9c-2.4,0.1-4.9,0.4-6.9-1.1c-0.5,0.5-0.8,0.8-1.2,1.1c-0.5-0.5-1-1-1.5-1.5
		c0.7-0.3,1.4-0.6,2.4-1.1c-1.5-1.4-1.1-4.1-3.8-4.4c-1.2,1,0.8,1.2,0.4,1.9c0.1,1.1-0.9,1.3-1.6,2.4c-0.2-0.8-0.4-1.5-0.5-2.1
		c-1-0.2,0.2-0.2,0-0.9c-0.3-0.5-0.9-0.2-1.3-0.3c-0.8-0.6-0.3-1.5-0.5-2.3c-3.2-1.9-3.5-6.3-7.1-8c0.4-0.5,0.7-0.8,1-1.2
		c-1.5-0.8-3.1-1.3-3-3.6c0.1-1.3-1.6-1.9-2.4-2.9c-2.4,3.8-1.7,8.6-4.3,12.4c0,0.9,1.8,1.5,0.9,2.4c-0.5,1.7-2.4,2-2.2,3.7
		c0.3,1,1.6,0.2,2,1.2c-2.4,0.1-2.9,2.1-3.9,4.1c0.6,0.3,1.5,0.7,2.2,1c-1.1,1.8-2.2,0.8-3.2,1.5c-0.8,0.6,0.4,1.9-0.6,2.6
		c-0.2,0.2-0.4,0.5-0.6,0.7c0.5,0.5,1,1,1.4,1.4c0.8,0,1.7,0,2.5,0c-0.1-0.5,0.1-0.8,0.6-0.9c0.1,0,0.3,0.2,0.3,0.3
		c-0.1,0.5-0.4,0.7-0.9,0.6c-0.7,1.7-2.6,1.4-3.8,2.3c-0.3,0.6,0.4,0.7,0.6,1.1c-0.2,0.4-0.4,0.9-0.8,1.5c1.3,0.1,2.4,0.1,3.5,0.2
		c-0.1,1.4,1.6,2,1.4,3.4c-1.4,1.7-2.1-1-3.5-0.4c-0.3,0.2-0.6,0.6-1,0.9c-1.5-0.6-1.3-2.4-2.5-3.3c0.3-0.7,1.3-1.1,0.9-2.1
		c-1-1.1-1.7-0.4-2.4,0.5c-0.4-0.4-0.9-0.8-1.4-1.3c1.2-2.1,1.5-4-0.7-5.6c-0.4,0.3-0.8,0.6-1.1,0.9c-0.6-2.7-2.5-5.3-4.9-6.9
		c-0.5,0.5-0.9,0.9-1.4,1.4c-0.4,1,0.4,1.5,0.9,2.1c-1.8,2-1.8,2-2.5,4.5c-0.4-0.3-0.7-0.6-1.1-1c-1.1,1.1,0.3,2.8-0.7,3.6
		c-1.6,1.3,1,1.7,0.4,2.9c-0.3,0.7-0.6,1.4-1.2,2.1c0.1,1.4,1.8,2.4,1.2,3.5c-0.5,1.3-2.6,0.2-1.9,2.4c1,0.5,2.4,1.2,3.8,1.9
		c-1.3,0.8-2.4,0.9-3.4-0.3c-0.8,0.4-1.6,0.7-2.5,1.2c0.2,0.9,1.2,1.3,1.7,2.1c0,1,0,2.1,0,3.2c-3.9,1.7-7.5,3.7-11.6,4.7
		c-1.9,0.5-3.4,2.1-5.2,3.1c-3,1.6-6.2,3.1-9.3,2.5c-2.5-1.2-1.4-3.1-1.9-4.6c-0.7-0.7-1.6-0.2-2.3-0.3c-1.5-1.6,0.3-2.9,0.6-4.1
		c-0.7-1.5-1.9-0.5-2.8-1c0.2-2.6-2.4-3.8-2.8-5.9c-1.5,0.1-2,0.8-2.4,1.7c0.2,0.2,0.5,0.5,0.7,0.7c-0.5,1.2-2.5,1.8-1.9,3.6
		c0.5-0.1,0.8,0.1,0.9,0.6c0,0.1-0.2,0.3-0.3,0.3c-0.5-0.1-0.7-0.4-0.6-0.9c-0.5,0-1,0-1.6,0c-0.9,1.3-0.6,2.9-0.3,4.2
		c0.2,1.1,1.7,2.3,0.7,3.4c-1.4,1.5,1.5,2.4-0.5,4.5c0.1,0-0.7,0.5-1.3,0.9c0.4,1.5,2.3,0.4,1.8,2c0.9,0.3,1.8-0.4,2.2,0.7
		c-0.7,0.7-1.3,0.6-2.2-0.7c-1.1-0.3-1.9,0.6-2.6,1.5c0.2,0.8,1.9,1.2,0.5,2.5c-0.3-0.3-0.6-0.5-1.2-1c-0.5,0.8-0.9,1.6-1.4,2.5
		c-1-1-1.6-1.6-2.2-2.2c-0.8-0.7-2,0.3-2.7-0.7c1.8-1.4,0.6-3.4,1-5c-0.8-1.1-2-0.1-2.8-0.8c-0.5-0.8,0.9-0.7,0.4-1.5
		c-1-1-1.3-2.6-2-4c-1.7-0.8-2.8,0-3.7,1.3c0.3,0.3,0.6,0.7,0.9,1c-1.2,1.1-2.3,2.1-3.3,3.6c-0.6-1-1.1-2.1-1.5-2.8
		c-0.3-1,0.3-1.2,0.7-1.8c-0.4-0.8-0.8-1.7-1.3-2.6c-0.4,0.3-0.7,0.7-1.1,1c-1.4,0.2-2-1.5-3.4-1.4c1.1-1.8,0.8-2.7,1.3-3.8
		c0.7-1.5-0.5-2.4-0.6-3.6c-1.4-0.2-2.9-0.2-3.7-1.7c0.3-0.3,0.6-0.7,1-1.1c-0.6-0.2-1.2-0.4-1.8-0.6c-0.3-0.9,1.4-1,0.8-1.8
		c0-1.5-1.5-0.5-1.9-1.4c-0.1-0.8-0.2-1.5-0.3-2.3c-0.7-0.5-0.8,0.4-1.3,0.5c-0.4-0.2-0.8-0.5-1.3-0.8c-1.2-0.1-1.6,1-2.2,1.6
		c-0.4,1,0.8,1.3,1,2.2c0,1.4-1.4,1.7-2,2.7c-0.2,1.6-0.1,3.1,1,4.5c0.5-0.1,0.8,0.1,0.9,0.6c0,0.1-0.2,0.3-0.3,0.3
		c-0.5-0.1-0.7-0.4-0.6-0.9c-1.4,0.5-2.2-1.3-3.9-0.9c0,1.5-0.7,3,0.8,4.3c-2.5,0.9,1,3.2-0.9,4.2c1.1,1.4-0.3,2.8,0,4.1
		c0.3,1.5,1.6,2.8,0.8,4.6c-0.5,1.1-2.4,0.5-2.6,2.4c1.1,1.3,2.9,1.9,5.5,2.9c-1.2,0.2-1.9,0.3-2.6,0.3c-0.3,0.7-1.1-0.3-2.2,0.1
		c-0.9,0.3-1.6,1-1.9,2c0.2,1.3,1.6,1.6,1.9,2.5c0.5,1.3-1.2,1.6-0.9,2.9c0.2,1.6,2.4,1.2,3.1,2.9c0.4,1.1,2.5,1.5,3.9,2.3
		c-3.3,1.4-6.3,3.5-10.1,3.4c0,1-0.8,1.5-1.4,1.8c-0.6,0.4-1.6,0.2-1.9,1.2c-0.3-0.3-0.6-0.4-1-0.8c-0.8,0-1.6,1.2-2.7,0.8
		c0.1,0.5-0.1,0.8-0.6,0.9c-0.1,0-0.3-0.2-0.3-0.3c0.1-0.5,0.4-0.7,0.9-0.6c-0.1-1.5,0-2.9,1-3.9c-0.8-2.1-2.6-3.7-2.1-6.2
		c-1,0.4-1.2,1.2-2,1.1c0.1,0.5-0.1,0.8-0.6,0.9c-0.1,0-0.3-0.2-0.3-0.3c0.1-0.5,0.4-0.7,0.9-0.6c-0.6-1.3-2.9-1.9-2.6-3.2
		c0.3-1.5-0.4-2.3-0.7-3.8c-1.2,0-2.4,0-4,0c1.1-2.4,1.8-4.5,1-6.7c-0.4-0.4-0.8-0.8-1.2-1.2c-0.3,0.3-0.7,0.5-1.1,0.9
		c-0.5-0.4-1-0.9-1.6-1.4c0.5-0.5,0.7-0.7,1-1c0-1.3-1.5-0.1-1.8-1.1c-0.4-1,0.3-1.5,0.9-2c-0.3-0.8-1.1-0.4-1.6-0.7
		c-0.8-0.8,0-1.9-0.6-2.9c-0.5,0.4-0.8,0.7-1.2,0.9c-1-0.2-0.1-1.6-1.1-1.8c-0.5,0.9-1,1.8-1.5,2.8c-0.3,1,1.5,1.3,1,2.6
		c-1,0.6-2.3,0.9-3,2.1c0,0.8,0,1.6,0,2.5c0.7,0,1,0.3,1,1c0.5-0.1,0.8,0.1,0.9,0.6c0,0.1-0.2,0.3-0.3,0.3c-0.5-0.1-0.7-0.4-0.6-0.9
		c-0.7,0-1-0.3-1-1c-0.5,0-1,0-1.5,0c-0.9,0.8-0.4,1.9-0.5,2.8c-0.1,1,0.2,2-1.1,2.7c0.7,0.5,1.3,1,2,1.5c-0.8,1.5-0.5,2.9-0.8,4.3
		c-0.3,1.6,1.6,3.2,0.6,5.2c-0.8,0.5-2.1,0.8-2.7,2c1.3,1.5,3.1,2,5.2,3c-1.9,0.8-3.4,0.7-4.8-0.4c-1,0.6-1.4,2.5-3.1,1.7
		c-0.4-0.7,0.4-0.7,0.5-1.1c-3.8-2.6-4.5-7.4-7.3-10.8c-1.8,0.4-2.3,1.4-2.6,3c-0.6,2.9-1,5.8-2.6,8.5c1.6,2.3,0.2,4.2-1.2,6.1
		c0.2,0.5,1.1,0.7,1,0.9c-1.4,1.4-2.4,2.4-4,3.9c1.6,0.7,2.5,1.1,3.2,1.4c-1,2-2.5,2.1-3.2,3c-0.4,0.4-0.4,1.4-1,1.7
		c0.8,2,2.6,1.3,3.9,2c-0.6,1.8-2.2,1.6-3.9,1.8c0.6,1.2,1.2,2.3,1.8,3.5c-2,2.2-5,2.5-7.6,4.4c-1.1,0-2.5,0-4.1,0
		c-0.1,1-0.1,1.7-0.2,2.4c-4.4,2.4-8.8,4.8-13.1,7.2c-0.7,0.4-1.3,0.2-1.9,0.3c0.1,0.5-0.1,0.8-0.6,0.9c-0.1,0-0.3-0.2-0.3-0.3
		c0.1-0.5,0.4-0.7,0.9-0.6c0.2-1.5-0.7-3.3,0.9-4.5c-0.3-0.5-0.8-0.5-1.3-0.5c-0.8-0.3-0.6-1-0.7-1.7c0-0.5,0.1-1-0.5-1.3
		c-0.3,0.3-0.7,0.6-1,0.9c-1-1-0.4-1.7,0.5-2.3c-0.7-1.7-2.8-1.5-3.7-3c-0.3-0.6,0.5-0.6,0.7-1.4c-0.7-0.3-1.7-0.6-2.6-1
		c1-1.1,1.3-1.5,1.6-1.8c-1.5-0.8-3.1-1.2-3.2-3.6c0-0.9-2-2-2.6-3.2c-0.7-1.4-1.4-2.9-1.5-4.8c-0.6,0.6-0.8,0.8-1,1
		c-0.7,0,0.1,0.5-0.4,0c-0.1-0.1-0.3-0.3-0.3-0.4c0.4-1.3-1.5-1.8-1.1-3c-1.9-0.4,0.7-2.3-0.5-2.3c-1.6,0-1.2-1.2-1.7-1.9
		c-0.6-0.9-1.1-1.9-1.7-2.8c0.2-0.2,0.4-0.4,0.9-0.9c-1.1-0.6-2.5-0.9-2.5-2.5c-0.7,0-1.3,0-2,0c-0.9,0.8,0.2,1,0.4,1.5
		c-0.6,0.7-1.3,1.3-1.9,2c0.3,0.4,1,0.8,0.9,1.1c-0.9,3.6-1,7.4-2.8,11c0.7,1.6,0.7,1.6,0.5,4.2c-0.5,0.1-0.9,0.2-1.5,0.4
		c0,1.4,0,2.8,0,4.6c0.2,0.4,1,0,1.9,0.7c-1,0.7-2.7,0.8-2.8,1.9c-0.2,1.2-1.5,1.7-1.3,3c0.3,1.7,2.6,1.1,3,2.7
		c0.5-0.1,0.8,0.1,0.9,0.6c0,0.1-0.2,0.3-0.3,0.3c-0.5-0.1-0.7-0.4-0.6-0.9c-1.4-0.5-2.2,1.2-3.6,1c-0.7,1.2-0.1,2.9-1.4,3.8
		c0,1.1,0.8,1.7,1.4,1.9c1.3,0.4,2.9,0,3.5,1.9c-2,0.3-3.7,1.7-6,1.9c0.8,0.5,1.7,1,2.5,1.4c-0.7,0.8-1,1.2-1.3,1.5
		c0.5,1,2.4-0.3,2.1,1.9c2.4-3.1,5.8-2.8,8.7-4.8c-0.4,2.8-3.1,2.1-3.7,3.7c-0.3,0.8,0,1.2,0.4,1.8c0.4,0.5,0.5,1.1,0.7,1.7
		c0.8,0.1,1.1-1.2,2.2-0.7c1.7,2.5-0.9,3.4-2.2,5c-2.7-1.9-5.3-1.3-7.8,0.8c-0.9,0.6-0.4,1.7-0.6,2.6c-1.6,1.9-4.2,2-6.2,4.1
		c-0.9-2.8-2.2-5-1.7-7.3c-1.3-0.8-1.8-0.1-2.2,0.3c-1.2-1.2-2.5-2.4-4-3.8c-0.3-0.8,2-0.9,0.3-3c-0.6-0.4-2.3,0.6-4.2-0.1
		c0.5-1.6,1.1-3.3,1.7-5.3c-0.3-0.6-0.7-1.5-1.1-2.3c-1.1-0.4-1.4,0.6-2.1,0.8c-0.5-0.5-1-0.9-1.5-1.4c0.6-0.6,1.4-1.1,0.9-2.2
		c-0.5-0.2-1.1-0.4-1.7-0.6c-0.2-0.6,0.4-0.7,0.6-1.1c-0.1-1-0.9-0.5-1.4-0.7c-1-0.7,0-1.9-0.7-2.7c-0.6-0.4-0.7,0.4-1.2,0.6
		c-1.3,0.1,0-1.5-1-1.7c-0.6,0.9-1,2-2.4,2.1c0.4,1,1.1,1.9,0.8,3.2c-0.6,0.7-1.4,1.6-1.8,2.1c-0.6,1.7,0.7,2.4,0.9,3.5
		c0.5-0.1,0.8,0.1,0.9,0.6c0,0.1-0.2,0.3-0.3,0.3c-0.5-0.1-0.7-0.4-0.6-0.9c-1.4,0.5-2.2-1.3-3.8-0.9c-0.3,1.5-0.7,3,0.6,4.4
		c-0.3,0.5-1.3,0.9-0.9,1.9c0.4,0.9,1.6,0.1,2,1.1c-0.6,0.2-1.1,0.4-1.7,0.6c-0.4,0.8,1,0.7,0.7,1.3c0.5,1.3-1.5,1.5-0.5,3.3
		c0.3,0.2,1.1,0.7,1.9,1.2c-1.3,1.6-3.6,0-4.1,2.4c0.3,2.5-1.4,4.9-0.6,7.7c0.9,3.1,0.2,6.2,0.5,9.7c-5.9,2.7-11.9,5.4-18,8.2
		c-1.4,0.1-1.6-2-3-2c-0.8-0.2-1,0.7-1.6,0.9c-1.2-1.5,0.1-2.6,0.5-3.7c0.3-1.1-1.2-1.3-0.9-2.2c-0.8,0.2-1-0.8-1.7-1
		c-1.2-0.2-1.9,1.9-3.5,1c-1.6-0.9-2.7-2.2-3.2-4c-1.5-0.3-2,0.8-2.5,1.7c-0.2,0.8,0.5,1.2,0.9,1.7c-0.2,0.8-1,0.5-1.7,0.8
		c-0.3,1.3-0.5,2.6-1.2,3.9c-0.8,1.3,1.4,2.1,0.9,3.5c-1.5,0-1.7-1.2-2.2-2.3c-0.5-0.9-1.5-1.6-2.7-2.8c0,4.4,0,8.2,0,12
		c0,0.3,0.6,0.7,0.9,1c-2.5,2.1-5.6,2.8-8,4.6c-2.7-1.4-1.7-4.6-3.6-6.2c-1.1-0.2-1.5,0.9-2.3,1.5c0.7,0.8,1.5,1.6,1.9,2.1
		c0.1,1.9-1.3,1.1-1.7,1.7c-0.2,0.8,1.2,1.1,0.6,2.3c-3,1.3-5.9,3.3-9.7,4.2c-0.3-0.1-0.7-1.1-1.7-0.7c-0.9,0.4-0.1,1.7-1.1,2
		c-3.9-1.5-3.9-1.5-6.4,0.5c0.2,0.2,0.5,0.5,0.7,0.7c0.4,0.6-0.3,0.9-0.6,1c-5.4,2.5-10.6,4.9-17.1,2.9c-6.5-2-13.4-3-19.9-5.2
		c-2.7,0.8-5-1.4-7.6-1c-1.2-2-1.2-2-5.2-3.9c-0.9,1.7-3.3,0.2-4,1.6c-9.7-1.3-19.1-4.2-28.9-3.6c-0.6-0.6-1-1-1.5-1.5
		c0.2-0.2,0.4-0.5,0.8-0.8c0.5-0.7-0.8-0.7-0.7-1.3c0.2-0.2,0.4-0.4,0.7-0.7c-0.7-0.9-0.6-2.4-1.9-3c0.4-0.4,0.7-0.8,1-1.1
		c-1.5-1.6-1.5-4.2-3.5-5.5c-1.2,3.3-2.6,6.5-0.5,10c0.5-0.1,0.8,0.1,0.9,0.6c0,0.1-0.2,0.3-0.3,0.3c-0.5-0.1-0.7-0.4-0.6-0.9
		c-1.5,0.3-1.9,1.5-2.4,3.1c-1.4-0.2-2.9-0.5-4.5-0.7c-0.3,0.2-0.6,0.9-1.8,0.4c-0.1-1.5-0.9-3.2-2-5.7c-0.1,2.6-0.9,4.1-1.6,5.8
		c-1.4,0-2.9,0-4.1,0c-0.6-0.5-1.1-0.9-1.6-1.3c0.8-1,2-0.2,3-0.9c0-1.6,0.6-3.5-0.1-4.7c-0.9-1.6-0.1-3.8-1.1-4.5
		c-2-1.4-1.2-4.1-3.4-5.5c-0.5,0.7-1,1.5-1.5,2.3c-1-0.9-1.7-1.6-2.4-2.2c-0.4,0.4-0.8,0.8-1.2,1.2c-0.6,0.8-0.2,1.8-0.3,2.8
		c0.5-0.1,0.8,0.1,0.9,0.6c0,0.1-0.2,0.3-0.3,0.3c-0.5-0.1-0.7-0.4-0.6-0.9c-0.8,0-1.7,0-2.5,0c-1.8,2.6,0.7,5.1,0.5,7.6
		c-0.9,0.6-0.9-0.2-1.6-0.4c-1.8-0.3-0.6,3.1-2.7,2.8c-1.2-3.1-1.2-3.1-4.7-5c0.1,0.5-0.1,0.8-0.6,0.9c-0.1,0-0.3-0.2-0.3-0.3
		c0.1-0.5,0.4-0.7,0.9-0.6c-0.6-1.1-1.2-2.2-1.8-3.3c-0.2-0.3-0.5-0.5-0.7-0.7c-0.4,0.3-0.7,0.6-1.1,0.9c-1.5-1.5-3-3-4.3-4.3
		c-2,1.3-0.4,3.2-1.6,4.3c-0.7-0.6-1.4-1.3-2.6-2.4c0.8,3.6-1.3,6.2-1,9.3c-1.6,0.1-0.3-1.5-1.3-1.6c-1.1,0.3-0.5,1.3-0.6,1.9
		c-0.1,1-1.1,1.2-1.4,1.9c-0.8-0.3-0.4-1.1-0.7-1.6c-1-0.5-1.3,1.5-2.4,0.6c-0.1-0.3-0.5-0.7-0.4-0.8c1.1-1.7,1.1-3.6,0.9-5.6
		c-0.3-0.7-1.1-0.4-1.6-0.7c-0.6-1.5-0.1-3.8-3-3.8c-0.4,2.9-0.9,5.8-1.3,8.7c-0.1,0.7,0,1.4,1.9,1.9c0.1-0.2-0.4-0.6-0.9-1.1
		c0.6-0.7,1.3-0.8,2-0.1c0,0.4-0.1,0.8-1.1,1.2c-0.5,1-1.8,1.7-2.7,2.6c-0.5,1.6-0.3,3,0.6,4.4c-1.1,0.8-2.3,0-3.4,0.5
		c-2.3-5.2-4.2-10.4-7-15.2c-0.4-0.7-1.2-1.2-1.9-2c-2.3,2.1-1.5,5.2-2.7,7.5c0.6,0.2,0.9,0.4,1.1,0.5c0.3,0.1,0.6,0.2,1,0.4
		c-0.3,0.4-0.6,0.7-0.9,1.1c0.3,0.3,0.6,0.7,0.9,1c-1,1.2-2.5,0.1-4,0.9c0.4,2.3-0.8,4.9,0.9,7.3c-0.6,0.6-1.9,0.2-2.3,1.3
		c-0.7-0.3-0.4-1.1-0.7-1.6c-0.7-0.7-1.6-0.2-2.4-0.3c-1,0.7,0,1.9-0.7,2.7c-1.1,0.5-2.2,0.2-3.5,0.2c0-1.8,0-3.5,0-5.1
		c-4.1-3.6-3.2-10.3-8.3-12.9c-2.8,2.2-1.5,5.4-2.1,8.2c-1.3-0.9-2.2-1.7-2-3.1c-1.3,0.1-2.5-0.3-3,0.8c-1,2-1.9,3.9-1.8,6.3
		c0.6,0.2,1.5-0.5,1.9,0.5c-0.7,0.7-1.3,0.6-1.9-0.5c-1.2-0.1-2.3-0.1-3.6-0.1c-1-1.8,0-3.9-0.6-5.7c-0.7-0.6-1.6,0-2.5-0.4
		c-0.3-2.7-2.3-4.6-3.8-7.1c-0.8,1-1.5,1.9-2.5,3.1c-0.2,1.8,0.2,4.3-2.7,5.3c-1.3,1.3,0.4,2.5,0.2,3.8c-0.2,1.3-0.5,2.6-0.5,3.9
		c-0.1,1.5,0,3,0,4.5c-0.3,1.1-1.6,0.3-2,1.2c0,0.3,0,0.6,0,1c0.6,0.3,1.3,0.6,2,0.9c-1,1.1-2.8-0.1-3.5,1.6c-1.2-1,0.2-3.2-2.1-3.8
		c-1.1,0.5-2.4,1.2-3.6,1.8c-0.6-0.4-1-0.7-1.8-1.1c0,2.1,0,3.9,0,5.5c-0.6,0.6-1.1,1.1-1.6,1.6c-0.9-1.5-1.6-3-1.7-4.7
		c-0.6-0.2-1.2-0.4-1.8-0.6c0.3-0.3,0.5-0.6,0.7-0.8c-0.6-5-3.4-8.6-7.2-11.7c-0.4,0.8-0.8,1.7-1.3,2.6c0.3,0.3,0.5,0.5,0.8,0.8
		c-0.6,0.7-1.3,1.4-1.9,2.1c0.8,0.7,1.5,1.4,0.6,2.5c-0.4-0.4-0.8-0.7-1.5-1.3c0,3.8,0,7.4,0,12.1c-1.2-2.1-2-3.3-2.7-4.5
		c-2.1,1.1-1,2.8-2.3,3c1,1.8,0,3-1.2,4.2c1.3,2.6,1.1,3.7-1,4.5c-0.6,0.2-1.4-0.3-1.9,0.3c-0.5,0.6-1,0.9-2,0.6
		c-0.1-1.6-0.8-3.1-1.5-4.7c-1.3-0.8-3-0.9-4.2-2.2c-0.4,0.4-0.9,0.8-1.6,1.5c0.9,2.6-1.3,5-0.9,7.8c-1.3,1.9-2.9,3.4-5.7,3.2
		c-0.8,0.1-1.1-1.3-2.3-1.4c0,56.3,0,112.7,0,169c400,0,800,0,1200,0C1200,355,1200,189,1200,23z M896,73c0.3,0.1,0.8,0.2,0.8,0.3
		c0.1,0.6-0.3,0.7-0.8,0.7c0.1,0.5-0.1,0.8-0.6,0.9c-0.1,0-0.3-0.2-0.3-0.3c0.1-0.5,0.4-0.7,0.9-0.6C896,73.7,896,73.3,896,73
		c-0.5,0.1-0.8-0.1-0.9-0.6c0-0.1,0.2-0.3,0.3-0.3C895.9,72.2,896.1,72.5,896,73z M390,265c-0.5,0.1-0.8-0.1-0.9-0.6
		c0-0.1,0.2-0.3,0.3-0.3C389.9,264.2,390.1,264.5,390,265c0.5-0.1,0.8,0.1,0.9,0.6c0,0.1-0.2,0.3-0.3,0.3
		C390.1,265.8,389.9,265.5,390,265z M933,71c0.1,0.5-0.1,0.8-0.6,0.9c-0.1,0-0.3-0.2-0.3-0.3c0.1-0.5,0.4-0.7,2.8-1.2
		c-0.2,0.2-0.5,0.6-0.5,0.6c-0.4-0.3-1.5,0.6-1.3-0.4C933.3,69.7,934.2,69.8,933,71z M385,267c1.9-0.6,2.4,1.2,3.9,2.2
		c1.1,0,2.6,0,4.8,0c-2.6,1.2-4.4,2.1-6.2,3C386.6,270.3,385.8,268.6,385,267c-0.5,0.1-0.8-0.2-0.9-0.6c0-0.1,0.2-0.3,0.3-0.3
		C384.9,266.2,385.1,266.5,385,267z M47.5,333.9c0.6,3.6,0.2,4-3.3,3.8c-0.3-0.6-0.2-1.2,0.3-1.7c0.3,0.3,0.7,0.6,1,1
		C46.7,336.3,45,334.3,47.5,333.9z M1027.7,31.8c0.6-1.1-0.1-2,0.7-2.7c0.4,0,0.8,0,1.3,0c0.4,1.3,0.4,2.5,0,3.8
		c-1.3,0.1-2.6,0.5-3.7-0.3C1026.4,31.8,1027.1,32.1,1027.7,31.8z M739.2,134.7c-2.3,0.1-0.4,2.5-2.4,3.6c0.6-2-0.3-3.7,0.7-5.4
		C738,133.5,738.3,133.8,739.2,134.7z M825.9,109c-1.7,0.2-2.3-0.7-2.8-1.6c1-0.5,1.9-0.6,2.8,0C825.9,107.8,825.9,108.2,825.9,109z
		 M298.7,305.5c1.3-0.6,1.7-2.2,3.2-1.1c0,0.4,0,0.8,0,1.2C301,306.2,300.1,306.1,298.7,305.5z M148.5,321c-0.7-0.7-0.7-1.3,0-2
		c0.5,0.1,1-0.2,1.3,0.4C150.3,320.6,149.8,321.1,148.5,321z M121,320.6c-1.1,0.6-2,0.6-2.8,0.1c-0.3-0.6-0.3-1.2,0.2-1.6
		C119.3,319.6,120.1,320.1,121,320.6z M150,313.5c-0.7,0.7-1.3,0.7-2,0c0.1-0.5-0.2-1,0.4-1.3c0.6-0.3,1.2-0.2,1.6,0.4
		C150,312.9,150,313.2,150,313.5z M379.3,273.9c2.2,0.3-0.5-2.9,1.3-2.7c0.5,0.9,0.5,1.8-0.1,2.7
		C380.2,273.9,379.8,273.9,379.3,273.9z M1129.9,15.4c1.3-0.6,2.1-0.6,3,0c-0.6,0.7-1,1.2-1.4,1.6
		C1131,16.5,1130.6,16.1,1129.9,15.4z M1096.1,11.4c0.7,0.3,1.4,0.6,2.2,1c-1,0.8-1.6,0.8-2.2,0.2
		C1096.1,12.2,1096.1,11.8,1096.1,11.4z M1099.9,15.6c1.9-0.6,2.5-0.2,2.1,0.7C1101.4,16.1,1100.6,15.9,1099.9,15.6z M1130.2,8.3
		c0.9,0,1.9-0.6,2.9,0.3C1131.9,9.2,1131,9.2,1130.2,8.3z M1099.7,18.2c-0.3,0.5,1,1.3-0.4,1.6C1098.8,19.3,1098.8,18.7,1099.7,18.2
		z M338.1,288.5c-0.9,0.6-1.6,0.9-1.9-0.2C336.7,287.8,337.3,287.8,338.1,288.5z M489,208.5c-0.7,0.7-1.3,0.7-2,0
		C487.7,207.8,488.3,207.8,489,208.5z M479.9,214.5c0.9-0.6,1.6-0.9,1.9,0.2C481.3,215.2,480.7,215.2,479.9,214.5z M678.9,148.5
		c0.9-0.6,1.6-0.9,1.9,0.2C680.3,149.2,679.7,149.2,678.9,148.5z M1095.5,20c-0.7-0.7-0.7-1.3,0-2
		C1096.2,18.7,1096.2,19.3,1095.5,20z M759.9,130.5c0.9-0.6,1.6-0.9,1.9,0.2C761.3,131.2,760.7,131.2,759.9,130.5z M731.9,127.5
		c0.9-0.6,1.6-0.9,1.9,0.2C733.3,128.2,732.7,128.2,731.9,127.5z M299.5,314.1c-0.6-0.9-0.9-1.5,0.1-2
		C300.2,312.7,300.2,313.3,299.5,314.1z M1080,21.5c0.9-0.6,1.5-0.9,2,0.3C1081.3,22,1080.7,22.2,1080,21.5z M799.5,109.1
		c-0.6-0.9-0.9-1.5,0.1-2C800.2,107.7,800.2,108.3,799.5,109.1z M156.5,318.1c-0.6-0.9-0.9-1.6,0.2-1.9
		C157.2,316.7,157.2,317.3,156.5,318.1z M82.5,322.9c0.6,0.9,0.9,1.5-0.1,2C81.8,324.3,81.8,323.7,82.5,322.9z M116.9,323.5
		c0.9-0.6,1.6-0.9,1.9,0.2C118.3,324.2,117.7,324.2,116.9,323.5z M113.5,322c0.7,0.7,0.7,1.3,0,2C112.8,323.3,112.8,322.7,113.5,322
		z M443.9,231.5c0.9-0.6,1.6-0.9,1.9,0.2C445.3,232.2,444.7,232.2,443.9,231.5z M393,262.5c0.3-0.5,0.7-0.5,1,0
		C393.7,263,393.3,263,393,262.5z M396,261.5c-0.3,0.5-0.7,0.5-1,0C395.3,261,395.7,261,396,261.5z M378,276.5c0.3-0.5,0.7-0.5,1,0
		C378.7,277,378.3,277,378,276.5z M342.5,287c0.5,0.3,0.5,0.7,0,1C342,287.7,342,287.3,342.5,287z M334.5,294c-0.5-0.3-0.5-0.7,0-1
		C335,293.3,335,293.7,334.5,294z M294.5,311c0.5,0.3,0.5,0.7,0,1C294,311.7,294,311.3,294.5,311z M79.5,323c0.5,0.3,0.5,0.7,0,1
		C79,323.7,79,323.3,79.5,323z M141.5,322c-0.5-0.3-0.5-0.7,0-1C142,321.3,142,321.7,141.5,322z M115.5,319c0.5,0.3,0.5,0.7,0,1
		C115,319.7,115,319.3,115.5,319z M802.5,106c0.5,0.3,0.5,0.7,0,1C802,106.7,802,106.3,802.5,106z M821.5,103c0.5,0.3,0.5,0.7,0,1
		C821,103.7,821,103.3,821.5,103z M812,92.5c-0.3,0.5-0.7,0.5-1,0C811.3,92,811.7,92,812,92.5z M879,88.5c-0.3,0.5-0.7,0.5-1,0
		C878.3,88,878.7,88,879,88.5z M916.5,77c-0.5-0.3-0.5-0.7,0-1C917,76.3,917,76.7,916.5,77z M1065,19.5c-0.3,0.5-0.7,0.5-1,0
		C1064.3,19,1064.7,19,1065,19.5z M1123.5,16c0.5,0.3,0.5,0.7,0,1C1123,16.7,1123,16.3,1123.5,16z M1104,15.5c-0.3,0.5-0.7,0.5-1,0
		C1103.3,15,1103.7,15,1104,15.5z M1097,14.5c0.3-0.5,0.7-0.5,1,0C1097.7,15,1097.3,15,1097,14.5z M1138.5,13c-0.5-0.3-0.5-0.7,0-1
		C1139,12.3,1139,12.7,1138.5,13z M447.5,237c0.5,0.3,0.5,0.7,0,1C447,237.7,447,237.3,447.5,237z M489.5,206c-0.5-0.3-0.5-0.7,0-1
		C490,205.3,490,205.7,489.5,206z M491,187.5c-0.3,0.5-0.7,0.5-1,0C490.3,187,490.7,187,491,187.5z M561.5,185c0.5,0.3,0.5,0.7,0,1
		C561,185.7,561,185.3,561.5,185z M595,168.5c0.3-0.5,0.7-0.5,1,0C595.7,169,595.3,169,595,168.5z M599.5,166c0.5,0.3,0.5,0.7,0,1
		C599,166.7,599,166.3,599.5,166z M583.5,162c-0.5-0.3-0.5-0.7,0-1C584,161.3,584,161.7,583.5,162z M662,141.5c-0.3,0.5-0.7,0.5-1,0
		C661.3,141,661.7,141,662,141.5z M723.5,140c0.5,0.3,0.5,0.7,0,1C723,140.7,723,140.3,723.5,140z M736,131.5c0.3-0.5,0.7-0.5,1,0
		C736.7,132,736.3,132,736,131.5z"/>
	<path class="st0" d="M475,225c-0.2-1.6,0.4-2.6,2-3c0-1.1,0-2.3,0-3.5c-1.1-1.1-2.3-2.2-3.6-3.4c-0.4,0.3-0.8,0.8-1.3,1.2
		c-0.6,1.8,0.6,3.9-1.3,5.5c0.5,1.1,1.1,2.2,1.6,3.2C473.4,225,474.2,225,475,225z M475,219.5c-0.3,0.5-0.7,0.5-1,0
		C474.3,219,474.7,219,475,219.5z"/>
	<path class="st0" d="M827,102c0.6-1.4,1.8-2.5,0.4-4.3c-0.7-0.9-1.5-2.3-1.5-3.8c0-0.9-0.9-1.6-2.4-2c-0.2,1.4-1.7,2.2-1.5,3.9
		c-0.1,1.6,1.9,1.7,2,3.3c-0.3,0.6-0.7,1.2-1,1.9c1.2,0.2,1.6,1.4,2.5,2C826,102.7,826.2,101.9,827,102z M824.5,96
		c0.5,0.3,0.5,0.7,0,1C824,96.7,824,96.3,824.5,96z"/>
	<path class="st0" d="M919,60c-0.1,0.8,0.7,1,1.1,1.8c-1.7,1.2-0.4,3.2-0.6,5.1c0.9,0.9,1.4-0.6,2.1-1c1.2-0.5,1.7,1.7,3.2,0.8
		c0.3-1.1,0.3-2.3,0-3.6c-1-0.1-1.4,1.7-2.6,0.4c0.7-0.4,1.4-0.8,1.9-1.1c-1-2.4-2-3.7-3.7-4.4C920,58.8,919,59,919,60z"/>
	<path class="st0" d="M42.7,329.2c0.3,0.7,0.7,1.4,1,2.1c1.7-0.6,1.4-2.3,2.3-3.1c-0.8-1.7-1.6-3.3-2.6-5.4
		c-0.3,1.5-1.4,2.4-1.5,3.8C41.9,327.6,43.5,328.5,42.7,329.2z"/>
	<path class="st0" d="M1025.2,18.8c0,2.7,0,4.9,0,7.1c2.1,0.3,2.5-1.6,4-2.5C1027.2,22.6,1027.2,20.3,1025.2,18.8z"/>
	<path class="st0" d="M260.7,326.7c2.1,0.7,2.8-1,4-0.9c0.3-0.6-0.4-0.7-0.6-1.1c-0.2-0.3-0.4-0.5-0.7-0.7c-0.5-0.2-0.4,0.2-0.5,0.4
		C262.4,325.2,261.6,325.8,260.7,326.7z"/>
	<path class="st0" d="M263,324c0-0.6-0.1-1.2-0.1-1.9c-0.6-0.1-1-0.1-1.4-0.1c-0.6,0.5-0.6,1.1-0.2,1.9
		C261.8,323.9,262.4,324,263,324z"/>
	<path class="st0" d="M89.9,324.5c0.8,0.7,1.4,0.7,2,0.1C91.5,323.6,90.8,323.9,89.9,324.5z"/>
	<path class="st0" d="M309,302c0.5,0.1,0.8-0.1,0.9-0.6c0-0.1-0.2-0.3-0.3-0.3C309.1,301.2,308.9,301.5,309,302z"/>
	<path class="st0" d="M477,222c-0.1,0.5,0.1,0.8,0.6,0.9c0.1,0,0.3-0.2,0.3-0.3C477.8,222.1,477.5,221.9,477,222z"/>
	<path class="st0" d="M763,125c-0.1,0.5,0.1,0.8,0.6,0.9c0.1,0,0.3-0.2,0.3-0.3C763.8,125.1,763.5,124.9,763,125z"/>
</g>
</svg>
