<?xml version="1.0" encoding="utf-8"?>
<!-- Generator: Adobe Illustrator 22.0.1, SVG Export Plug-In . SVG Version: 6.00 Build 0)  -->
<svg version="1.1" id="Layer_1" xmlns="http://www.w3.org/2000/svg" xmlns:xlink="http://www.w3.org/1999/xlink" x="0px" y="0px"
	 viewBox="0 0 1200 418.9" style="enable-background:new 0 0 1200 418.9;" xml:space="preserve">
<style type="text/css">
	.st0{fill:#50507B;}
</style>
<g>
	<path class="st0" d="M0,71.9c0-1,0-2,0-3c1.1-0.2,1.5,2.2,2.9,0.6c-0.3-0.3-0.6-0.7-0.7-0.9c0-1.7,2.3-1,2.5-2.5
		c-0.8-0.5-2,0.4-2.7-0.7c0-0.5,0-1,0-1.5c0.8-0.2,1,0.7,1.9,1c0-1.3,0-2.5,0-3.5c1.7-1.3,2.8,0.3,4.1,0.2c0.1-0.6-0.2-1.2,0.6-1.6
		c0.3-0.2,1.1,0.2,1.4-0.6c-0.9-0.9-1.9-1.9-2.9-2.9c0.3-0.3,0.6-0.7,0.9-1c-0.1-0.6-1.1-0.7-0.8-1.9c1.7-1.6,2.6-4,3.8-6.3
		c-0.6-0.6-1.2-1.2-1.7-1.7c0.7-2.4,4.1-0.8,4.8-3.2c-0.7-1-2,0.2-2.7-0.7c0.2-0.5,0.5-0.9,0.7-1.4c-0.7-0.2-1.3-0.4-1.7-0.6
		c0-1.6,0-3,0-4.5c1.4,0.3,2.5,1.7,3.7,0.5c-0.3-1.5-1.8-1.4-2.7-2.3c1.8-1.4,0-3.9,1.9-5.3c0.1-0.1,0-0.3,0-0.5
		c-0.4-0.5-0.7-1-1.4-1.9c1.7-0.3,0.8-2.2,2.4-2.8c1.4,1.4,2.8,2.9,4.2,4.3c0.6-0.6,1-0.9,1.4-1.3c0.4,0.9,0.9,1.8,1.2,2.5
		c-0.1,0.7-1.1,0.7-0.2,1.6c1-0.5,2.4,0.6,3.5-0.6c-0.2-1.1,0.4-2.3-0.3-3.3c-1.3,0.1-0.2,1.5-1.2,1.8c-1.1-1.8-1.6-4-3.4-5.3
		c1.2-1.4,1.4-2.8,0-4.2c0.7-0.4,0.9-1.4,2.1-1.5c0.8-0.3,0.9,1.3,1.9,1c-0.1,0.5,0.1,0.8,0.6,0.9c0.1,0,0.3-0.2,0.3-0.3
		c-0.1-0.5-0.4-0.7-0.9-0.6c0.2-1-0.2-1.9-0.3-2c0.3-0.8,0.5-1.6,0.8-2.3c1.7,0.8,2.9,2,4.4,0.9c-0.1-1.1-1.8-1.2-1.5-2.5
		c0.5-0.4,1.3,0,1.7-0.7c-0.7-0.5-1-1.1-1.1-2c-0.1-0.8-1.6,0-1.8-1.1c1.8-1.3,0.6-2.7,0.1-4.1c1.6-0.6,3.1-1.5,3.8-1.5
		c1.8-0.9,0.2-2.2,1.7-2.7c0.6,1.6,1.5,3.1,1.5,5c0.6-0.5,0.9-0.8,1.3-1.1c1,0.2-0.1,2.2,1.5,1.9c0,0.7,0.2,1.4,0,2
		c-0.3,0.9,1.4,1,0.7,1.9c-0.7,0.5-0.9,1.1-0.5,1.9c1.2,0.5,3,0,3.7,1.7C38,15,36.6,16.6,37,18.9c-0.6,0-1.2,0.1-1.8,0.1
		c-0.2,0.7-0.4,1.3,0.2,1.8c0.8-0.4,1.5-0.9,1.6-1.9c0.8,0,1.7,0,2.5,0c0.4,0.6,1.3,0.9,1.3,1.5c-0.6,2.2-3,0.8-3.8,2
		c0,1.4,0.6,1.5,1.3,1.5c1.2,0.1,0.4,1.4,1.1,1.8c0.7,0.4,0.6-1.1,1.4-0.6c1.3,1.4-2.1,2.4,0.2,4.1c0.9-1,1.9-2,2.8-3
		c1.4,1.1,1.5,3.3,3.7,4.4c-1.2,0.2-1.7,0.1-2,0.3c-0.5,0.4-1,0.9-1.5,1.4c0.7,0.8,1.4,1.6,2.7,1.7c0.6,0.1,0.3,0.8,0.3,1.3
		c-0.7,1.1-2.3-0.2-2.8,0.9c-1.2,2.4,1.7,0.9,1.7,2.2c-1.3,0.3-0.3,2.4-1.9,2.4c0.1-0.5-0.1-0.8-0.6-0.9c-0.1,0-0.3,0.2-0.3,0.3
		c0.1,0.5,0.4,0.7,0.9,0.6c-0.9,2-1.7,4.1-4,5c0.1-0.5-0.1-0.8-0.6-0.9c-0.1,0-0.3,0.2-0.3,0.3c0.1,0.5,0.4,0.7,0.9,0.6
		c-0.2,1.6,1.7,0.5,1.9,1.3c-0.2,0.7-1.1,0.8-0.9,1.7c-0.5-0.1-0.8,0.1-0.9,0.6c0,0.1,0.2,0.3,0.3,0.3c0.5-0.1,0.7-0.4,0.6-0.9
		c1,0.2,1.9-0.2,2.6-1c0.8,0.4,0,1.7,1.1,1.9c1,0.4,1.3-0.8,2-0.8c0.2,0.6,0.4,1.2,0.7,1.7c1.4-0.6,2-2.3,3.6-2.8
		c-0.1,1.7,0.6,3.3-0.9,4.4c0.5,1.1,2.3,1.4,1.9,3.1c-1.3,0.6-2.6,1.3-4.9,2.4c1.3,0.7,2.1,1.2,2.9,1.6c-1,0.8-2.3-0.2-2.9,0.9
		c0.7,1.2,2,1.4,3.1,2.2c-0.6,1.8,1.1,2.8,1.4,4.3c1.3,0.8,2-2.3,3.1-1c1.3,2.2-1.6,2.3-1.3,4.2c2.8-1,4-3.4,5.6-4.6
		c0.3-1.4-0.6-1.6-0.9-2.1c0.4-0.8,1.7,0,1.9-1c0.5-1.3-1.7-1.7-0.8-3.1c0.3-0.1,0.6-0.2,0.9-0.3c-0.1,0.5,0.1,0.8,0.6,0.9
		c0.1,0,0.3-0.2,0.3-0.3c-0.1-0.5-0.4-0.7-0.9-0.6c0.2-1.3,1.6-1.6,2-2.7c0.2-1.1-0.3-2.1-0.9-3c1.1-0.8,0.9-2.9,2.8-2.8
		c-1.2-1.7-1.2-1.8-0.5-2.5c1.1,0,2.2,0,3.2,0c0.4,0.9,0.8,1.7,1.2,2.6c-0.2,0.4-1.3,0.6-0.3,1.3c0.5,0.1,1-0.2,1.4,0.4
		c-0.3,0.5-0.6,1-1,1.6c0.1,0.9,1.6,1.3,1.2,2.5c-0.3,0.4-0.7,0.7-1.3,1.4c0.8,0.5,1.6,1,2.5,1.5C69.3,60,68.8,60.4,69,61
		c0.6,1.6,2,1.6,3,2.3c-0.3,0.9-1.6,0.1-2,1.2c-0.2,1.1,0.8,1.7,1.5,2.2c1.1,0.8-0.3,1.3-0.1,2.2c0.6,2.3,2.9,3.3,3.4,5.5
		c-0.2,0.3-0.6,0.6-0.9,1c0.9,2.3,1.6,4.7,1.4,7.2c0.7,0.6,1.9-0.4,2.6,0.6c0.1,1.1-0.3,2.3,0.3,3.3c0.5,0.1,1,0.2,1.4,0.4
		c0.6,0.3,1.1,0.7,1.3,0.9c0,2.4-0.6,4.5,0.1,5.9c1,1.9,0.5,3.8,1,5.6c1.2,0.9,1.9,2.1,2.4,3.3c1.8,0,3.5,0,5.1,0
		c12.7-9.5,28-13.6,42.5-19.9c2.1,0.2,4.5-0.5,6.7,0.7c0.2-1.1,0.4-1.6,2.2-2.4c0.8,0.1,0.5-0.3,0.5-0.3c-0.4,0.3-1.5-0.6-1.3,0.4
		c0.2,0.8,1.1,0.8,0.9-0.1c-0.7-2.3,0.8-4.2,0.8-5.9c0-1.9,0.2-3.6,0.6-5.5c0.8,0.8,1.3,1.4,2,1.9c0.5,0.4,1.8-0.1,1.6,1.5
		c-0.2,0.3-0.6,0.8-0.9,1.3c1.1,1.1,1.7,0,2.4-0.6c0.4,0.6,1.3,0.9,1.3,1.4c-0.1,0.7-1.1,0.8-0.5,1.4c3.2,0.2,3.2,0.2,3.7-0.3
		c-0.1-0.5,0.2-1-0.3-1.3c-0.7-0.2-0.7,1-1.3,0.7c-0.9-1.7-1.6-3.2-2.5-4.9c0.2-1.9-0.3-4,0.4-6.2c0.9,1,1.6,1.8,2.7,0.7
		c-0.3-0.4-0.6-0.7-1-1.1c1.1-0.4,0.7-1.8,1.4-2.4c0.7,0.8,1.5,1.1,3.5,1.3c0.8,0.1,0.5-0.3,0.5-0.3c-0.4,0.3-1.5-0.6-1.3,0.4
		c0.2,0.8,1.1,0.8,0.9-0.1c-1.1-1.3-0.9-2.2-0.1-2.7c-0.4-1.1-1.8-1.3-1.9-2.6c0.2-1,1.4-1.7,1-3c1.7-0.2,0.7-1.5,1-2.2
		c0.1-0.3,0.3-0.5,0.5-0.7c0.3,0.3,0.7,0.6,1,0.9c1.2-0.7-0.3-2.3,1.1-2.9c0.6,1.3,1.3,2.6,1.9,3.9c0.4-0.4,0.6-0.6,0.9-0.9
		c0.3,0.3,0.7,0.6,1,0.8c0.6,0.1,0.6-1.2,1.7-0.4c-0.6,1.4-1.3,2.8-1.9,4.2c0.6,0.2,1.2,0.4,1.8,0.6c-0.5,0.8-1.8,1.3-0.7,2.4
		c0.8,0.6,2-0.3,2.4,0.3c0.8,2.3-1.4,3.8-0.5,5.8c-1.2,0.2-2.3-0.3-3.5,0.6c0.6,0.5,1.2,0.9,1.7,1.4c0.5-0.5,1-1,1.8-2
		c0.7,0.2,1.7-0.3,2.6,0.4c0.7,2.5-2.5,2-2.9,3.5c0.3,1.8,1.9,2,3,2.7c-0.9,0.7-1.5,1.4-0.2,2.7c0.6-0.8,1.1-1.6,1.7-2.3
		c0.4,0.4,0.7,0.7,0.9,0.9c0.7,0.3,0.7-1,1.4-0.6c0.4,1,0.9,2,1.3,2.9c-0.2,1.4-2.8,1.6-1.7,3.7c0.5-0.2,0.9-0.5,2-1
		c-0.7,1.2,0.1,2.2-0.7,3c-0.5,0.3-1.3-0.1-1.6,0.8c0.4,0.5,1.1,0.8,0.9,1.7c-1.7,1.9-1.4,5.6-5.3,6.1c2.2,0.8,2.9,3.3,5.1,3.3
		c0.4-0.3,0.6-0.5,0.8-0.7c0.9,0.3-0.2,1.7,1,1.7c1.2-0.2,1.3-2.5,3.1-1.5c0.9,1.1-0.4,1.6-0.6,2.5c1.1,0.7,0.9,2.1,1.6,2.8
		c-0.6,2.2-2.8,0.9-4.4,2.7c1,0.4,1.9,0.8,3,1.3c-1.1,0.4-1.7,0.6-2.9,1.1c1.7,0.4,2.9,0.8,3.3,2c-0.4,0.5-0.6,0.7-0.8,1
		c1.1,0.4,0.6,1.8,1.4,2.4c0.8,0.2,1.6-0.3,2.5,0.5c-0.4,0.9-1.7,1.2-1.7,2.2c0.3,0.6,1,0.7,0.8,1.4c-0.5-0.1-0.8,0.1-0.9,0.6
		c0,0.1,0.2,0.3,0.3,0.3c0.5-0.1,0.7-0.4,0.6-0.9c1.7-1.4,3.8-1.9,5.7-2.8c0.4,0.5,0.8,0.9,1.3,1.4c-1.2,1-1.4,2.5-2,3.7
		c1.9,1.5-1.5,3.6,0.7,4.9c1.9,1.1,0.7,3.9,2.3,4.5c3.3-1.1,6-1,8.9,0.6c4.1-3.5,9.6-2.4,14.3-4.3c1.9,2.1,5.1,0,7.1,2
		c2-0.5,3.6,1.1,5.5,1.3c2,0.2,3.5,1.9,4.4,3.5c1,1.7,3.2,2.2,3.8,3.8c0.8,2.2,2.6,3.2,3.8,4.5c4.8-0.8,8.8-2.9,13.5-3.4
		c-0.9-0.9-1.5-1.5-2.3-2.3c1.7-0.8,2-2.7,3-4c-0.3-0.3-0.6-0.7-0.7-0.9c0.5-0.6,0.9-1.1,1.3-1.6c0.4,0.4,0.8,0.7,1.1,1
		c0.4-1.3,1.9-0.5,2.4-1.5c-2-1.7-1.2-4.3-2-6.4c-0.1-0.2,0.1-0.6,0.2-0.9c0.6-0.2,1.2-0.4,1.7-0.6c0.5-1.1-0.4-1.6-0.9-2.2
		c2.3-1.4,2.7-2.2,3-5.7c0-0.3,0.3-0.5,0.5-0.8c0.5-0.1,1,0.2,1.5-0.7c-0.7-0.5-1.5-1-2.3-1.5c3-0.4,3-2.9,4.2-4.5
		c-1.2-0.7-0.9-2.1-2.1-3.3c1.4-1.4,2.7-2.6,3.9-3.8c-0.1-0.2-0.4-0.5-0.8-1.1c1.4,0,2.6,0,3.8,0c0.4,0.4,0.9,0.9,1.3,1.3
		c-0.5,0.6-1.3,1-0.9,2c0.4,0.9,1.7,0.1,1.9,1c0.4,1-0.7,1.3-0.8,2.1c1.7,1,0.4,2.1,0.3,2.8c-0.2,2.3,2,0.9,2.5,2.1
		c-0.4,0.8-1.7,0-1.9,0.9c-0.4,2.5,2.8,2,3,3.5c-0.3,1.6-1.6,0.7-2,1.6c0.7,0.3,1.3,0.6,2,0.9c-0.3,0.4-0.7,0.7-1,1.1
		c1.7,0.9,0.4,3.1,1.8,4.1c-0.7,0.7-1.5,1.3-0.3,2.2c0.4-0.3,0.7-0.6,1-0.9c0.5,1.1,1,2.1,1.4,3c0,1-1.6,1.4-0.8,2.6
		c0.5,0.2,1.1,0.4,1.8,0.7c0,1,0,2.2,0,3.3c4.2,1.2,7.1,4.2,10.9,6.4c-0.2-1.8,1.2-3.1,1-4.6c-0.2-2.5,2.6-2,3.1-3.2
		c-0.1-1.4-1.6-1.8-0.9-2.9c0.3-0.9,1.9,0.2,1.9-1.2c0.4-0.9-1-1.1-0.8-2c0.6-0.2,1.2-0.4,1.7-0.6c0-1.2-0.2-2.4,1.2-3.2
		c-1.5-0.6-1.1-1.9-1-3c0.9-0.9,1.9-1.9,2.9-2.9c-0.3-0.3-0.6-0.7-1.4-1.6c1.6,0.6,2.1-0.6,3.1-0.8c1.1,1.5,0.7,3.7,2.3,4.8
		c0.1,1.3-0.4,2.6,1,3.5c-0.6,0.6-1.3,1.1-0.9,2c0.2,1,1.8-0.3,1.7,1.1c-0.6,0.2-1.2,0.4-1.8,0.7c1.3,0.5,0.2,2.7,2.6,2.6
		c0.3-2.1,2.3-3,3.4-4.6c0-1.5,0.3-2.9-0.8-4.1c1.2-1.1,2.2-2.4,3.8-2.9c-3.3-1.3-2.7-4.7-4.1-6.9c1.6-1.5,2.8,0.1,4,0.1
		c0.8-2.1-1.4-1.3-1.9-2.2c-0.2-2.6,0.3-4.8,2.9-6.1c-0.3-0.9-1.8,0.2-1.9-1.3c-0.6-0.8,1-0.9,0.8-1.8c-0.1-0.4-1-0.4-0.3-1.3
		c1.5,0.3,2.8,1.6,4.2,1.3c1.3,1.4-1.2,1.7-0.2,2.7c1.4,0.4,2.2-1.5,3.6-0.9c0.2,3,0.7,3.9,2.6,3.9c0.1-1,2.4-1.2,0.9-3
		c-0.3,0.3-0.7,0.6-1,0.9c-0.9-0.4-0.1-2.6-2.5-1.9c-0.2-1.1,0.2-1.9,1-2.7c-0.6-0.2-1.2-0.4-2.1-0.7c0.2-1-0.4-2,0.8-3.1
		c0.2-0.2-1-1.8-0.7-2.9c0.1-0.2,0.4-0.4,0.6-0.6c0.8,1,2.1,1.2,3.1,1.7c1.1-1.1-0.3-1.6-0.6-2.7c1.6,0.1,0.4-1.7,1.8-2.2
		c0.5,0.7,1.1,1.5,1.6,2.1c1-0.2,2,0.3,2.6-0.6c-0.4-0.9-1.7-0.1-2-1.1c0.2-0.7-0.4-1.6,0.5-2.3c0.3,0.3,0.7,0.6,1,0.9
		c0.6-0.4,0.6-1,0.3-1.6c-1.2-0.4-2.5-0.7-2.8-2.2c0.1-1.1,1.5-1.8,1-3.1c1.7-0.2,0.7-1.5,1-2.3c0.1-0.3,0.4-0.4,0.5-0.6
		c0.3,0.3,0.7,0.6,1,0.8c0.6-0.5,1-0.9,1.5-1.4c-0.7-0.8-1.7-1.4-0.6-2.5c0.5,0,1-0.2,1.4,0.2c0.6,1.5-0.4,3.2,0.8,5
		c1.3-1.4,2.9-0.6,4.6-0.8c-0.7,1.5-1.4,2.8-2.2,4.3c1.7,0.4,0.4,2,1.3,3.2c1.4-0.4,2.1,0.7,2.6,1.8c0.5,1.8-1.7,2.9-0.9,4.7
		c0.6,0.4,0.8,1.3,0.6,1.3c1.5-0.1,1.6-1.2,2.2-0.5c-0.2,2.6-0.2,2.6-2.9,4.7c0.3,1.7,3.3,0.9,3.1,3.1c0.4,0.8-1.6,0.9-0.5,1.9
		c1.6,0.4,2-1.5,3.1-1.9c0.9,1.1,2.8,1,3.3,2.5c0.9,2.1-1.3,2.8-1.9,4.2c-0.2,0.4,0,0.9,0.5,1.2c0.3-0.3,0.7-0.6,1-0.9
		c0.6,0.9,0.6,2,1.3,2.5c-1,1-2.2-0.2-2.8,1c0.4,0.5,1.1,0.8,0.9,1.7c-1.6,1.8-0.8,5.3-3.9,6.2c-0.6,1.4,0.5,2.4,0.9,3.6
		c-0.7,0-1,0.3-1,1c-0.5-0.1-0.8,0.1-0.9,0.6c0,0.1,0.2,0.3,0.3,0.3c0.5-0.1,0.7-0.4,0.6-0.9c0.7,0,1-0.3,1-1
		c1.3,0.1,1.5,1.5,2.6,1.9c0.3-0.3,0.7-0.6,1-0.9c0.5,0.6,0.9,1.1,1.6,1c1.3-0.2,1.6-2.7,3.5-1.8c0.8,1.4,0.1,2.4-0.7,3.5
		c-1.1,1.5,1.5,2.4,0.7,4.3c-1.4-1.2-1.5,1.1-2.7,1c0.1-0.5-0.1-0.8-0.6-0.9c-0.1,0-0.3,0.2-0.3,0.3c0.1,0.5,0.4,0.7,0.9,0.6
		c0.2,1.2,1.4,1.6,2,2.6c-0.7,1.1-2.2-0.2-3.1,1.4c1.7-0.4,2.4,0.7,3.2,1.7c0,1.1,0,2.3,0,3.4c-0.5-0.1-0.8,0.1-0.9,0.6
		c0,0.1,0.2,0.3,0.3,0.3c0.5-0.1,0.7-0.4,0.6-0.9c0.8-0.2,1,0.7,1.5,0.9c0.5-0.1,0.6-1.3,1.7-0.2c-1.5,1.4-0.9,3.5-2.1,5.2
		c2.6,0.4,2.5-1.8,3.3-2.8c1.4-0.3,3,0.5,4.1-1c0.5,0.5,0.9,0.9,1.4,1.4c-0.3,0.3-0.6,0.7-0.9,1c0.3,0.3,0.6,0.7,0.9,1
		c-1.2,1-1.4,2.1-0.5,3.4c1.1,0,2.3,0.3,3.4-0.3c0.3-0.5,0-1.3,0.7-1.7c0.6,0,1.3,0,2,0c0.5,0,0.6,1.3,1.2,0.8
		c0.5-0.5,0.9-0.9,1.3-1.3c-0.3-0.3-0.6-0.7-1.1-1.2c0.4-1.2,2-2.6,1-3.8c-1.2-1.4-0.7-2.7-0.9-5c0.8-0.5,2-1.3,2.9-1.9
		c0.3-1.3-0.4-1.6-0.8-2.1c0.6-1.1,1.8-1.6,3.1-2.4c-1.6,0.5-2.1-0.8-3.3-1.8c1.2-0.8-1.2-2.6,2.1-3.1c0.8,0.1,0.5-0.3,0.5-0.3
		c-0.4,0.3-1.5-0.6-1.3,0.4c0.2,0.8,1.1,0.8,0.9-0.1c-1-1.1-1-1.9-1-3.3c0.5-0.3,1.3-0.9,2-1.4c-0.4-0.6-1-0.9-1-1.3
		c-0.1-0.8-0.4-1.6,0.4-2.3c2.1,0.1,3.3,1.6,4.5,3.2c0.7-0.5,1.2-0.8,1.6-1.2c1.3,0.5,1.2,2.1,2.1,3c0.7-0.1,1.4-0.1,1.3-1.1
		c0.5,0.1,0.8-0.1,0.9-0.6c0-0.1-0.2-0.3-0.3-0.3c-0.5,0.1-0.7,0.4-0.6,0.9c-1.3-1.5-2.6-3-3.9-4.5c1.9-0.4-0.1-3.2,1.7-3.4
		c2.1-0.2,0.9-2.8,2.6-3c0.7,0.8,1.5,1.1,2.5,1c-0.1,0.5,0.1,0.8,0.6,0.9c0.1,0,0.3-0.2,0.3-0.3c-0.1-0.5-0.4-0.7-0.9-0.6
		c-0.2-1,0.2-2.1-0.5-3.2c-0.8-1.2-1.1-2.8,0.5-3.8c-0.1,0.5,0.1,0.8,0.6,0.9c0.1,0,0.3-0.2,0.3-0.3c-0.1-0.5-0.4-0.7-0.9-0.6
		c0.2-1.9,1.9-0.5,2.7-1.2c0.9-0.2-0.4-1.7,1-1.6c0.8,0.8-0.3,2,0.7,2.7c1.5,0.4,3.1-0.3,5.2,0.7c-1.1,0.7-1.9,1.2-2.2,1.5
		c0.1,2.7,2.4,2.9,3.6,4.3c-0.6,1.2-2.4,1.8-1.6,3.5c-0.9,0.3-1.8-0.4-2.2,0.7c0.7,0.7,1.3,0.6,2.2-0.7c0.7,0.2,1.7-0.2,2.6,0.4
		c0.6,1.7-1.2,2.1-1.9,3.3c1.3,0.7,2,2,2.5,3.4c0.7-0.7,1.4-1.3,2.1-2c0.6,0.6,1.2,1.2,1.8,1.8c0.5,0.4,1.8-0.1,1.7,1.2
		c0.2,1.6-1.8,0.4-2,1.6c0,0.4-0.1,1,0.4,1.2c0.6,0.1,0.6-1.2,1.4-0.7c0.3,0.6,0.3,1,0.1,1.5c-0.3,0.1-0.6,0.2-0.9,0.3
		c-0.4,0.1-1,0-0.7,0.7c0.3,0.3,0.5,0.5,0.7,0.7c-1.5,1.6-1.2,4.5-3.9,5c0,0.9,0,1.5,0,2.4c1.5-0.4,2.9,0.3,4.1,0.6
		c1.7,0.4,3-0.3,4.3-0.5c1.7,1.7-1.4,2.3-0.3,3.6c0.2,0.9,1.8-0.3,1.7,1.1c-1.1,0.9-2.6-0.2-3.7,0.7c0.1,1.1,1.8,1.2,1.6,2.4
		c-0.6,0.3-1.4,0-1.7,0.8c0.4,0.8,1.9,0.1,1.9,1.1c0,1.2,0.9,1.8,1.6,2.3c0.6,0.4,1.6-0.3,2.3,0.4c-0.2,1.3-2.7,1.6-1.6,3.5
		c1.5,0.7,2.1-0.7,2.7-1.5c0.9-1,2.4,0.5,3-1.1c0.4-0.9-0.9-1.1-0.8-2c2.3-0.3,3.1-1.9,2.8-4.3c2.7,0,3.4-3.1,6-2.9c0,0.7,0.3,1,1,1
		c-0.1,0.5,0.1,0.8,0.6,0.9c0.1,0,0.3-0.2,0.3-0.3c-0.1-0.5-0.4-0.7-0.9-0.6c0-0.7-0.3-1-1-1c-1-1.4-2.8-2.2-3-4.2
		c0.4-2.3,2.8-3.4,3.3-5.6c1.3-0.6,2.5-1.1,4-1.8c-2.3-0.2-2.4-1.9-2.9-2.9c0.7-2.3,1.3-4.3,2-6.5c1.1-0.5,2.6,0.6,3.7-0.7
		c-1.5-0.5-1-2.2-1.9-2.9c1.8-3.3,1.5-7.6,4.8-10c-0.8-0.6-1.4-1.1-0.9-2.2c0.5-0.2,1.1-0.4,2-0.7c-0.7-0.5-1.3-1-1.1-2.1
		c1.5-0.8,1.8-2.7,2.9-4.1c-1.2-0.6-1.1-2.1-1.9-3.1c1.8-0.3,2.7-1.7,3.9-2.8c-0.6-0.7-1.7-1.3-0.5-2.4c0.3,0.3,0.7,0.6,1,0.9
		c0.3-0.3,0.7-0.6,1-0.9c0.9,1.5,1.5,3.2,1.8,4.9c0.7-0.3,0.8-1,1.4-0.8c1.3,1.4-1.1,1.8-0.7,2.9c0.1,0.9,1.3,1.1,1,2.1
		c0.1,0.6-1.1,0.7-0.8,1.4c0.6,0.2,1.2,0.4,1.8,0.6c-0.3,1.1-1.6,0.3-2,1.2c1.1,0.5,0.7,1.7,1.4,2.4c0.7,0.5,1.9-0.6,2.5,0.7
		c-0.6,0.6-1.2,1.2-1.8,1.8c1,0.8,0.7,2.4,1.9,3.1c-0.3,0.3-0.6,0.7-1,1.1c1.7,0.7,0.4,2.5,1.5,3.4c0.4-0.3,0.7-0.6,1.1-1
		c1,0.9-0.2,2.8,1.4,3.4c-0.7,0.7-1.3,1.4-2,2.2c0.7,0.2,1.3,0.4,1.8,0.7c0.6,1.4-0.4,3.2,1.1,4.4c-0.8,0.6-1.3,1.2-0.4,2.4
		c0.6-0.7,1.2-1.5,2.2-0.9c0.5,1.6,0.7,3.1-0.6,4.4c1.8,1.3,2.1,3.7,4,5c-0.9,0.6-1.7,0.3-2.1,1c0.1,0.4-0.2,1,0.3,1.3
		c0.7,0.2,0.7-1.1,2-0.2c-1.8,0.9,0,2.7-0.9,3.6c0.6,2,1.2,4,3.7,4.1c-0.5,0.6-0.7,1-1,1.3c0.7,0.3,1.3,0.5,2.1,0.8
		c-1.2,1.3-3,2.4-1.7,4.6c0.4-0.3,0.7-0.6,1-0.8c1.9,0.6,1.2,2.6,2,3.9c0.5-0.4,0.8-0.7,1.3-1.1c1.8,2.1,2.1,5.1,4.9,6.9
		c-1.9,1.4-1.5,3.2-1.6,4.4c-0.9,1.6-2.2,1.5-3,2.3c1.7,1.5,3.5,2.8,6,2.4c0,0.7,0.3,1,1,1c-0.1,0.5,0.1,0.8,0.6,0.9
		c0.1,0,0.3-0.2,0.3-0.3c-0.1-0.5-0.4-0.7-0.9-0.6c0-0.7-0.3-1-1-1c-0.2-1.2-1.4-1.6-2.2-3c0.7-0.4,1.5-0.9,2.3-1.4
		c-0.4-0.5-0.7-0.9-1-1.2c1.3-0.4,0.6-1.8,1.3-2.3c0.7,0.1,0.8,1.1,1.6,0.9c-0.1,0.5,0.1,0.8,0.6,0.9c0.1,0,0.3-0.2,0.3-0.3
		c-0.1-0.5-0.4-0.7-0.9-0.6c3.1-2.3,6.8-3.9,8.1-7.9c1.4,0,2.5,0,4,0c-1.6,2.7,1.6,1.3,1.9,3c0.1,0.3-0.5,1.2,0.4,1.9
		c1.1-0.4,0.2-2,1.6-2.3c-1-1.1-2-2.1-3-3.1c0.3-0.4,0.7-0.7,0.7-0.8c0.8-1.6-1.5-2-0.5-3.5c0.4-0.5,1.1-0.1,1.8-0.2
		c-0.1,0.5,0.1,0.8,0.6,0.9c0.1,0,0.3-0.2,0.3-0.3c-0.1-0.5-0.4-0.7-0.9-0.6c-0.1-0.6,0.3-0.9,0.8-1c2.2-0.2,4.2,0.2,5.6,2
		c0.9,1.1,2.4,0.9,3.1,2c1.1-1.9,2,0.9,3.2,0.1c1-0.6,2.1-1,3.5-1.6c-0.9-0.3-1.5-0.5-2.2-0.8c-0.5-0.8,0.4-2-0.8-2.8
		c-0.5,1.5-2.2,0.9-3,2c-1.3-1-1.6-2.4-2.1-3.7c0.3-0.4,0.4-0.6,0.8-1.2c-1.4,0-2.7,0-3.7,0c-1.5-1.6-2-3.1-2.5-4.6
		c1.4-1.1,1.9,0.2,2.9,0.4c0.6-0.8-0.3-2,0.5-2.7c1.3-0.5,2.3,0.1,3.3,0.7c1.3-1,1.7-2.3,2.1-3.5c-0.3-0.3-0.5-0.5-0.8-0.8
		c0.6-0.7,1.3-1.4,2-2.2c-0.7-0.2-1.2-0.4-1.9-0.7c2.3-2.5-0.4-4.3-0.9-6.4c1.4-0.7,0.4-2.1,1.1-3.1c0.7-1,2.1-0.8,2.7-1.8
		c-0.2-1.1,0.4-2.3-0.4-3.3c-0.6-0.2-1.4,0.2-1.5-0.5c0.9-1,1.6-1.9,2-2.4c1.2-0.5,2.1,0.1,2.7-0.7c-0.5-0.5-0.8-1.2-1.6-1.4
		c-0.4,0.1-0.5,0.9-1.1,0.6c-0.7-0.8-0.1-1.8-0.6-2.8c-0.8-1.6-1.6-3.5,0.4-4.9c0,0.9,1,1.1,1.4,1.9c0.6-0.5,1.1-0.9,2.3-1.8
		c-1.8,0-2.8,0-3.7-0.1c0.4-2.5,0.9-4.9,3.7-7.3c-2.1,0.4-3.1,0.2-2.5-1.5c0.6-0.2,1.2-0.4,1.7-0.6c-0.3-0.9-1.7-1.4-0.4-2.8
		c0.8,1.4,2.2,1.9,3.3,2.6c0.4,0.9-0.3,1.8,0.5,2.4c1,0.4,1.5-0.3,2.1-0.9c1.7,0.7,1.3,3.2,3.2,3.8c0.6-0.8,2.1-1.3,0.9-2.8
		c-0.3,0.3-0.7,0.6-1.1,0.9c-0.2-1.4-1.5-2.2-1.5-3.7c0-1.4-1.9-2.5-0.5-4.4c0.7-0.9-1.5-2.3-0.2-3.7c0.8,0.1,1.4,1.4,2.7,0.4
		c-0.6-1.4,0.2-2.6,1.5-3.5c0.7,0.8,1.5,1.1,3.5,1.3c0.8,0.1,0.5-0.3,0.5-0.3c-0.4,0.3-1.5-0.6-1.3,0.4c0.2,0.8,1.1,0.8,0.9-0.1
		c-1.5-1.7,0.3-2.5-0.1-3.7c-0.2-1.8-2.3-1-3-2.6c1.4-0.9,0.5-3,2.2-4c-0.1,0.5,0.1,0.8,0.6,0.9c0.1,0,0.3-0.2,0.3-0.3
		c-0.1-0.5-0.4-0.7-0.9-0.6c0.2-0.9,0.8-1.5,1.5-1.8c0.7,0.1,0.7,1,1.3,0.5c0.7-1.2-0.4-2.6,0.7-3.7c1.1,1.5,1.4,3.3,1.9,5
		c3-1.4,3.1-1.3,4.6,0.5c-1.1,0.7-1,2.2-1.8,3.1c0.3,0.4,0.6,0.8,0.7,0.9c0.5,1.2-0.8,1.4-0.6,2.2c1.1,0.8,2.6-0.3,3.7,0.7
		c0,1.1,0.3,2.3-0.2,3.3c-0.6,0.2-1.2,0.4-1.7,0.6c-0.3,0.9,0.3,1.8-0.4,2.4c-0.6,0.4-1.4,0-1.7,0.7c0,0.6-0.2,1.3,1.8,1.6
		c0.4,0,0.6-1.9,1.8-2c0.6,0.4,0.8,1,1.4,0.8c-0.2,0.8,0.7,1,0.9,1.6c-1.3,0.6-2.6,1.3-3.9,2c1.3,1.2,2.2,2.6,3.9,2.9
		c-0.3,0.8-1.9,1.2-0.4,2.6c0.6-1.3,2.8-0.9,2.9-3.8c0.5,2.6,1.9,3.6,3.1,4.8c0.3,0.3,0.5,0.5,0.8,0.2c-1.2,1.1-1.8,1.6-2.4,2.2
		c0.2,0.8-0.3,1.7,0.3,2.4c0.7,0.2,0.7-1,1.6-0.5c0,0.7,0,1.5,0,2.4c-0.5,0.2-1.1,0.4-1.8,0.6c0.3,0.5,0.6,1,0.9,1.5
		c-0.2,2.2-2.1,3.4-3,5.2c-1.3-0.1-0.9,1.1-1.2,1.7c-0.4,0.7-1.7-0.3-1.6,1c0.6,0.2,1.2,0.4,1.7,0.6c0.1,0.9,0.1,1.7,0.2,2.6
		c1.5-1.4,3.3,1,4.6-0.8c0.2,0.7,0.4,1.3,0.6,1.8c1.2-0.6,1.6-2.2,3.2-1.9c1.2,1.3,0.1,2.5-0.3,3.7c0.3,0.3,0.5,0.5,0.7,0.7
		c0,0.6-1.3,0.6-0.6,1.4c0.6,0.3,1.4,0,1.7,0.8c-1.1,0.5-1.5,2.1-3.9,2c-0.8-0.1-0.5,0.3-0.5,0.3c0.4-0.3,1.5,0.6,1.3-0.4
		c-0.2-0.8-1.1-0.8-0.9,0.1c0.8,1.3,2.6,1.6,1.8,3c-0.2,0.7-1.5-0.2-1.8,1.2c1.4-0.2,2.3,0.4,2.8,1.7c-0.2,0.2-0.5,0.5-0.7,0.7
		c0.9,0.7,0.5,2.1,1.5,2.6c0.8,0.2,1.7-0.3,2.5,0.6c-0.3,1.4-1.5,2.7-1.1,4.4c-0.5-0.1-0.8,0.1-0.9,0.6c0,0.1,0.2,0.3,0.3,0.3
		c0.5-0.1,0.7-0.4,0.6-0.9c0.6-0.1,1.5,0.4,1.8-0.4c0.8-2.4,2.7-2.6,4.6-2.6c0.8,0.6,0.7,1.4,0.5,1.9c-0.3,0.9,1.3,1,0.4,2.5
		c-0.2,0.1-0.8,0.6-1.5,1c0.6,0.6,1.2,1,1.2,1.4c-0.2,1.2-1.4,1.5-1,2.8c3,0.7,0.8,4.3,2.7,5.8c-0.9,2.3-2.9,3.9-3.6,6.3
		c0.6,0.6,1.3,1.1,0.4,2.2c-2.1-0.3-3.4,1-4.5,2.7c0.5,0.5,0.9,0.9,1.4,1.4c2.5,0.2,4.7-2.3,7.4-0.6c0.4,0.4,0.7,0.7,1.1,1.1
		c-0.7,0.7-1.3,1.4-2,2.1c0,1.3,0,2.6,0,3.8c-1.1,1.3-1.1,3.3-3,3.6c0.1-0.5-0.1-0.8-0.6-0.9c-0.1,0-0.3,0.2-0.3,0.3
		c0.1,0.5,0.4,0.7,0.9,0.6c0.2,1-0.2,1.9-0.9,2.6c2.6,2.7,3.4,7.1,7.7,8.2c0.2-0.6,0.4-1.2,0.6-1.6c0.9-0.3,1.8,0.3,2.8-0.1
		c1.2-1.4,2.4-2.7,3.4-3.9c1-0.3,1.9,0.2,2.5-0.7c-0.1-0.5,0.2-1-0.3-1.3c-0.7-0.4-0.6,1.1-2.2,0c-0.5-0.3-0.7-1.7-1.3-2.9
		c0.6-0.6,1.2-1.2,2-1.9c0-1.3,0-2.8,0-3.7c1.3-1.6,1.6,0.5,2.6,0.2c1.5-1.3,2.1-2.6,0.4-4.1c1.6-1.4-1.5-3,0.3-4.5
		c0.5-0.3,1.2,0.1,1.6-0.7c-0.2-0.2-0.5-0.5-1-1c1-1,2.1-2.1,2.8-2.8c0.6-1.7-0.5-2.5-0.6-3.4c0.9-0.7,2.1,0.3,2.8-0.8
		c0.2-1.6-1.5-1.9-1.9-3.2c2.4-0.1,2.7-2.4,3.7-3.7c-0.5-1.1-1.1-2.2-1.7-3.5c2.4,0.2,2-2.6,4.2-2.3c-1.1-0.9-1.7-1.5-1-2.6
		c1,0,2.1,0,3.4,0c0.4,0.2,0.3,0.7,0.3,1.2c0,0.6,1.2,0.6,0.6,1.6c0,0.2-1,0.3-0.2,0.9c0.6,0.2,1.3-0.1,1.5,0.5
		c0.6,1.5-1.6,1.9-0.7,3.4c0.1,0.8,1.7-0.5,1.6,0.9c0.3,0.4,0.7,0.7,1,1.1c-1,0.2-2,0.4-3.1,0.7c1.4,0.9,2.6,0,3.3,1
		c-0.6,0.9-2,1.3-2,2.6c0.4,1.6,1.8,1.7,2.9,2.3c-2.1,2.8,0.5,4.8,0.9,7.4c-0.5,0.5-1.5,1.1-0.3,2.2c0.3-0.3,0.7-0.6,1.1-1
		c0.5,1.1,1.1,2.2,1.6,3.2c-1.1,1.1-1.6,2.2-0.8,3.6c0.5,0.3,1.3,0,1.7,0.7c0,1.8,0,3.6,0,5.5c-0.5-0.1-0.8,0.1-0.9,0.6
		c0,0.1,0.2,0.3,0.3,0.3c0.5-0.1,0.7-0.4,0.6-0.9c0.7,0,1.3,0,2,0c-0.1,1,0.1,1.9,1,2.5c-0.3,0.5-1.1,0.7-0.9,1.9
		c0.5,0.6,1.9,1.5,1.8,2.2c-0.1,1.8,1.9,0.9,2,1.9c-0.6,0.9-2,1.3-1.9,2.6c0.2,0.6,0.4,0.9,1,0.8c-0.6,1.1,0.9,1.8,0.6,2.9
		c-0.2,0.7,0.7,2.6,0.9,3.1c0.4,1,1.9,0.7,2.2,1.2c-0.1,1-1.1,1-0.4,1.7c0.5,0.3,1.3-0.1,1.6,0.7c-0.6,0.6-1.2,1.2-1.8,1.8
		c-0.1,1.2-0.5,2.5,0.6,4c0.6-0.9,1.2-1.7,1.9-2.8c0.5,1.8,0.5,3.1,0.3,3.7c-0.8,1.7-2.2,1.5-3,2.5c1.4,0.9,2.6,0,3.8-0.4
		c0.9,1.4-1.3,1.8-0.8,3.2c0.3,0.3,0.6,0.7,0.9,1c-0.3,0.3-0.6,0.7-0.9,1c0.8,0.8,1.6,1.7,2.5,2.5c0.7,0,1.3,0,2.4,0
		c-0.8,2.5,1.8,1.8,2.7,2.9c1-1.1,2.5-1.3,3.6-1.9c1.4,0.6,1.7,1.9,2.2,3c0.8-0.2,1.7,0.3,2.4-0.3c0.3-0.5,0-1.3,0.5-1.6
		c1.4-0.7,1.6,1.2,2.7,0.9c0.9,0,1.1-1.3,2.1-1c1.2,0.2,1.3,1.8,2.5,1.8c0.4-0.3,0.6-0.9,1-0.8c1.5,0.2,1.9,1.6,2.9,2
		c1.1,0.2,2.3-0.5,3.3,0.4c0.3,1.5,0.7,2.7,1.8,2.7c1.5-1,2.5-1.8,3.4-2.4c0-1-0.1-1.7-0.1-2.3c-0.7-0.3-1.3-0.5-1.9-0.7
		c0-0.5,0.1-0.9,0.1-1.4c0.9-0.4,0.9,0.8,2.1,0.6c1.2-1.1,3.3-1,5-1.9c0.8-0.4,0.6,1.3,1.5,0.7c0.6-0.9-0.3-2.1,1.1-3
		c0-0.1,1,0.7,0.9-0.5c-1.8-0.8-3.4-0.1-4.9,0.8c-1-0.6-1.9-1.1-2.9-1.6c0.3-0.3,0.6-0.7,1.6-1.9c-0.9-0.3-1.9-0.6-3.2-1.1
		c1.3-0.5,1.9-0.7,2.6-0.9c-0.5-1.4,1.3-2.1,1-3.6c-0.2-1,1-2.1,1.7-1.9c2.2,0.5,2.6-1.9,4.2-2.1c-0.1,0.5,0.1,0.8,0.6,0.9
		c0.1,0,0.3-0.2,0.3-0.3c-0.1-0.5-0.4-0.7-0.9-0.6c-1-1.4-2.8-2.2-3-4.2c1.7-2.3,3-5,5.5-6.8c0.7-0.1,1.4-0.1,2.1-0.2
		c0.5-0.8,0.4-1.4-0.1-1.9c-0.4,0.3-0.7,0.6-1.1,0.9c-0.2-1.6-1.5-2.4-2.9-3.9c1-1,2.1-1.9,3.1-2.9c-0.1-0.1-0.3-0.3-1-1
		c2.4,0.5,0.3-2,1.9-2.1c0.2,0.2,0.5,0.5,1,1c0.5-0.6,1-1.2,1.3-1.5c0.5-1.4-1.2-1.7-1-2.6c0.2-1,1.4-1.3,1-2.4
		c0.4-0.6-1.3-0.4-0.7-1.3c0.5-0.4,1.4,0,1.7-0.7c0.6-1.1-0.5-1.4-1.1-2.6c1-0.8,2.2-1.7,3-2.4c0.5-1.5-0.5-2.3-0.7-3.2
		c0.9-0.7,2.1,0.3,2.8-0.8c0.6-1.2-1.3-1.5-0.9-3.1c1.1-0.9,2.1-2.3,2.6-4.1c-1-0.6-0.6-2.2-2.6-3.2c2.9,0.2,3.6-1.5,4.9-2.6
		c-0.8-0.8-1.5-1.3-0.6-2.5c1,0.4,2.3-0.6,3.5,0.5c-0.2,1,0.5,1.5,1,2.1c-0.6,0.7-1.7,1.3-0.6,2.4c0.8-0.2,1.2-1.9,2.4-0.6
		c-0.8,1.4-1.7,2.8,0.1,4.1c-0.6,0.7-1.3,1.4-1.9,2c0.6,1.4,2.3-0.4,2.8,1.1c-0.6,0.6-1.2,1.2-1.8,1.8c0.3,0.3,0.7,0.6,0.9,1
		c0.2,0.4,0.2,0.9,0.2,1.2c0.9,0.7,2.1-0.2,2.8,0.8c-0.4,0.9-1.7,0.1-2.1,1.6c1.8,0.9,0.4,3.2,1.4,4.5c1.3,1.6-1.7,3.2,0.4,4.4
		c0.9-0.2-0.2-1.7,1.1-1.8c1.2,0.8,1.3,2.4,2.2,3.4c-0.3,0.9-1.3,0-1.7,1c0,0.6,0,1.4,0,2.3c0.5,0.1,1,0.2,1.9,0.4
		c-0.7,1.6,0.9,2.7,1.1,4c-0.3,0.8-1.2,0.9-1.1,1.8c-0.5-0.1-0.8,0.1-0.9,0.6c0,0.1,0.2,0.3,0.3,0.3c0.5-0.1,0.7-0.4,0.6-0.9
		c0.9,0.1,2-0.3,3,0.5c-0.2,1.4,0.4,3-0.9,4.2c1.2,0.5,1,1.7,1.4,2.5c0.6,1.2,2.6,0.1,2.5,1.9c0.1,1.6-1.8,0.4-2,1.6
		c0,0.4-0.1,0.9,0.4,1.2c0.6,0.1,0.6-1.2,1.4-0.7c0.9,1.2-0.9,2.2-0.5,2.4c1.8,0.7-1.4,1.9,0.4,2.6c1,0.4-0.3,1.9,0.7,2.6
		c0.8,0.1,1.6,0.2,2.8,0.3c-1.1,1.3,0.5,1.6,0.5,2c-0.8,2.1-1.6,3.8-1.5,5.6c0.4,0.3,0.8,0.6,1.2,0.9c0.3-1,0.6-1.9,0.9-2.9
		c0.2,0.1,0.3,0.3,0.5,0.4c0,1.6,0,3.1,0,4.5c-1,0.6-2.1-0.4-2.7,0.8c1,0.5,2,0.9,2.9,1.4c0.4,0.7,0.7,1.3,1.3,2.4
		c-2.3,0.3-0.6,2.4-1.7,3.5c-1.4-0.1-2,0.8-2.6,1.8c-0.2,0.4,0,0.9,0.5,1.2c0.3-0.3,0.7-0.6,1-1c0.9,0.3,0,1.7,1.1,1.9
		c0.9-0.3-0.2-1.7,1.1-1.8c0.8,1.8,0.2,3.3-0.6,4.9c-3.8-0.5-7-3.2-11.4-2.8c1.5,1.1,1.2,3.1,3.2,3.1c0.3,1.5,0.2,3.3,2.4,3.8
		c1.3-2.2,5.5,0.5,5.9-4c1.8,1.6,3.6,1.1,5.1-0.1c1.9,0.5,1.3,2.7,3.3,3.3c0.5-1.2,1.5-1.4,2.6-1.2c-0.1,0.5,0.1,0.8,0.6,0.9
		c0.1,0,0.3-0.2,0.3-0.3c-0.1-0.5-0.4-0.7-0.9-0.6c-1.1-1.3-2.7-2.2-3-4.2c1.8-2.6,3.4-5.7,7.4-6.2c-1.9-1.2-2.5-2.8-3.2-4.4
		c0.9-0.9,1.9-1.8,2.8-2.7c-0.3-0.4-0.6-0.7-1-1.1c0.5-0.5,1-1,1.4-1.4c0.3,0.3,0.7,0.6,1.3,1.2c-0.2-1.9,1.6-0.7,2.1-1.7
		c-0.9-1.1-1.2-2.8-2.7-3.1c1.6-3.4,1.7-7.4,4.7-10.1c-0.4-0.5-0.7-0.7-1.1-1.3c0.8-0.5,1.6-1,2.4-1.6c-1-0.8-1.5-1.3-1-2.3
		c0.6-0.2,1.2-0.4,1.8-0.7c-0.3-1.7,0.7-3.6-1.2-5.3c1.1-1,2.3-1.9,3.1-2.6c0.2-1.3-0.3-2.2,0.6-2.8c0.7,0,1.3,0,2,0
		c0.7,1.3,1.3,2.7,2,4c0.6,0,1.1-0.1,1.4,0.4c-0.3,0.5-0.7,1-0.8,1.1c-0.4,1.4,1.2,1.5,0.8,2.6c0.7,0.8-1.6,0.8-0.6,1.7
		c0.5,0.2,1.4-0.2,1.5,0.7c-0.5,0.7-1.5,1.1-1.7,2c0.9,1.5,3.1,1.3,3.7,3c-0.6,0.2-1.1,0.4-1.8,0.6c0.2,0.5,0.5,0.9,0.7,1.4
		c-0.2,0.2-0.5,0.5-0.7,0.7c0.6,1.6,2,2.8,1.8,4.7c-0.5-0.1-0.8,0.1-0.9,0.6c0,0.1,0.2,0.3,0.3,0.3c0.5-0.1,0.7-0.4,0.6-0.9
		c1.5,0.6,1.4,2.2,2.1,3.2c-0.4,0.8-1.4,1.2-0.8,2.9c0.1,0.2,1.3-0.6,1.7,0.4c0,1.8,0,3.6,0,5.4c-0.5-0.1-0.8,0.1-0.9,0.6
		c0,0.1,0.2,0.3,0.3,0.3c0.5-0.1,0.7-0.4,0.6-0.9c0.5,0,1,0,1.5,0c0.4,0.9,0.9,1.8,1.3,2.7c-0.6,0.5-1,1-0.8,1.9
		c1.5,0.8,1.8,2.7,3.4,4.6c-0.8,0.4-1.7,0.8-2.6,1.1c0.8,1,1.5,0.5,2.1,0.7c-0.2,1,0.2,1.9,0.9,2.5c-3.5,4,2.5,4,2.6,6
		c2.6-1.4,5.8,0.4,8.4-1c2.7-1.4,5.9,0.7,8.2-1.6c2.1,1.8,4.9,1.9,6.4,4.2c3.3-0.5,6.7-0.2,9.4,1.5c1.9,1.3,3.9,2,6,2.4
		c0.8,0.1,1.1,0.7,1.6,1c3.1-1.9,3.1-1.9,10.1-2.1c0.5-0.3,0.4-0.9,0.4-1.3c1.5-1.5,3.9-1.1,5.5-2.4c2.2,2.3,5.8-0.6,8.1,1.9
		c2.8,0,5.7,0,8.5,0c-0.1,0.5,0.1,0.8,0.6,0.9c0.1,0,0.3-0.2,0.3-0.3c-0.1-0.5-0.4-0.7-0.9-0.6c3.3-2.5,3.2-2.8,3.7-6
		c0.2-1.1-1.6-1.7-0.3-2.8c0.4,0.2,0.9,0.4,1.3,0.6c0.6-0.4,0.3-0.9,0.3-1.3c-0.3-0.9-1.7,0.1-1.9-1.6c2.8,1.8,1.1-2.2,3-1.9
		c-0.1,0.5,0.1,0.8,0.6,0.9c0.1,0,0.3-0.2,0.3-0.3c-0.1-0.5-0.4-0.7-0.9-0.6c-0.2-0.8,0.8-1,0.9-1.6c-1.5-1.3-0.9-2.9-0.7-4.3
		c1.1-0.3,1.9,0.2,2.7-0.5c-0.3-0.5-0.6-1-1-1.8c1.9-1.2,0.6-3.8,2.4-5.1c-0.5-0.6-0.9-0.9-1.3-1.5c2.2-0.3,0.4-2.4,1.6-3.2
		c0.4,0.3,0.7,0.6,1,0.9c0.7-0.5,0.6-1.2,0.4-1.8c-0.2-0.9,1.2-1.1,0.8-1.9c-0.3-0.3-0.5-0.5-0.8-0.7c0.4-0.5,1.2-0.8,1-1.6
		c-0.2-0.8,1.5-0.9,0.6-1.9c-0.5-0.1-1.1,0.2-1.4-0.4c0.1-1.8,2.5-1.1,3-3c-0.3-0.6-1.6-1.1-1.1-2.2c0.3-0.9,1.6,0,1.9-1.1
		c-1.6-1-0.8-2-0.1-3c-0.7-0.6-1.3-1.2-0.6-2.1c0.6-0.2,1.2-0.4,1.8-0.6c-0.4-0.4-0.7-0.8-1-1.1c1.1-0.4,0.7-1.7,1.3-2.3
		c0.9,0,1.7,0,2.5,0c0.1,0.9,0.2,1.7,0.3,2.5c1,1,1.9,1.9,2.9,2.9c-1.4,2.8-1.1,4,2,6.2c0.3,1.2-1.7,1.7-0.8,3
		c0.6,0.2,1.2,0.4,1.7,0.6c-0.3,0.8-1.3,1.1-0.6,3.1c0.3,0.3,1.4,1.2,2.5,2.2c-0.6,0.6-1.3,1.1-0.7,2.1c0.6,0.2,1.2,0.4,1.8,0.7
		c-1.3,1.1-1.4,2.2-0.1,3.2c-1.2,1-1.4,2.1-0.5,3.4c1.4-0.1,2.6,0.1,3.4,1.4c-1.6,2,1,3.1,1.1,4.7c-0.5,0.9-1,1.9-1.5,2.9
		c-0.4-0.3-0.7-0.6-1.1-0.9c-0.6,0.5-0.6,1.1-0.2,1.9c0.7,0.1,1.5,0.1,2,0.2c2.3,1.4,3.3,4,5.5,5.5c-1.3,1.2-2.2,2.8-2.6,4.4
		c-0.9,0.3-1.8-0.4-2.2,0.7c0.7,0.7,1.3,0.6,2.2-0.7c0.7-0.1,0.8,1.4,2.4,0.9c0.7-0.7,1.9-1.9,2.7-2.7c1.6-0.5,1.8,1.4,3.1,0.8
		c0.3-0.3,0.7-0.6,1.4-1.3c1,1,1.9,2,2.9,3.1c0.1-0.1,0.4-0.4,0.6-0.6c1.4,0.7,2.7,1.4,4.5,2.3c-0.2-2.7,0.6-4.4,3.1-4.9
		c-0.1-0.8,0.3-1.6-0.4-2.6c-1.7,0.6-3.5,1.2-5.3,1.8c-0.3-0.3-0.5-0.5-0.7-0.7c-1,0.6-1.3,1.9-3,2c0-1.6-1.8-0.5-2.5-1.6
		c1.7-0.6,0.5-2.5,1.4-3.4c0.4,0.3,0.7,0.6,1.1,1c0.4-0.5,0.8-1,1.3-1.5c-0.2-1.6-2.5-1-2.9-2.5c-0.1-0.8,0.8-1,0.9-1.5
		c-0.2-1-1.6,0-1.8-1.1c0.3-0.4,0.6-0.8,0.8-1c0.4-1.3-1.8-1.8-0.7-3.2c1.2,0.4,2.4,1.6,3.7,0.3c-2-0.1-1.9-2.1-2.9-3.1
		c1.2-0.4,0.5-1.9,1.4-2.4c0.4,0.3,0.7,0.6,1.2,1.1c0.6-1.6,0.2-2.9-0.4-3.7c-0.3-3,2.5-3.3,3.6-4.9c-0.3-0.6-0.9-0.6-0.6-1.7
		c0,0,0.8,0,0.3-0.8c0.2-0.3-1.1-0.2-0.3-0.9c0.5-0.3,1.3,0,1.8-1.1c-0.7-0.4-1.4-0.9-2.2-1.4c0.7-0.9,1.5-0.5,2.1-0.6
		c-0.1,0.5,0.1,0.8,0.6,0.9c0.1,0,0.3-0.2,0.3-0.3c-0.1-0.5-0.4-0.7-0.9-0.6c0.1-1-1.7-1.3-0.9-2.6c1.3-1.3,2.6-2.6,3.9-3.9
		c-1.3-1.3-1.1-2.8-0.7-4.4c0.9-0.6,2,0.3,2.7-0.7c-0.3-0.4-0.7-0.7-1-1c-0.4-1,0.7-1.4,0.8-2.1c-0.3-0.4-0.5-0.7-1.2-1.5
		c0.9-0.5,1.8-1,2.2-1.2c0.1-1.7,0.1-2.6-0.9-3.2c1.8-0.4,0.3-2.6,1.5-3.5c0.5,0.5,0.7,0.7,1.2,1.2c0.8-3,0.6-6.1,2.4-8.3
		c-0.4-1.3-1.7-0.5-2-1.5c1-0.7,2.4-0.8,2.9-2.2c0.3-1.2-1.7-1.7-0.8-3c0.6-0.2,1.1-0.4,1.7-0.6c-0.4-0.6-0.7-1-1.1-1.6
		c1.1-1.2,1.3-2.6,1.1-4.1c1.8-1.2,0.9-3.8,2.6-5c0.7,0,1.4,0,2,0c0.8,0.7,0.3,1.6,0.6,3.1c0.6,0.5,1.8,1.4,2.8,2.3
		c-2.3,2.6-0.4,4.6,0.5,6.6c0.7,0,1.4-0.1,1.5,0.9c0.3,1.1-1.6,1.4-0.9,2.9c0.2,0.7,1.5-0.1,1.8,0.8c-1.2,0.8-1.1,1.9-1,2.7
		c4.7,3.4,4.7,7.6,2.8,12.6c2.6-0.9,0,2.1,2.7,2.1c0.1-0.2,0.6-1,1.4-2.5c0,2.4,0,3.9,0,6.4c0.3,0.1,1.2,0.4,2.5,0.7
		c-2.1,1-1,2.5-1.7,3.4c-0.6,0.2-1.2,0.4-1.8,0.6c1.4,1.2,3.4,1.2,4.6,2.6c0.6,1.3,1.3,2.6,2,4c0.6,0,1.1-0.1,1.5,0.6
		c-2.4,0.9-1.7,4.7-5.2,5.2c2.8-0.6,4.7,1.2,7,1.6c0.3,2.8,1,5.2,4.1,6.1c-0.4,0.9-1.7,0.1-2,1.3c0,0.5,0,1.1,0,1.7
		c-1,0.5-2,1-3.3,1.6c-0.8-1.4-2.1-1.7-3.6-0.8c0.5,1,1.8,1.4,2,2.6c-0.5-0.1-0.8,0.1-0.9,0.6c0,0.1,0.2,0.3,0.3,0.3
		c0.5-0.1,0.7-0.4,0.6-0.9c2.2,0.1,4.1,1.4,6.2,2c1-0.2,1.6-2,2.8-0.5c0,0.3,0,0.7,0,1c-0.4,0.9-1.7,0.1-2,1.1
		c-0.3,1.7,0.9,2.9,1.5,4.4c0.8-0.1,1.6,0.3,2.4-0.3c0.1-1.4,0.2-2.9,1.7-3.6c0.5,0.4,0.8,1.1,2.1,0.8c0.8-0.2,1-2.1,2.7-1.9
		c0.3,0.3,0.7,0.6,1,0.9c1-0.6,2.1-1.2,3.1-1.8c0.5,0.4,0.8,1.1,0.5,1.1c1.9-0.3,2.2-1.5,3.5-1.1c1.1,0.8,2,2.8,4.2,1.6
		c0.1-1.2,0.8-2,1.9-2.7c0.6,1.3,2.1,1.1,3,1.8c2.6-1.3,4.7-3.6,7.3-4.2c0.2-1.2-0.5-1.6-0.9-2.1c1.4-0.9,0.9-2.3,1-3.5
		c0.8-0.1,1,0.7,0.8,0.6c0.9-0.4,1.6-0.7,2.7-1.1c-1.3-0.4-1.8-0.6-2.5-0.8c0-1.6-0.3-3.2,0.3-4.7c0.7,0.4,0.9,1.2,1.7,1.1
		c-0.1,0.5,0.1,0.8,0.6,0.9c0.1,0,0.3-0.2,0.3-0.3c-0.1-0.5-0.4-0.7-0.9-0.6c0.6-2-0.6-3.3-2.1-4.5c1-0.6,1.9-0.8,2.4-2.1
		c0.3-0.8,2.3-0.8,2.7-2.3c0.4-1.1-0.8-1.9-0.8-2.8c0.7-0.4,1.5,0,1.9-1.3c-0.6-0.4-1.4-0.8-2-1.2c1.2-2.8,1.8,1,2.8-0.2
		c0-0.5,0.2-1-0.2-1.4c-0.5-0.5-1.8,0.1-1.7-1.7c1.1-1.1,2.6-2.6,4-4c-0.8-0.8-1.4-1.4-2.3-2.3c2,0.2,0.8-1.6,1.7-2.1
		c0.8-0.1,1.6-0.1,2.6-0.2c-0.4-0.7-0.7-1.1-1.1-1.7c1.2-1.8,0.7-4.5,3.5-5.8c-1-0.7-1.8-1.3-2.7-1.9c1.9-0.8,0.6-2.6,1.7-3.5
		c0.4,0.3,0.7,0.6,1.1,1c0.8-2.9,1.6-5.7,2.3-8.5c-0.3-1-1.7,0.1-1.8-1.1c1.8-0.3,2.7-1.8,4.1-3c-1-0.8-1.6-1.3-2.2-1.7
		c0.4-1,1.8-0.2,2-1.2c0.4-1-0.8-1.3-0.8-2.1c0.6-0.6,1.2-1.2,1.8-1.8c-0.7-0.7-1.3-1.5-2.1-2.3c1-0.2,1.5-0.3,1.8-0.4
		c0.6-1.4,1.2-2.6,1.8-3.9c0.9,0.2,1.8-0.4,2.5,0.5c0,0.6,0,1.3,0,2.3c0.9,0.7,2.1,1.6,3.1,2.4c-1.4,3-1.4,3,0.5,6.8
		c0.7,0,1.4-0.1,1.5,0.9c0.1,1-1.5,1.4-1,2.6c0.3,1,1.6,0.2,2,1.2c-1.4,0.6-1,1.8-1,2.9c4.7,1.3,2.8,6.2,4.8,8.9
		c-0.4,1-1.8,1.3-1.9,3c1.5,0.1,0.5,1.8,1.6,2.5c0.3-0.7,0.6-1.4,0.9-2c0.5,0,1.1-0.1,1.6,0.7c0,1.1,0,2.6,0,3.9
		c0.8,0.7,1.3,1.3,2,1.9c-1.8,0.6-0.5,2.5-1.5,3.5c-0.4-0.3-0.7-0.6-1.1-0.9c-0.6,0.4-0.6,1-0.3,1.7c0.7,0.7,1.6,0.1,2.4,0.3
		c1.3,1.3,2.6,2.6,3.9,3.9c1.9-0.6,3.1,1.8,5.1,1.1c1.8-1.6,2.4-4.2,4.3-5.3c0-1.8,0-3.2,0-4.6c-0.7-0.1-1.1-0.2-1.6-0.3
		c-0.6-0.9,0.3-2.1-0.6-2.7c-0.6-0.1-1-0.2-1.3-0.3c-0.9-1.2,0.6-1.7,0.3-2.5c-0.5-1.7-2.4-3-1.3-5.3c1.3,0,3.1-0.5,3.8,0.1
		c2.4,2,3.9,0.2,5.7-0.6c-1.5-2.2-3.9-2.1-5.9-3c-0.7-1.3,1.2-1.5,0.9-3.1c-1.3-1.1-2.4-2.8-2.9-4.8c-0.3-1.4,1.5-2.1,1-3.6
		c-0.5-1.5,1.7-2.6,0.9-4c-0.6-1.2-0.7-2.1,0.1-3.2c-1.3-0.8,0.3-2.5-1.1-3.4c0.5-0.4,1-0.8,1.9-1.5c0.2-0.1,0.2,1.2,0.9,0.8
		c0.3-0.3,0.5-0.5,0.5-0.5c2.3-0.2,2.4,2.5,4.2,2.8c1.9-1.8-1.1-3.3-0.3-4.8c0.9-0.3,0.9,1,1.7,0.5c1.1-1.8,1.2-3.8,1.4-5.4
		c1.1-0.6,2,0,2.7-0.7c0.5-0.4-0.4-1-0.2-0.5c-0.4,0-0.9-0.1-1.3-0.1c-0.5,0-1,0.1-1.2-0.3c-1.1-2.3,2.3-1,1.8-2.7
		c0.5,0.1,0.8-0.1,0.9-0.6c0-0.1-0.2-0.3-0.3-0.3c-0.5,0.1-0.7,0.4-0.6,0.9c-1.6-0.4-2-2.5-4.8-2.4c1.6-0.6,2.2-0.8,2.6-0.9
		c1-1.9-1.2-3-0.8-4.6c0.1-0.5,0.2-0.9,0.7-1.1c1.7-0.3,1.9,2.2,3.6,2c0.5-0.3,0.9-0.6,1.4-0.9c0.3,0.3,0.6,0.6,0.8,0.8
		c1-0.5,1.3-1.8,2.6-1.9c0,0.7,0.3,1,1,1c-0.1,0.5,0.1,0.8,0.6,0.9c0.1,0,0.3-0.2,0.3-0.3c-0.1-0.5-0.4-0.7-0.9-0.6c0-0.7-0.3-1-1-1
		c0.3-1.6,1.8-1.8,3-2.6c-1.3-0.6-2.6-1.2-4.1-1.9c1.2-1.1-0.9-1.3-0.6-2.3c0.3-0.3,0.5-0.5,0.7-0.7c-0.5-1-1.8-1.4-2-2.8
		c0.3-0.4,0.6-0.9,0.9-1.4c-0.9-0.7-2.5-0.5-2.7-2.1c0.4-0.4,0.9-0.8,1.3-1.2c0.6,0.2,0.8,1.3,1.6,0.3c-0.2-1.8-2.4-2.4-3-4
		c1-0.9,2-1.9,2.2-3.4c0.5,0.4,0.9,0.7,1.2,1c0.3-0.7,0.5-1.3,1.1-2.8c0.1,2.1,0.7,3.1,1.8,3.7c0.3,0.2,1,0.3,1.3-0.3
		c0-0.8-1.2-1-0.7-2.1c0.3-1.4,2.3-1.1,3-2.2c-0.3-2-2-2.1-3.1-2.9c0.3-0.7-0.3-1.6,0.5-2.3c0.3,0.3,0.7,0.6,1,0.9
		c0.6-0.2,0.7-1.1,1.5-0.9c0.7,1.1,1.1,2.4,3,1.7c-0.7-1.3-1.5-2-3-1.7c0.6-2.2-1.4-3.9-0.9-6.1c0.1-0.3,0.3-0.6,0.4-0.8
		c0.8-0.5,2,0.5,2.6-0.7c0.4-1.1-0.7-1.4-0.8-2c0.3-1,1.4,0,1.7-0.8c-0.7-1.3-1.4-2.7-2-3.9c0.9-1.2,1.9-0.7,2.8-0.6
		c0.7,0.5,1.1,1.5,2.1,1.7c0.8-1.4,0-2.4-0.7-3.7c1.7,0.2,0.3-1.8,1.6-2.1c0.5,0,1-0.1,1.3,0.5c-0.5,0.5-1.3,1-0.9,2.1
		c0.6,1,1.8,0,2.6,0.6c0.2,1.3,1.1,1.9,2.2,2.4c-0.3,0.4-0.6,0.7-0.8,1c-0.4,1.3,1.3,1.6,0.8,3c0,1.5-3.3,0.8-2.9,2.9
		c0.9,0.8,1.3-1.2,2,0.1c0.2,0.8-0.3,1.2-0.7,1.7c-0.3,0.5-1.7,0.7-0.6,1.9c1.3-0.7,2.6-1.4,4-2c0.4,0.9,0.8,1.8,1.1,2.6
		c-0.4,0.5-0.9,0.8-0.2,1.3c0.6,0,1.3,0,1.9,0c0.5,0,0.6-1.3,1.5-0.7c0,0.8,0,1.6,0,2.3c-0.7,0.2-1.3,0.5-1.8,0.7
		c0.2,1.1,1.6,0.3,1.9,1.3c-0.3,0.6,0.4,1.5-0.3,2.2c-0.6,0.4-1.4,0-1.7,0.7c0.3,0.3,0.6,0.7,0.9,1c-1,1-2.2,1.9-2.4,3.5
		c-0.4-0.4-0.8-0.7-1.1-1c-0.6,0.6-0.6,1.2-0.1,1.8c1.2,0.1,2.5,0.5,3.6-0.3c0.2-0.9-0.3-1.7,0.4-2.4c1.4-1,2,1.8,3.4,0.6
		c0.2-0.9-1.4-1.4-1.1-1.7c1.2-1.6,2.5-0.4,3.2-1.4c0.3-0.5-0.1-1.3,0.7-1.6c0.5,0.5,0.9,0.9,1.4,1.4c-0.3,0.4-0.6,0.7-1,1.1
		c1.5,1,1.1,2,0.1,3.1c1.6,1.4,1.3,3.7,2.8,4.9c-0.4,0.7-1.1,0.9-0.9,1.5c-0.6,0-1.2,0.1-1.7,0.1c-0.5,0.7-0.5,1.3,0,1.8
		c0.8-0.4,1.5-0.9,1.6-1.9c1,0.2,1.6,1,2.2,2.2c-1.9,1.7-0.8,5.3-4.2,6.6c1.7,0,2.8,1.2,4.6,2.1c-2,1.2-1.6,2.9-1.6,4.9
		c0.9,0.7,2.1,1.6,3.2,2.5c-0.5,0.5-0.7,0.7-1.2,1.2c1.4,0.5,1,1.7,1,2.7c-0.4,1.2-2.2,1.5-2,3.2c0.3,0.3,0.6,0.7,1,1
		c-0.3,0.3-0.6,0.7-1.3,1.4c0.8,0.5,1.6,1,2.4,1.4c-0.6,0.7-0.8,1.1-1.2,1.5c0.6,1.1,1.1,2.1,1.6,3.2c1.4-1.6,2.9-1,4.8-0.6
		c-1.1,0.9-1.9,1.6-1.1,2.4c1.3,0.7,1.7-0.3,2.3-0.7c0.5,0.5,0.9,0.9,1.5,1.5c-1.3,0.8-0.9,2.7-2.6,3.4c-1.1,0.7-2.1-0.4-3.6-0.9
		c0.7,2.5-1.3,3.9-1.1,6.1c-3-1.4-4.4-1.9-4.3-2c-0.9,1.5,0.3,1.8,0.5,2.4c-0.3,0.9-1.3,0.2-1.5,0.5c0.8,1,1.5,1.9,2.3,2.8
		c0.8-0.5,1.2-1.9,2.7-1.8c0.3,0.3,0.7,0.6,1.3,1.1c0.9-1.1,1.8-2.3,2.4-3.1c1.5-0.1,2.3,0.1,3.2-0.7c0.6-0.5,2.2-1.1,2.6,0.7
		c-0.5-0.1-0.8,0.1-0.9,0.6c0,0.1,0.2,0.3,0.3,0.3c0.5-0.1,0.7-0.4,0.6-0.9c0.6,0.1,1.3-0.3,1.8,0.3c0.6,1.3-0.2,2.3-0.7,3.4
		c0.7,0.2,1.2,0.4,2.1,0.7c-1.3,1.1-2.4,2-3.4,2.8c0.2,1.1-0.3,2,0.5,2.7c0.5,0,1.3,0.4,1.4-0.6c-0.3-0.4-0.5-0.7-0.3-0.4
		c1.1-1.6,2.1-2.9,3.1-4.3c1.1,1.3,3.3,0.5,3.6,2.9c0.2,1,1.7,2.1,3.2,2.6c1.1,0.4,2.8,0.8,3.4,2.3c-0.3,0.3-0.6,0.7-0.9,1.1
		c0.7,0.4,1.2,0.6,1.8,0.1c0.4-0.5,0-1.3,0.9-1.8c0.8,2.2,1.6,4.3,2.4,6.4c-0.3,0.7-1.2,0.9-1,1.7c-1.5-0.2-2.4,0.4-3,1.7
		c1.9,0.7,2.4-0.6,3-1.7c0.8,0,1.6,0,2.4,0c0.8-0.8,1.6-1.6,2.5-2.5c-2.6-1.7-2.7-4.7-3.8-7.1c2.9-1.1,2.6-4.3,4.2-6.3
		c2.1,0,2.3-1.8,3.1-3.1c0.5,0,1,0,1.5,0c-0.1,0.5,0.1,0.8,0.6,0.9c0.1,0,0.3-0.2,0.3-0.3c-0.1-0.5-0.4-0.7-0.9-0.6
		c0.5-1.3-0.9-2-1-3.1c0.2-2.5,2.8-2.9,3.7-4.6c0.5-1.8-1.4-3.7,0.3-5.4c0.6-0.1,1.3,0.3,2-0.5c-0.5-1-2.2-1.4-1.9-3.4
		c1.2-1,2.6-2.3,4.5-3.8c-1.1-0.7-1.9-1.2-3.4-2.2c2.5,0.1,1.4-1.7,2.4-2.1c0.5,0,1,0,1.5,0c-0.1,0.5,0.1,0.8,0.6,0.9
		c0.1,0,0.3-0.2,0.3-0.3c-0.1-0.5-0.4-0.7-0.9-0.6c0-1.5,0-3,0-4.4c0.6-1,1.9-1.3,2.1-3.2c0-0.3-1.4-0.5-1.1-1.5
		c0.9-0.7,0.5-2.4,2-2.8c-0.1,0.5,0.1,0.8,0.6,0.9c0.1,0,0.3-0.2,0.3-0.3c-0.1-0.5-0.4-0.7-0.9-0.6c0-0.8,0.1-1.5,0.6-2.2
		c1.3-1.9,1.1-4.1,0.4-6.2c1-1,3.3-0.8,3-3.1c-0.3-0.9-1.7,0-1.9-1.1c0.4-0.8,1.7,0.1,1.9-1.1c0.4-1-0.9-1.2-0.8-2
		c0.6-0.6,1.2-1.2,1.8-1.8c-0.6-0.8-1.5-1.3-1.9-2.2c1.4-1.2,1.8,0.9,2.8,0.3c0.8-1.1-0.8-1.5-0.5-2.7c1.7,0.3-0.1-2,1.8-2
		c0.3,0,1,0,1.5,0.1c0.8,0.8,0.2,1.7,0.7,3.4c0.4,0.4,1.4,1.4,2.4,2.3c-1.9,2.3,0,4.2,1,6.2c0.6-0.1,1.1,0,1.4,0.5
		c-0.6,0.6-1.3,1-0.8,2.3c0.3,0.6,1.6-0.2,1.8,0.9c0.4,1.1-1.3,1.4-1.1,2.2c1.3,1.3,2.3,2.3,3.3,3.3c-0.6,0.6-0.9,1-1.4,1.6
		c0.8,0.6,1.6,1.2,1.9,1.4c0.8,1.5-1.6,2.3,0.2,3.3c-0.9,0.8-1.1,1.9-0.2,2.3c0.2,0.8,0.4,1.6,0.6,2.4c0.6-0.6,0.8-0.8,1.1-1
		c0.5,0.5,1.2,0.8,1.4,1.6c-0.3,0.3-0.5,0.5-0.7,0.7c0.8,1.6,2.3,3,1.9,5.1c-0.6,1.2-1.9,1.4-2.8,1.9c0.5,0.6,0.9,1.1,1.3,1.6
		c0.4-0.4,0.8-0.7,1.1-0.9c2.3,1.9,3.9,4.2,5.3,6.6c-1.4,0.7-0.3,2.2-1,3c-0.6,0.5-1.9-0.1-1.7,1.2c-0.5-0.1-0.8,0.1-0.9,0.6
		c0,0.1,0.2,0.3,0.3,0.3c0.5-0.1,0.7-0.4,0.6-0.9c1.7,0.8,3.3,1.6,5,2.4c-0.6,1.4,1.2,1.7,1.2,3.1c0,1.1,1.7,1.5,2.8,2
		c-0.7,0.6-1.4,1.2-0.6,2.5c1.5-0.3,2.9,0.4,3.9,1.8c0.2,0.3,0.5,0.2,0.7-0.2c1-1.3-2.4-1.9-1.2-2.9c1.3-0.9,1.2,0.7,2.4-0.2
		c1.8-0.2,0.1-2.5,1.8-3.8c-0.1,0.1,0.9,0.8,0.8-0.3c-0.6-0.2-1.2-0.4-1.8-0.6c0.4-0.8,1.4-1.1,0.7-2.7c-0.1-0.3-1.4,0.5-1.9-0.8
		c0.6-0.4,1.4-1,2.2-1.4c-0.7-1-1.7-1.4-1.9-2.4c1.4-1,2.9,2.3,4.2-0.1c1.7,2,3-0.3,4.9-0.5c-1-1.1,1-2.8-1.2-3.6
		c0-1.4-2.1-1.6-2-3.2c0.3-0.5,0.6-1,0.9-1.5c-0.6-1.1-2.2,0.5-2.7-0.9c0.4-0.9,1.9,0.1,1.9-1.2c0.3-1.1-1.5-1.4-0.6-2.2
		c0.8-0.9,1.6-1.8,2.4-2.8c0.9,0.6,1.3,2.4,3,1.4c-0.2-0.5-0.5-0.9-1-1.9c1.8,0.8,2.2-0.6,3.1-1.2c-0.6-1.2-1.9-1.5-2.9-2.2
		c-0.2-0.1-0.2-1,0.4-1.3c0.3,0.3,0.7,0.6,1,0.9c0.6-0.2,0.7-1.1,2.5-0.6c0.8,0.1,0.5-0.3,0.5-0.3c-0.4,0.3-1.5-0.6-1.3,0.4
		c0.2,0.8,1.1,0.8,0.9-0.1c-0.5-1.7-2.2-2.5-2-3.9c0.1-0.5-0.1-1,0.4-1.3c0.8-0.1,1.6-0.2,2.4-0.3c-0.7-1.9,0.4-3.8-0.7-5.9
		c1.2,1.4,2.4,1.1,4,0.8c-0.4-1.4,0.5-2.1,1.7-2.7c0.4,2,2.5,2.4,3.3,3.9c-0.1,1,1.6,1.3,1,2.5c-0.3,1-2.2-0.1-2,1.5
		c-0.5-0.1-0.8,0.1-0.9,0.6c0,0.1,0.2,0.3,0.3,0.3c0.5-0.1,0.7-0.4,0.6-0.9c1.5,0.1,0.9,1.2,1.3,1.9c-0.9,0.3-1.8-0.4-2.2,0.7
		c0.7,0.7,1.3,0.6,2.2-0.7c0.7,0.2,1.7-0.2,2.6,0.4c0.3,0.6,0,1.3,0.7,1.6c1.1,1,1.3-1.6,2.4-0.5c-0.1,2.2,0.6,4.5-1,6.5
		c-1.5,0.1-0.8,1.2-1,2.2c-0.6-0.2-0.9-1-1.8-1c-0.4,0.7-0.4,1.2,0.2,1.7c0.6,0.2,1.2,0.2,1.6-0.7c1.5-0.3,0.8-1.5,1-2.2
		c1-0.2,1.9,0.1,2.9,1.5c-0.5-3.5,2.4-2.4,3.4-3.7c0.7,0.7,1.2,1.2,1.7,1.7c-0.3,0.3-0.6,0.7-1.2,1.3c1.6,1.4,1.2,3.4,1.2,5.3
		c-0.6,0.2-1.5-0.5-1.9,0.5c0.7,0.7,1.3,0.6,1.9-0.5c0.6,0,1.3-0.4,2.1,0.5c-0.7,2-1.3,4.3-4.2,4.9c1.3,1,3.5-0.1,4,2.2
		c-1.2,0.8-1,1.9-0.7,3c0.6,1.1,1.9,1.2,2.8,1.8c-2.4,4.9-2.3,6.9,0.6,10.5c0.5-0.4,0.8-1.1,1.6-1c1.4,0.2,1.6,2.2,3.2,2
		c1.8,0.1,2.6-0.8,2.7-2.1c-0.4-1.4-1.4-0.5-1.8-1.3c0.2-0.4,0.4-0.9,0.6-1.3c-0.1-0.5-1-0.5-0.5-1.2c0.4-0.4,0.9-0.8,1.3-1.2
		c2.2,0.9,4.5,1.5,6.4,3.1c-0.1,0.5,0.1,0.8,0.6,0.9c0.1,0,0.3-0.2,0.3-0.3c-0.1-0.5-0.4-0.7-0.9-0.6c-0.2-0.8,0.7-1,0.8-1.3
		c-0.3-1.4-2.3-1.6-1.7-3.4c0.7-1,1.9,0.1,2.5-0.5c0.5-1,0.9-1.8,1.2-2.6c-0.3-0.3-0.5-0.7-0.7-0.9c0.7-1.2,2-1.3,3.1-2.1
		c-1.1-0.4-1.9-1.2-2.2-1.8c0.3-1,2.2,0.1,2-1.6c0.5,0.1,0.8-0.1,0.9-0.6c0-0.1-0.2-0.3-0.3-0.3c-0.5,0.1-0.7,0.4-0.6,0.9
		c-1.4-0.8-2.9-1.1-3.9-2.4c0.6-1.1,1.2-2.1,1.8-3.2c-1.4-0.8-1.3-2-0.6-3.3c2.3-0.3,2.2,1.8,3.2,3c0.3-0.7,0.6-1.4,0.9-2
		c0.4,0.4,0.7,0.7,1.5,1.3c0.5-0.8,0.9-1.6,1.3-2.3c0.8,0.3,0.9,1,1.8,0.6c-1.3-1.4,1.3-1.5,0.8-3.1c-1.7,0.2,0-2.4-1.9-2.5
		c-0.3-0.7-0.7-1.3-1-2c0.5,0.1,0.8-0.1,0.9-0.6c0-0.1-0.2-0.3-0.3-0.3c-0.5,0.1-0.7,0.4-0.6,0.9c-1.7-0.2-0.5-2.3-3.3-2.8
		c1.6-1.1,2.3-1.6,2.9-2.1c-0.8-0.5-2,0.4-2.6-0.7c0.2-0.8-0.3-1.6,0.1-2.1c1-0.6,0.9,0.9,1.3,0c0.6-0.3,1.1-0.5,1.7-0.8
		c-1.2-1.2-2.2-2.2-3.1-3.1c1.2-1.1,2.4-2.2,3.6-3.4c0.6,0.7,1.4,1,2.2,0.6c0.5,0.9-0.2,1.8,1.1,2.3c0.1-0.8,0.5-1.4-1.1-2.3
		c0.2-0.2,0.2-0.7,0.2-1.2c1.8-0.5,2.9-1.7,4-3.1c-1.4-0.7-3.6,0.3-3.7-2.1c0.3-0.4,0.9-0.6,0.7-1.2c0.8,0.1,1-0.7,1.5-1
		c0.5,0.3,0.7,1.1,2.5,1.3c0.8,0.1,0.5-0.3,0.5-0.3c-0.4,0.3-1.5-0.6-1.3,0.4c0.2,0.8,1.1,0.8,0.9-0.1c-1.1-1.6-0.6-2.9-1.2-4.1
		c-0.6-0.4-1.4,0-1.8-0.8c-0.2-1.4,1.5-2,1.4-3.3c0.8-0.1,1.6-0.1,2.3-0.2c0.2-1-1.2-1.2-0.7-2.1c0.3-0.5,0.6-0.9,0.8-1.2
		c-0.6-1.2-1.1-2.3-1.6-3.2c1.4-2.2,3-1.4,5-0.4c-0.7-2.2,0.8-3.4,1.3-5c1.3,1.1-0.3,2.9,1,4c0.4-0.3,0.7-0.6,1.1-0.9
		c0.4,0.8,1.5,1,1.4,2c-0.5-0.1-0.8,0.1-0.9,0.6c0,0.1,0.2,0.3,0.3,0.3c0.5-0.1,0.7-0.4,0.6-0.9c0.6,0.1,1.3-0.3,1.9,0.4
		c-0.9,1.4-1.6,2.8,0.1,4.1c-1.1,0.8-2.8,0.9-3,2.6c0,0.9,1.6,1.3,0.9,2.5c-0.2,1-1.8-0.3-1.7,1.2c1.2,0.3,2.5,0.3,3.6,0
		c0.3-0.7,0-1.5,0.6-1.7c2,0.6,1,2.9,1.8,3.6c1.5,0.7,1.7-0.7,2.9-0.4c-1,1.2,0.6,1.4,0.7,1.9c-1.2,3.5-1.3,7-3.4,9.7
		c-1.1-0.6,0.4-2.2-1-2.8c-0.6,1.2-0.3,2.4-0.3,3.5c0.5,0.5,0.9,0.9,1.4,1.4c1.3-1.1,2.5-2.2,3-4.1c0.8,0.8,1.3,1.5,2.3,0.9
		c0.8-0.7-0.3-2,0.7-2.7c0.3,0.3,0.7,0.6,1,0.9c1.1-0.2,0-2.1,1.6-1.9c0,13,0,26,0,39c-0.6,0.2-1.6-0.5-1.9,0.6
		c0.6,0.7,1.3,0.2,1.9,0.4c0,94.7,0,189.3,0,284c-400,0-800,0-1200,0c0-115.3,0-230.7,0-346c0.3-0.1,0.8-0.2,0.8-0.3
		C0.9,71.9,0.5,71.8,0,71.9z M300,130.9c0.3-0.1,0.8-0.2,0.8-0.3c0.1-0.6-0.3-0.7-0.8-0.7c-0.2-1,1.5-1.2,1-2.4
		c-0.6-0.6-1-1.5-2.4-1.6c0.4-0.6,1.3-0.9,1.2-1.8c-0.7-0.4-1.2-0.4-1.7,0.2c-0.2,0.6-0.2,1.2,0.9,1.6c0,0.9,0,1.9,0,2.8
		c0,0.7,0.1,1.2,1,1.2C300,130.2,300,130.5,300,130.9c-0.5-0.1-0.8,0.1-0.9,0.6c0,0.1,0.2,0.3,0.3,0.3
		C299.9,131.7,300.1,131.4,300,130.9z M1005,143.9c0.5,0.1,0.8-0.1,0.9-0.6c0-0.1-0.2-0.3-0.3-0.3
		C1005.1,143.1,1004.9,143.4,1005,143.9c-0.5-0.1-0.8,0.1-0.9,0.6c0,0.1,0.2,0.3,0.3,0.3C1004.9,144.7,1005.1,144.4,1005,143.9z
		 M7,65.9c0.5,0.1,0.8-0.1,0.9-0.6c0-0.1-0.2-0.3-0.3-0.3C7.1,65.1,6.9,65.4,7,65.9c-0.5-0.1-0.8,0.1-0.9,0.6c0,0.1,0.2,0.3,0.3,0.3
		C6.9,66.7,7.1,66.4,7,65.9z M15,64.9c-0.1,0.5,0.1,0.8,0.6,0.9c0.1,0,0.3-0.2,0.3-0.3C15.8,65,15.5,64.8,15,64.9
		c0.1-0.5-0.1-0.8-0.6-0.9c-0.1,0-0.3,0.2-0.3,0.3C14.2,64.7,14.5,65,15,64.9z M375,147.9c-0.1,0.5,0.1,0.8,0.6,0.9
		c0.1,0,0.3-0.2,0.3-0.3C375.8,148,375.5,147.8,375,147.9c0.1-0.5-0.1-0.8-0.6-0.9c-0.1,0-0.3,0.2-0.3,0.3
		C374.2,147.7,374.5,148,375,147.9z M1160,153.9c-0.1,0.5,0.1,0.8,0.6,0.9c0.1,0,0.3-0.2,0.3-0.3
		C1160.8,154,1160.5,153.8,1160,153.9c0.1-0.5-0.1-0.8-0.6-0.9c-0.1,0-0.3,0.2-0.3,0.3C1159.2,153.7,1159.5,154,1160,153.9z
		 M1130,150.7c0.6-0.1,1.5,0.6,1.9-0.4c-0.7-0.7-1.3-0.6-1.9,0.6c-0.5-0.1-0.8,0.1-0.9,0.6c0,0.1,0.2,0.3,0.3,0.3
		C1129.9,151.7,1130.1,151.4,1130,150.7z M1086.1,157.3c0.2,0.2,0.5,0.6,0.5,0.6c0.4-0.3,1.5,0.6,1.3-0.4c-0.2-0.8-1.1-0.8-0.2,0.4
		c1.5,3.2,6.4,2.1,6.6,6.4c0.9-1,0.9-2,0.6-2.6c-0.5-1.2,1.1-1.5,0.7-2.7c-2.4,0.6-4.3-0.8-6.2-1.8
		C1088.8,157.4,1088.6,158,1086.1,157.3z M350.9,145c0.9,3.3,1.7,5.5,2.4,5.6c1.8,0.2,3.1,2,4.4,1.9c1.6,0,3.1,1.1,4.7,0.4
		c0.2-0.1,0.4-0.4,0.7-0.8c-1.7,0-0.6-1.7-1.6-2.2c-1.1,0-2.3-0.2-3,1c-0.7-1.4-1.4-2.7-2-4c-1.1,0-2.1,0-2.7,0
		c-1.2-0.4-0.4-1.4-1.3-1.8c-0.2,0-0.7,0-1.5,1.9c-0.5-0.1-0.8,0.1-0.9,0.6c0,0.1,0.2,0.3,0.3,0.3
		C350.9,147.7,351.1,147.4,350.9,145z M1155.2,147.1c-2.8,1.8-4.6,3.5-7.2,2.8c0,1.9,0,3.3-1.5,3.7c-1.2-0.6-2.2-1.1-3.3-1.7
		c-0.2,1.5-0.4,2.7-0.2,3.1c1.8,1.8,2.6-0.2,3.8,0.1c0.3,0.2,0.5,0.4,0.6,0.5C1150.8,154.1,1154.4,152.6,1155.2,147.1z M420.8,154
		c-4.3-0.3-7.3,1.8-10.6,2c-0.1,1.1-0.6,2.1,0.4,2.8c1.2,0.6,1.5-1.3,2.8-0.9c0.3,0.2,0.8,0.5,1.3,0.8c0.9-0.3,0-1.3,0.9-1.7
		c0.6-0.1,1.4-0.1,2.2-0.2C417.9,155.4,418.8,154.7,420.8,154z M406.3,148.7c1.7,0.5,1.8-1.1,3.2-0.7c0.1,0.1,0.6,0.4,1.1,0.8
		c0.7-0.5,0.5-1.2,0.4-1.8c-0.2-0.9,1.2-1,0.8-1.9c-1.6-0.9-2.7,0.5-4,0.8c-0.5-0.3-1-0.6-1.4-0.9c-0.4,0.9-0.8,1.7-1.2,2.5
		C405.6,147.9,406,148.4,406.3,148.7z M1098.4,152.1c0.7-1,1.8-1.3,1.6-2.7c-0.4-0.5-0.9-1-1.4-1.6c-0.3,0.3-0.4,0.5-0.6,0.6
		c-0.2,0.2-0.5,0.4-0.8,0.5c-2-0.8-2-0.8-4.2-0.5C1094.3,150.1,1096.1,151.1,1098.4,152.1z M501.6,146.1c0.1-2.7-0.8-6.3-1.4-6
		c-0.8,1.1,0.4,2.6-0.7,3.7c-0.6,0-1.3,0-2,0c-0.5,0-0.6-1.3-1.5-0.6c0,0.4,0.1,0.9,0.1,1.7C498.1,144.6,499.9,145.1,501.6,146.1z
		 M1149.1,163.5c3.9,0.3,4.1,0.2,6.9-2.5c-2.6-0.7-4.5,1.8-6.9,0.7C1149.1,162.6,1149.1,163.1,1149.1,163.5z M349.9,159.7
		c2.5-0.2,4.5,2.1,7.3,0.6c-2.2-1.6-4.4-2.5-7-2.5C350.1,158.5,350.1,158.8,349.9,159.7z M1154.7,166.9c1.2,0,2.1-0.2,2.8,0.1
		c0.8,0.4,1.3,1.7,2.6,0.4c-0.4-1.8-1.8-2.7-3.1-3.6C1155.6,164.4,1155.9,165.8,1154.7,166.9z M344.8,163.8c1.3-0.5,1.9,0.7,3.1,1
		c0.2-2,2.4,0.1,3-1.5c-1.4-0.2-2.2-1-2.4-2.4C347.6,162,345.8,161.9,344.8,163.8z M651,214.5c1.4,0.2,1.4,2.8,3.8,2.2
		c-0.5-1.9-1.6-3.3-3-4.6c-0.3-0.3-0.5-0.3-0.8,0.2C651,212.9,651,213.6,651,214.5z M851,219.9c2.2-0.9,4.3-3.7,3.8-4.7
		c-0.4-0.5-0.9-0.3-1.4-0.3C852.7,216.4,851.9,218,851,219.9z M1009.1,147.3c-1.6-1-3.6,0.4-4.7-1.4c-0.5,0.5-1,1-1.5,1.5
		c0.5,0.4,1,0.9,1.6,1.4C1005.4,146.8,1007.5,148.5,1009.1,147.3z M1187.8,147.8c1-0.6,1.7-0.9,2.4-1.3c-1.9-0.5-3.5-0.9-5.3-0.2
		C1186.1,147,1187,147.4,1187.8,147.8z M1191.8,150c0.6,1.9-2.6,2.9-1.6,4.8c0.6,0,1,0,1.6-0.1
		C1191.8,153.1,1191.8,151.6,1191.8,150z M504.5,138.9c0.4-1,1.8-0.8,2.6-1.6c-1.4-0.7-2.9,0.1-3.7-1.3c-0.5,0.5-0.9,1-2.2,2.4
		C503.2,137.3,503.8,138.2,504.5,138.9z M320,143.4c-0.6-0.8-1.5-0.5-2.2-0.5c-0.7,0-0.9-1.5-1.8-0.6c-0.2,1.3,0.7,1.9,1.6,2.4
		C318,143.5,319.5,144.3,320,143.4z M999,140.8c1.5-0.6,1.8,0.5,2.6,1.1c0.5-0.8,2-1.2,1.3-2.7c-0.8-0.4-0.8,0.7-1.4,0.8
		C1000.7,140,999.8,139.5,999,140.8z M155,117.4c-0.9-0.5-1.8-0.9-2.7-1.3c-0.4,0.5-0.9,0.9-1.3,1.4c0.9,0.6,2,0.5,2.5,1.4
		C154,118.4,154.5,117.9,155,117.4z M375,152.8c-2-0.9-1.8-2.2-3.2-3c1.9,1.7-1.1,1.7-0.4,3C372.1,152.8,372.9,152.8,375,152.8z
		 M314.4,151.8c0.8-0.4,0.6-1,0.6-1.4c0-0.5,0.3-1.3-0.6-1.4c-0.5,0.5-0.9,0.9-1.4,1.4C313.5,150.8,313.9,151.3,314.4,151.8z
		 M1046.2,168.2c-1.2-0.5-1.8-0.5-2.1,0.1c-0.2,0.4-1.3,0.5-0.7,1.3C1044.8,170.4,1045.2,169,1046.2,168.2z M462,165
		c-1,0.1-2-0.7-4,1.4c2.2-1.3,2.7,0.4,4,0.2C462,166,462,165.7,462,165z M511.9,94.4c1.3,0.7,2.2,0.6,3.3,0
		C513.9,93.7,513.1,93.7,511.9,94.4z M327.8,100.2c-0.9,0.1-1.9-0.7-2.8,0.3C326.1,101,326.9,101,327.8,100.2z M1180.6,103.7
		c-1.8-1.1-2.7-0.9-4.4,0C1178,103.7,1178.9,103.7,1180.6,103.7z M847.6,213c-0.3-0.2-0.9-0.3-1.7,0.4c0.1,0.4,0.1,0.8,0.4,2.3
		C847,214.3,847.3,213.7,847.6,213z M1157.6,151.8c-0.3-0.7-0.6-1.4-1-2.2c-0.8,1-0.8,1.6-0.2,2.2
		C1156.8,151.8,1157.2,151.8,1157.6,151.8z M533.2,142.5c2.7,0.2,2.7,0.2,2.5-0.9C535.4,141.7,534.6,142,533.2,142.5z M313.4,146.2
		c-0.3,1.5-0.3,1.5,2.1,1.3C314.5,146.9,313.9,146.5,313.4,146.2z M140,88.4c1,0.8,2,0.8,3.1,0C142,87.6,141,87.6,140,88.4z
		 M1031,157.4c0.7,0.7,1.3,0.7,2,0C1032.3,156.6,1031.7,156.6,1031,157.4z M491.9,125.4c0.9,0.6,1.5,0.9,2-0.1
		C493.3,124.7,492.7,124.7,491.9,125.4z M326,88.4c0.7,0.7,1.3,0.7,2,0C327.3,87.6,326.7,87.6,326,88.4z M1002.2,116.6
		c0.5-0.3,1.3,1,1.6-0.4C1003.3,115.7,1002.7,115.7,1002.2,116.6z M846.3,220.1c0.2,0.5-1,1.3,0.3,1.7
		C847.2,221.2,847.2,220.6,846.3,220.1z M402,151.4c0.7,0.7,1.3,0.7,2,0C403.3,150.6,402.7,150.6,402,151.4z M150.5,121.9
		c0.6-0.9,0.9-1.6-0.2-1.9C149.8,120.6,149.8,121.2,150.5,121.9z M462.8,162.2c-0.5,0.3-1.3-1-1.6,0.4
		C461.7,163,462.3,163.1,462.8,162.2z M152.8,96.2c-0.5,0.2-1.3-1-1.7,0.3C151.7,97.1,152.3,97,152.8,96.2z M375.1,131.4
		c-0.9-0.6-1.5-0.9-2,0.1C373.7,132.1,374.3,132,375.1,131.4z M993,97.4c-0.7-0.7-1.3-0.7-2,0C991.7,98.1,992.3,98.1,993,97.4z
		 M1014.3,130.1c0.3,0.5-1,1.3,0.4,1.6C1015.2,131.1,1015.2,130.6,1014.3,130.1z M1132,155.4c0.7,0.7,1.3,0.7,2,0
		C1133.3,154.6,1132.7,154.6,1132,155.4z M972,145.4c-0.7-0.7-1.3-0.7-2,0C970.7,146.1,971.3,146.1,972,145.4z M945.5,206.9
		c0.7-0.7,0.7-1.3,0-2C944.8,205.5,944.8,206.2,945.5,206.9z M975,147.4c-0.7-0.7-1.3-0.7-2,0C973.7,148.1,974.3,148.1,975,147.4z
		 M473,154.4c0.7,0.7,1.3,0.7,2,0C474.3,153.6,473.7,153.6,473,154.4z M349.1,148.4c-0.9-0.6-1.5-0.9-2,0.1
		C347.7,149.1,348.3,149,349.1,148.4z M11.5,62.9c0.7-0.7,0.7-1.3,0-2C10.8,61.5,10.8,62.2,11.5,62.9z M304.5,132.9
		c-0.7,0.7-0.7,1.3,0,2C305.2,134.2,305.2,133.5,304.5,132.9z M530.9,144.4c0.9,0.6,1.5,0.9,2-0.1
		C532.3,143.7,531.7,143.7,530.9,144.4z M35.5,32.9c0.7-0.7,0.7-1.3,0-2C34.8,31.5,34.8,32.2,35.5,32.9z M1132,153.4
		c0.3,0.5,0.7,0.5,1,0C1132.7,152.9,1132.3,152.9,1132,153.4z M1102.5,153.9c-0.5,0.3-0.5,0.7,0,1
		C1103,154.5,1103,154.2,1102.5,153.9z M602,212.4c-0.3-0.5-0.7-0.5-1,0C601.3,212.8,601.7,212.8,602,212.4z M850,210.4
		c0.3,0.5,0.7,0.5,1,0C850.7,209.9,850.3,209.9,850,210.4z M434,148.4c0.3,0.5,0.7,0.5,1,0C434.7,147.9,434.3,147.9,434,148.4z
		 M500.5,148.9c0.5-0.3,0.5-0.7,0-1C500,148.2,500,148.5,500.5,148.9z M1172.5,147.9c-0.5,0.3-0.5,0.7,0,1
		C1173,148.5,1173,148.2,1172.5,147.9z M841,210.4c-0.3-0.5-0.7-0.5-1,0C840.3,210.8,840.7,210.8,841,210.4z M389.5,148.9
		c-0.5,0.3-0.5,0.7,0,1C390,149.5,390,149.2,389.5,148.9z M345.5,149.9c-0.5,0.3-0.5,0.7,0,1C346,150.5,346,150.2,345.5,149.9z
		 M658.5,209.9c-0.5,0.3-0.5,0.7,0,1C659,210.5,659,210.2,658.5,209.9z M838,209.4c0.3,0.5,0.7,0.5,1,0
		C838.7,208.9,838.3,208.9,838,209.4z M655.5,209.9c0.5-0.3,0.5-0.7,0-1C655,209.2,655,209.5,655.5,209.9z M1091.5,149.9
		c-0.5,0.3-0.5,0.7,0,1C1092,150.5,1092,150.2,1091.5,149.9z M813.5,220.9c0.5-0.3,0.5-0.7,0-1C813,220.2,813,220.5,813.5,220.9z
		 M482.5,169.9c0.5-0.3,0.5-0.7,0-1C482,169.2,482,169.5,482.5,169.9z M560,179.4c-0.3-0.5-0.7-0.5-1,0
		C559.3,179.8,559.7,179.8,560,179.4z M946.5,181.9c-0.5,0.3-0.5,0.7,0,1C947,182.5,947,182.2,946.5,181.9z M937,185.4
		c0.3,0.5,0.7,0.5,1,0C937.7,184.9,937.3,184.9,937,185.4z M643.5,185.9c-0.5,0.3-0.5,0.7,0,1C644,186.5,644,186.2,643.5,185.9z
		 M862,189.4c0.3,0.5,0.7,0.5,1,0C862.7,188.9,862.3,188.9,862,189.4z M633.5,206.9c0.5-0.3,0.5-0.7,0-1
		C633,206.2,633,206.5,633.5,206.9z M694,196.4c0.3,0.5,0.7,0.5,1,0C694.7,195.9,694.3,195.9,694,196.4z M582.5,198.9
		c-0.5,0.3-0.5,0.7,0,1C583,199.5,583,199.2,582.5,198.9z M811,199.4c0.3,0.5,0.7,0.5,1,0C811.7,198.9,811.3,198.9,811,199.4z
		 M639.5,212.9c-0.5,0.3-0.5,0.7,0,1C640,213.5,640,213.2,639.5,212.9z M560,202.4c-0.3-0.5-0.7-0.5-1,0
		C559.3,202.8,559.7,202.8,560,202.4z M372.5,155.9c0.5-0.3,0.5-0.7,0-1C372,155.2,372,155.5,372.5,155.9z M1104.5,154.9
		c-0.5,0.3-0.5,0.7,0,1C1105,155.5,1105,155.2,1104.5,154.9z M1136.5,154.9c-0.5,0.3-0.5,0.7,0,1
		C1137,155.5,1137,155.2,1136.5,154.9z M561,156.4c0.3,0.5,0.7,0.5,1,0C561.7,155.9,561.3,155.9,561,156.4z M1051,156.4
		c0.3,0.5,0.7,0.5,1,0C1051.7,155.9,1051.3,155.9,1051,156.4z M658.5,208.9c0.5-0.3,0.5-0.7,0-1C658,208.2,658,208.5,658.5,208.9z
		 M692.5,217.9c0.5-0.3,0.5-0.7,0-1C692,217.2,692,217.5,692.5,217.9z M945,159.4c-0.3-0.5-0.7-0.5-1,0
		C944.3,159.8,944.7,159.8,945,159.4z M861.5,212.9c-0.5,0.3-0.5,0.7,0,1C862,213.5,862,213.2,861.5,212.9z M645.5,163.9
		c0.5-0.3,0.5-0.7,0-1C645,163.2,645,163.5,645.5,163.9z M654.5,207.9c0.5-0.3,0.5-0.7,0-1C654,207.2,654,207.5,654.5,207.9z
		 M694.5,205.9c-0.5,0.3-0.5,0.7,0,1C695,206.5,695,206.2,694.5,205.9z M1043.5,164.9c-0.5,0.3-0.5,0.7,0,1
		C1044,165.5,1044,165.2,1043.5,164.9z M666.5,206.9c0.5-0.3,0.5-0.7,0-1C666,206.2,666,206.5,666.5,206.9z M860.5,166.9
		c0.5-0.3,0.5-0.7,0-1C860,166.2,860,166.5,860.5,166.9z M1003.5,83.9c-0.5,0.3-0.5,0.7,0,1C1004,84.5,1004,84.2,1003.5,83.9z
		 M140.5,86.9c0.5-0.3,0.5-0.7,0-1C140,86.2,140,86.5,140.5,86.9z M991.5,87.9c-0.5,0.3-0.5,0.7,0,1C992,88.5,992,88.2,991.5,87.9z
		 M1003.5,91.9c0.5-0.3,0.5-0.7,0-1C1003,91.2,1003,91.5,1003.5,91.9z M315.5,93.9c-0.5,0.3-0.5,0.7,0,1
		C316,94.5,316,94.2,315.5,93.9z M511,98.4c0.3,0.5,0.7,0.5,1,0C511.7,97.9,511.3,97.9,511,98.4z M491,100.4c0.3,0.5,0.7,0.5,1,0
		C491.7,99.9,491.3,99.9,491,100.4z M1177,101.4c-0.3-0.5-0.7-0.5-1,0C1176.3,101.8,1176.7,101.8,1177,101.4z M425,106.4
		c0.3,0.5,0.7,0.5,1,0C425.7,105.9,425.3,105.9,425,106.4z M1080.5,109.9c0.5-0.3,0.5-0.7,0-1C1080,109.2,1080,109.5,1080.5,109.9z
		 M502.5,113.9c0.5-0.3,0.5-0.7,0-1C502,113.2,502,113.5,502.5,113.9z M331.5,113.9c-0.5,0.3-0.5,0.7,0,1
		C332,114.5,332,114.2,331.5,113.9z M36.5,24.9c-0.5,0.3-0.5,0.7,0,1C37,25.5,37,25.2,36.5,24.9z M24.5,50.9c-0.5,0.3-0.5,0.7,0,1
		C25,51.5,25,51.2,24.5,50.9z M160.5,55.9c0.5-0.3,0.5-0.7,0-1C160,55.2,160,55.5,160.5,55.9z M14.5,61.9c-0.5,0.3-0.5,0.7,0,1
		C15,62.5,15,62.2,14.5,61.9z M512,67.4c0.3,0.5,0.7,0.5,1,0C512.7,66.9,512.3,66.9,512,67.4z M61.5,70.9c-0.5,0.3-0.5,0.7,0,1
		C62,71.5,62,71.2,61.5,70.9z M151.5,72.9c-0.5,0.3-0.5,0.7,0,1C152,73.5,152,73.2,151.5,72.9z M325.5,74.9c0.5-0.3,0.5-0.7,0-1
		C325,74.2,325,74.5,325.5,74.9z M1179,76.4c0.3,0.5,0.7,0.5,1,0C1179.7,75.9,1179.3,75.9,1179,76.4z M163,78.4
		c-0.3-0.5-0.7-0.5-1,0C162.3,78.8,162.7,78.8,163,78.4z M1182,81.4c0.3,0.5,0.7,0.5,1,0C1182.7,80.9,1182.3,80.9,1182,81.4z
		 M528.5,133.9c-0.5,0.3-0.5,0.7,0,1C529,134.5,529,134.2,528.5,133.9z M1074,134.4c-0.3-0.5-0.7-0.5-1,0
		C1073.3,134.8,1073.7,134.8,1074,134.4z M1131.5,133.9c-0.5,0.3-0.5,0.7,0,1C1132,134.5,1132,134.2,1131.5,133.9z M1110.5,137.9
		c-0.5,0.3-0.5,0.7,0,1C1111,138.5,1111,138.2,1110.5,137.9z M365.5,139.9c0.5-0.3,0.5-0.7,0-1C365,139.2,365,139.5,365.5,139.9z
		 M519,139.4c0.3,0.5,0.7,0.5,1,0C519.7,138.9,519.3,138.9,519,139.4z M368.5,142.9c0.5-0.3,0.5-0.7,0-1
		C368,142.2,368,142.5,368.5,142.9z M1140.5,142.9c0.5-0.3,0.5-0.7,0-1C1140,142.2,1140,142.5,1140.5,142.9z M1143,142.4
		c0.3,0.5,0.7,0.5,1,0C1143.7,141.9,1143.3,141.9,1143,142.4z M1163.5,142.9c-0.5,0.3-0.5,0.7,0,1
		C1164,143.5,1164,143.2,1163.5,142.9z M1141.5,144.9c0.5-0.3,0.5-0.7,0-1C1141,144.2,1141,144.5,1141.5,144.9z M332.5,144.9
		c-0.5,0.3-0.5,0.7,0,1C333,145.5,333,145.2,332.5,144.9z M1174.5,116.9c-0.5,0.3-0.5,0.7,0,1C1175,117.5,1175,117.2,1174.5,116.9z
		 M384,118.4c-0.3-0.5-0.7-0.5-1,0C383.3,118.8,383.7,118.8,384,118.4z M1017.5,118.9c0.5-0.3,0.5-0.7,0-1
		C1017,118.2,1017,118.5,1017.5,118.9z M315.5,119.9c0.5-0.3,0.5-0.7,0-1C315,119.2,315,119.5,315.5,119.9z M1121,121.4
		c0.3,0.5,0.7,0.5,1,0C1121.7,120.9,1121.3,120.9,1121,121.4z M1189.5,121.9c-0.5,0.3-0.5,0.7,0,1
		C1190,122.5,1190,122.2,1189.5,121.9z M178.5,122.9c-0.5,0.3-0.5,0.7,0,1C179,123.5,179,123.2,178.5,122.9z M489,124.4
		c0.3,0.5,0.7,0.5,1,0C489.7,123.9,489.3,123.9,489,124.4z M388,127.4c-0.3-0.5-0.7-0.5-1,0C387.3,127.8,387.7,127.8,388,127.4z
		 M492,127.4c-0.3-0.5-0.7-0.5-1,0C491.3,127.8,491.7,127.8,492,127.4z M257.5,127.9c-0.5,0.3-0.5,0.7,0,1
		C258,128.5,258,128.2,257.5,127.9z M423.5,127.9c-0.5,0.3-0.5,0.7,0,1C424,128.5,424,128.2,423.5,127.9z M1013,128.4
		c-0.3-0.5-0.7-0.5-1,0C1012.3,128.8,1012.7,128.8,1013,128.4z M302.5,130.9c-0.5,0.3-0.5,0.7,0,1C303,131.5,303,131.2,302.5,130.9z
		 M306.5,130.9c-0.5,0.3-0.5,0.7,0,1C307,131.5,307,131.2,306.5,130.9z M1082,131.4c0.3,0.5,0.7,0.5,1,0
		C1082.7,130.9,1082.3,130.9,1082,131.4z"/>
	<path class="st0" d="M35,5.9c0-0.6,0.1-1.2,0.1-1.7c0.7-0.5,1.3-0.5,1.8,0C36.4,5,36,5.7,35,5.9z"/>
	<path class="st0" d="M2.2,64.4c-1.3-1.1-1.4-1.8-0.8-2.5C2.5,62.3,1.8,63.2,2.2,64.4z"/>
	<path class="st0" d="M713,218.9c-0.1-0.5,0.1-0.8,0.6-0.9c0.1,0,0.3,0.2,0.3,0.3C713.8,218.7,713.5,219,713,218.9z"/>
	<path class="st0" d="M581,180.9c-0.1-0.5,0.1-0.8,0.6-0.9c0.1,0,0.3,0.2,0.3,0.3C581.8,180.7,581.5,181,581,180.9z"/>
	<path class="st0" d="M918,202.9c-0.5,0.1-0.8-0.1-0.9-0.6c0-0.1,0.2-0.3,0.3-0.3C917.9,202.1,918.1,202.4,918,202.9z"/>
	<path class="st0" d="M671,207.9c-0.1-0.5,0.1-0.8,0.6-0.9c0.1,0,0.3,0.2,0.3,0.3C671.8,207.7,671.5,208,671,207.9z"/>
	<path class="st0" d="M578,168.9c-0.1-0.5,0.1-0.8,0.6-0.9c0.1,0,0.3,0.2,0.3,0.3C578.8,168.7,578.5,169,578,168.9z"/>
	<path class="st0" d="M1174,90.9c-0.5,0.1-0.8-0.1-0.9-0.6c0-0.1,0.2-0.3,0.3-0.3C1173.9,90.1,1174.1,90.4,1174,90.9z"/>
	<path class="st0" d="M1130,102.9c-0.1-0.5,0.1-0.8,0.6-0.9c0.1,0,0.3,0.2,0.3,0.3C1130.8,102.7,1130.5,103,1130,102.9z"/>
	<path class="st0" d="M521,105.9c0.5-0.1,0.8,0.1,0.9,0.6c0,0.1-0.2,0.3-0.3,0.3C521.1,106.7,520.9,106.4,521,105.9z"/>
	<path class="st0" d="M296,112.9c-0.1-0.5,0.1-0.8,0.6-0.9c0.1,0,0.3,0.2,0.3,0.3C296.8,112.7,296.5,113,296,112.9z"/>
	<path class="st0" d="M154,54.9c-0.5,0.1-0.8-0.1-0.9-0.6c0-0.1,0.2-0.3,0.3-0.3C153.9,54.1,154.1,54.4,154,54.9z"/>
	<path class="st0" d="M318,73.9c-0.5,0.1-0.8-0.1-0.9-0.6c0-0.1,0.2-0.3,0.3-0.3C317.9,73.1,318.1,73.4,318,73.9z"/>
	<path class="st0" d="M518,81.9c-0.1-0.5,0.1-0.8,0.6-0.9c0.1,0,0.3,0.2,0.3,0.3C518.8,81.7,518.5,82,518,81.9z"/>
	<path class="st0" d="M1061,132.9c-0.5,0.1-0.8-0.1-0.9-0.6c0-0.1,0.2-0.3,0.3-0.3C1060.9,132.1,1061.1,132.4,1061,132.9z"/>
	<path class="st0" d="M853,145.9c-0.5,0.1-0.8-0.1-0.9-0.6c0-0.1,0.2-0.3,0.3-0.3C852.9,145.1,853.1,145.4,853,145.9z"/>
	<path class="st0" d="M1171,114.9c0.1,0.5-0.1,0.8-0.6,0.9c-0.1,0-0.3-0.2-0.3-0.3C1170.2,115,1170.5,114.8,1171,114.9z"/>
	<path class="st0" d="M1115,128.9c0.1,0.5-0.1,0.8-0.6,0.9c-0.1,0-0.3-0.2-0.3-0.3C1114.2,129,1114.5,128.8,1115,128.9z"/>
</g>
</svg>
