<?xml version="1.0" encoding="utf-8"?>
<!-- Generator: Adobe Illustrator 22.0.1, SVG Export Plug-In . SVG Version: 6.00 Build 0)  -->
<svg version="1.1" id="Layer_1" xmlns="http://www.w3.org/2000/svg" xmlns:xlink="http://www.w3.org/1999/xlink" x="0px" y="0px"
	 viewBox="0 0 1200 521" style="enable-background:new 0 0 1200 521;" xml:space="preserve">
<style type="text/css">
	.st0{fill:#F8668D;}
</style>
<g>
	<path class="st0" d="M0,23c0.5,0,1,0,1.5,0c0.7-0.8,0.7-2.2,2.2-3c1.8,0.3,4.2-0.7,6.2,0.5c1,0.6,2,0.7,2.8,0.4
		c4.6-1.7,9.7-1,14.3-2.9c0.4-0.2,1-0.1,1.5,0c4.2,0.4,8.2-1.8,13-0.8c-1.8-1.6-0.1-3.3-1.5-4.2c1.5-2.9,1.3-6.6,4.5-9.7
		c0.4,4.1,3,7.2,0.5,10.8c-0.5-0.1-0.8,0.1-0.9,0.6c0,0.1,0.2,0.3,0.3,0.3c0.5-0.1,0.7-0.4,0.6-0.9c0.4,0.5,0.9,1.1,1.5,1.9
		c2.1,0,4.6,0,7.3,0c0.7-1.4-0.8-3.9,2-4.7c0,1.5,0,2.9,0,4.6c2.1,0,4,0,5.9,0c0.4-0.6,0.4-1.2-0.2-1.7c-0.4,0.3-0.7,0.6-1.1,1
		c-0.5-0.5-0.9-0.9-1.4-1.4c0.9-1.6,0.9-1.6,0-3c1.9-3.4,3.2-7,4.2-10.6c1.8-0.1,2.1,1.3,3.1,1.9c1.1-0.2,0.2-1.5,1-1.9
		c1.4-0.2,2,0.8,2.5,1.8C70.1,2.6,69.5,3,69,3.5c1,1.2,2.5,0.1,3.6,0.7c1.4,2.2-0.8,3.9-0.6,6.2c1.6,0.6,2.1,2.5,3.4,3.7
		c0.9-0.7,0.3-1.6,0.8-2.7c2.1-2.4,5.8-3.7,7.2-7.8c0.4,1.2,0.6,1.7,1.1,3.1c0.2-2.5,2.4-2.8,2.8-4.5c0.8,0,1.6-0.3,2.4,0.2
		c0.6,1,0,1.5-0.6,2.1c0.3,0.7,0.8,1.2,1.5,1.6c0.2-0.6,0.4-1.2,0.7-1.7c0.5-0.2,0.9-0.3,1.4,0.1c0.6,1,0.2,2.2,0.2,3.3
		c0,0.4-0.6,0.7-0.9,1C92.4,9.1,93,9,93.4,9c1.3,0.7-0.1,2.3,1.1,3c0.2-0.2,0.5-0.5,1-1c0.6,1,0.8,2.2,1.9,2.9
		c0.7-1.4,2.3-0.6,4-1.5c-1.2-0.3-2.2-0.6-2.7-0.8c1.3-3,2.2-4.9,2.5-7.4c0.6-0.6,1.4-1.4,2.3-2.3c0.9,0.7,1.5,1.4,1.6,2.8
		c0.1,2-1.2,4.3,1.2,5.9c-1.3,1.7-1.7,3-0.4,4.9c0.8,1.2,0.1,3.2,0.1,4.8c0.7,0.9,1.6,0.3,2.7,0.6c0.2-1.7,0.5-3.5,2.1-4.5
		c0.9-0.5,0.8-1.7,1.2-2.5c1.7-3.5,2.9-7.2,5.3-10c1.3-0.3,1.7,0.6,2.3,1.1c1,1.6-0.7,3.9,1.2,5.4c-0.6,0.6-1.2,1.2-1.8,1.8
		c0.9,1.5,2.3,2.5,3.9,3.1c-0.1,0.9,0.3,2-0.8,2.8c0.5,1,1.3,2.1,0.6,3.6c-0.2,0.6-1.3-0.4-1.6,0.8c1,0.7,2.3,0.3,3.5,0.3
		c0.6-1.2,1.1-2.5,2-4.3c0.4,2,0.8,3.6,1.6,4.9c0.5,0.9,2.2-0.2,2,2.2c2.6-3.5,1.6-7.2,3-10.2c0.1-0.8,0.9-0.4,1.5-0.8
		c0.9-3.3,2-6.5,4.8-8.7c1.6,0.6,1.2,2.4,2.4,3.3c-0.3,0.5-0.6,0.9-1,1.5c0.5,1,1.1,2.1,1.6,3.1c0.6,0,1.4,0,1.4-0.4
		c-0.4-2.1,2.1-1.2,2.6-2.8c0.6,0.7,1.1,1.3,1.5,1.7c0.2,1-0.2,1.5-1,2c0.8,0.9,1.5,1.6,1.9,2.2c0.2,1.2-0.6,1.4-0.9,2
		c0.3,0.5,1.1,0.7,1.2,0.4c0.9-1.3,2.4-0.7,3.5-1.2c0.3-1.2,0.6-2.3-0.6-3.1c0.5-1,1.2-1.8,2.5-1.8c1.5-2.7,2.1-5.9,4.8-7.7
		c2.7,0.8,0.8,3.4,2,4.6c1.3,1.2,1.5,2.7,1.9,4.1c0.6,0.3,1.2-0.1,1.8,0.9c-0.1,3.2,0.2,6.9-0.2,11.1c0.3,0.2,1.6,0.5,2.2,1.6
		c-0.4,0.9-1.7,0.1-2,1.3c0,0.1,0,0.5,0,0.9c1.2,0.6,2.4,0.4,3.8,0.2c0.1-0.8,0.2-1.6,0.3-2.4c2.5-1.6,4.4,1.3,6.6,0.6
		c0.7,1.4,0,1.9-0.7,2.5c0,1.4,1.2,2.3,1.5,3.5c1.6,0.2,1.7-1.2,2.4-1.4c0.2-1-0.2-1.5-1-2c1.9-2,3.6-4.2,3-7.1
		c2.4-2,3.1-5.5,6.5-6.7c0.6,2.4,1.2,4.8,1.8,7.1c0.6,0.1,1.1,0.2,1.6,0.3c0,1.5,0.6,3.5-0.1,4.3c-1,1.1,1.2,2.5-0.7,3
		c1.1,0.5,0.5,2.2,2,2.6c1.7-0.2,0.9-2.8,2.5-3c2.5,3.2,1.1,7.2,1.6,11c1.9-0.1,3.7-0.3,5.1,1.5c0.8-1.7,1.4-2.9,2-4.3
		c1.6,0.1,2.3-1.8,4-2.6c2.6,3,1.6,6.8,3.3,10.3c2.5,1.9,2.5,1.9,5.9,2c3.3-6.3,6.5-12.7,9.8-19c1.4,1.8,2,3.7,1.7,5.8
		c-0.3,1.7,0.5,3.1,1.2,4.5c-0.4,0.5-0.8,0.9-1,1.2c0.5,0.9,1.1,1.9,1.3,2.3c0.8,1.1-0.1,1.2-0.2,1.6c-0.5,1.7,2.5,3.5-0.1,5
		c0.2,0.9,1,0.5,1.7,0.9c0,1.3,0,2.8,0,4.1c3.1,2.3,6.3,3.7,9.5,4.8c1.2-0.9,0.1-2.3,0.9-2.8c2.3-1.5,1.3-5.2,4.4-6.1
		c1,0.6-0.4,2.2,0.9,2.8c0.9-1.4,0-2.9,0.6-4.4c2.4-0.7,2.2-3.7,3.9-5.2c0.9-0.6,1.8-0.5,2.7-0.1c0.6,1-0.1,1.5-0.7,2.1
		c0.1,0.9,1,0.5,2.4,1.4c0.1,0-1,1.3-0.2,2c0.5,0.1,0.9,0.2,1.5,0.4c0,3.1,0,6.2,0,9.2c1.4,1.1,1.2,2.9,2.7,3.6c0.7-1.3,1.3-2.7,2-4
		c0.4,0,0.7,0.1,1.4,0.1c0,1.5,0,3.1,0,5.3c1.4-1.2,1.1-2.9,2.9-3.1c1.9,0.7,0.8,2.9,1.3,4.4c0.7,0.6,2.2,0.1,1.8,2.1
		c-0.1,0.7-1.5-0.1-1.9,0.7c0.6,1.6,2.5,1.4,3.4,2.6c0.7-0.7,1.4-1.3,2.1-2c0.8,0.1,1.6-0.3,2.3,0.3c0,0.4,0.1,0.7,0.1,1
		c-0.6,1.4-2.3,0-2.8,0.8c0.5,0.7,0.9,1.4,1.1,1.8c2.7,0.3,2-2.6,3.7-2.9c-0.1,0.5,0.1,0.8,0.6,0.9c0.1,0,0.3-0.2,0.3-0.3
		c-0.1-0.5-0.4-0.7-0.9-0.6c0.1-1.2,1-1.2,1.6-0.8c0.6,0.4,1.4,0.8,1.9,2.6c0.3,0.5,0.1,0.2-0.1,0.1c-0.4-0.2-0.4-1.7-1.1-0.5
		c-0.4,0.7-0.7,1.8,0.3,2.6c0.5-0.5,0.9-0.9,0.9-2.2c0.7-1.4,1.9,0.8,3.1-0.7c0.8,0.7,0.1,1.6,0.6,2.5c0.5,0.2,1.1,0.5,1.8,0.8
		c0.7,1.4-1.7,1.8-0.9,3.1c0.5,0.7,0.9,0.1,1-0.2c1-2.2,1.9-4.5,2.9-6.8c0.1-0.2,0.5-0.4,0.7-0.6c0.7,0,1.4,0,1.3,1
		c-0.1,1.7,1,2.9,1.7,4.4c-0.9,1.6-1.4,3.3,0.8,4.5c1.6-0.8,1.3-2.4,1.9-4.4c0.4,1,0.7,1.6,0.9,2.1c0.7,0.6-1.4,0.9,0.3,2.3
		c2,0.4,4.4,0.3,6.3-1.7c0.3-1.7-1.6-0.8-1.9-1.7c-0.7-2.8,2.6-4.4,2-7.1c1-1,2.8,0.3,3.4-1.4c1.5,3.2,2.2,6.3,1.5,7.5
		c0.6,0.6,1.2,1.1,2,1.9c0,2.6-0.2,5.4,2,7.6c-0.1,0.5,0.1,0.8,0.6,0.9c0.1,0,0.3-0.2,0.3-0.3c-0.1-0.5-0.4-0.7-0.9-0.6
		c0-1.5,0-3,0-4.5c1.4-0.7,0.7-3,2.7-3.3c1,0.8-0.1,2.3,0.4,3.3c0.4,0.7,0.9,0.4,1.4,0.5c0.9-0.4,0.1-1.7,1.1-2
		c1.1-0.1,1.6,0.2,1.4,1.3c0.6,1.3,1.8,0.3,2.8,0.9c1.3,0.8,1.1,2.9,2.7,3.7c0.7-0.6,1.4-1.3,2.1-1.9c0.9,0.9,0.6,5.1-0.5,7.4
		c1.1,2.2,3.5,2.6,5.5,3.4c0.4-0.7,1.5-0.7,2.4-1.2c-0.3-0.3-0.6-0.7-1-1.1c0.8-0.7,1.7-1.4,2.7-2.3c1.1,0,2.6,0,3.9,0
		c0.8,0.9-0.2,2.1,0.9,2.9c1.1-1.7,3-2.9,3.6-4.8c0.7-2.4,3.5-3.3,3.9-5.9c2.5-0.9,1.1-4.4,3.6-5.4c3.2,0,1.5,3.6,3.3,4.7
		c-1.3,1.9,2.5,3.7,0.1,5.8c0.7,0.8,1.4,1.6,1.9,2.1c0.2,1.2-0.6,1.4-0.9,2c0.6,0.6,1.2,1.2,1.9,1.9c0,0.9,0,2.1,0,2.9
		c0.5,0.9,1.1,0.6,1.5,0.7c0.9,0.8,0.5,1.8,0.3,2.7c-0.6,0.2-1.2,0.4-1.7,0.6c0.4,1.1,1.8,1.4,1.9,2.7c0.2,0.8-0.8,0.9-0.9,1.6
		c1.4,0.5,2.6,1.8,4.4,1.4c1.6-1.2,2.2-3,2.7-4.9c1.5,0.5,2.1,1.6,1.8,2.9c-0.3,1.4,0.6,2.1,1.5,2.9c1.2-1,0.1-2.5,0.7-3.6
		c0.9-0.6,1.9-0.2,2.8-0.3c0.1,0.6-0.3,1.3,0.3,1.8c3-0.1,3-0.1,3.7-2.8c3.3-0.5,6.2-2.1,10.3-2.1c-1-1-1.6-1.8-2.3-2.5
		c0-0.7,0-1.3,0-2.1c-0.6-0.2-1.2-0.4-1.8-0.6c0.2-1,1.2-1.4,1.7-2.1c-0.2-0.7-1.3-1.1-0.8-2.3c1.5-0.6,3.4-0.7,4.8-1.9
		c-0.3-0.3-0.6-0.7-0.8-1c0.4-0.6,0.9-0.4,1.3-0.5c0.8,0.3,0.5,1.1,0.9,2c0.9-1,2-1.1,3.2-0.9c0.9,0.7,0,1.9,0.8,3
		c0.9-1.7,1.7-3.2,2.4-4.5c1.2-1,1.3,0.7,2.2,0.5c0.5-0.2,1.3-0.4,1.8,0.3c-1.5,1.4,1.3,2.7,0.2,3.7c-0.3,2.1-3.3,1.2-3,3.8
		c1.4-0.6,2.6-1.1,4.6-2c-1.9,3.2-3.4,5.8-5.6,7.6c0.2,1.5,1.5,2.3,1.1,3.8c-0.4,1.3,0.6,2,1.7,2.5c0.5-1.3,0.1-3,1.7-3.8
		c1.1,2.1,1.1,2.1,0.3,9.6c-0.9,0.2-1.7-1.6-2.8-0.3c-0.3,2.2,1.8,2.2,2.9,3.1c-2.1-0.5-1.4,2.3-3,2.4c0.1-0.5-0.1-0.8-0.6-0.9
		c-0.1,0-0.3,0.2-0.3,0.3c0.1,0.5,0.4,0.7,0.9,0.6c0.6,2,1.9,2.3,3.7,1.8c0.7-2.7,4.5-9.5,7.2-10.2c0.6-0.8-0.7-2.4,1.2-2.7
		c-0.1,0.5,0.1,0.8,0.6,0.9c0.1,0,0.3-0.2,0.3-0.3c-0.1-0.5-0.4-0.7-0.9-0.6c0.9-1.1,0.8-3,2.7-3.4c0.3,0,0.3-1.5,0.4-2.3
		c0.5-0.2,1.1-0.4,1.8-0.7c-0.3-0.4-0.5-0.7-0.9-1.1c0.7-0.7,1.4-1.5,1.8-2.1c0.2-1.2-0.6-1.4-0.9-2c0.7-1,1.9-0.1,2.7-0.7
		c0.5-0.7-0.8-0.8-0.6-1.5c2.6-4.6,2.6-4.6,5.1-6.3c1.5,3.7,1.5,3.9,0.9,5.3c0.6,1,0.7,2.3,1.8,3.1c-0.3,0.3-0.6,0.7-0.9,1
		c0.3,0.3,0.6,0.7,0.9,1c-0.3,0.3-0.6,0.7-0.9,1c0.6,0.6,1.2,1.2,1.8,1.8c0.5,2.1,0.2,4.1-0.9,5.7c0.3,1.1,1,0.9,1.6,1
		c1,0.9-0.3,2.8,1.4,3.4c-0.7,1.1-1.8,1.6-3,2.1c2.6,0.7,3.9,2.7,4.9,5.1c-0.4,0.8-1.7,1.1-1.8,2.4c2.7,1.9,2.7,1.9,3.5,5
		c0.6-0.6,1-1.3,2.1-0.9c0.9,1,0.2,2.2,0.5,3.6c2.1-0.2,2.9,3.2,5.6,2.2c0.5-1,0.6-1.9-0.1-2.8c-0.3,0.3-0.7,0.6-1,0.9
		c-0.9-0.3-0.1-1.6-1.3-1.9c-0.3,0-0.8,0-1.3,0c1-1.9,3.1-1.7,4.8-2.3c-0.2-1-2-2.1,0.1-3c-0.2-1.3-1.6-0.3-1.8-1.2
		c0.1-0.6,1.8-1-0.3-1.9c1.9-1.4,2.8-3.5,4.7-4.9c1.5,2.7-0.6,5.6,1.5,7.7c-1.1,1.2-2.1,2.4-3.1,3.5c1.2,2.1,1.9,0.5,2.8,0.1
		c0.2,0.6,0.4,1.2,0.6,1.7c3.4-3.5,6.3-7.4,8.2-12.1c3,1.5,2.1,4.3,2.7,6.5c0.8-0.8,1.3-1.6,2.6-1c0,2.1,0,4.3,0,6.6
		c1.1,0.1,1.9,0.2,2.7,0.3c1.1,1.3,0,2.5-0.4,3.9c2.4-0.1,3-1.4,2.8-3.7c-0.6-0.3-1.5-0.8-1.9-1c0-1.9-0.3-3.1,0.2-4.1
		c1.1-0.7,1.7,0.2,2.3,0.9c0.2-0.6,0.5-0.9,0.4-1.2c-0.4-1.3-1.8-2.4-0.5-3.9c0.4,0.3,0.7,0.6,1.1,0.9c1-0.7,0.1-1.9,0.3-2.2
		c0.6-0.8,0.9-0.8,1.1-0.3c1.2,2.5,1.7,5.1,0,7.7c0.3,0.5,0.6,1,1,1.5c-0.6,0.2-1.2,0.4-1.8,0.7c0.4,1.6,1.8-0.1,2.4,0.7
		c0.2,0.3,0.4,0.5,0.4,0.8c0,1.7,0.1,3.3,0,5c0,1,0.9,1.3,1.3,2.2c1,0,2,0.2,2.9,0c1.1-0.3,1.6,0.7,2.6,0.9c0.1-0.5,0.2-0.9,0.3-1.5
		c0.7-0.9,1.9,0,2.5-0.4c0.5-0.9,0.4-1.4-0.1-1.9c-1.4-0.9-1.6,2-3.4,0.5c-1.5-2.5,1.6-4.5,2-7.2c0.5-0.7,1.9-0.1,2.3-1.3
		c1.9,1.2,2.1,3,0.6,6.6c2-0.2,1.7,2.6,3.7,2.5c1.1,0.8-0.7,2.5,1.3,2.9c-0.8,1.5-1.4,2.8-2,3.9c0.2,1.5,1.6,0.5,2,1.4
		c0.5,1.5-1.8,2.4-0.8,4.3c0.3,0.3,0.8,0.7,1.3,1.2c1-0.7,2-1.4,1.7-2.9c0.7,0,1,0,1.4,0c1.1,1.1,0,2.6,0.7,3.7
		c1.1,0.5,2.2,0.2,3.4,0.2c1-0.8,0-2.1,1-3.1c0.7-0.8,1.9-0.4,2.4-1.3c-2.4-2.1-0.2-3.9,0.7-5.4c0.9-1.5,1.7-3.4,4.2-3.8
		c0.2,0.3,1.1,0.8,1.1,1.4c0.1,1-0.4,2.1-0.7,3.1c-0.5,1,0.7,1.2,0.9,2.2c0.3,1-2.1,1.5-0.5,3c1.7-1.8,3.6-3.3,4.5-5.8
		c0.9-2.6,3.4-3.6,5-5.9c1.4,2,1.3,3.1,0.1,4.1c0.2,0.9,1,0.5,1.6,0.8c0.8,0.7-0.1,1.9,0.5,2.8c0.7,0,1.4,0.1,2.4,0.1
		c0.4-1.4,1.2-2.6,2.4-3.5c-0.4-0.4-0.6-0.6-0.9-0.9c1.1-0.9,2.2-1.9,2.7-2.3c0.4-1.6-0.2-2.5,0.6-3.2c0.3,0.3,0.7,0.6,1,0.9
		c1.1-2.2,2.6-4.3,2.9-7.1c0.6,0.6,0.8,0.8,1,1c0.2-0.1,0.6-0.2,0.6-0.4c0.4-2.3,0.8-4.6,2.5-6.5c1.2-1.4,2.1-3.3,1.5-5.4
		c0.9-0.8,1.7-1.5,2.7-2.4c1.4,0.5,1.1,2.4,2.4,3.3c0,0.9,0.1,1.9,0,2.9c-0.1,0.9,0.3,1.6,1,2.1c-1.1,0.7-0.6,1.3,0,2.2
		c0.6,0.7-0.6,1.3-0.9,2c0.6,0.2,1.2,0.4,2,0.7c-0.4,1.9,0.8,4.1-1,6.1c1.6,1.1,2.1,2.9,2.9,4.5c0.1,1.6-1.8,0.5-2,1.6
		c-0.2,2,1.9,1.2,2.6,2.3c0.7,1.1-0.3,2.8,1.4,3.4c-0.7,0.7-1.3,1.4-1.9,2.1c0.3,0.6,1.1,0.7,1.3,0.4c1.3-1.2,2.5-2.1,2.9-4.3
		c0.2-1.5,1-4.5,4.2-3.6c1.9,2.5,1,6,2.5,8.9c-1.1,2.2-1.5,4.6-0.4,7.2c0.8,1.9,0.6,2-0.5,4.4c1.2,0.4,0.5,2.2,2.4,2.6
		c0.6-1.9,1.3-3.8,2-6c0.6,0,1.3-0.1,2.5-0.2c-0.2-1.6,0.6-3,1.2-4.3c0.6-1.3,1.6-2.9,2.9-3.4c2-0.8,0-3.5,2.1-3.7
		c0.8-0.6,0.8,0.3,1.4,0.4c2.5-1.1,2.6-5,5.9-6c0.7,2.2,1.3,4.3,1.8,6.6c0.4,2,0.2,4.4,1.7,6.2c-1.9,2.2-0.4,4.7-0.9,6.9
		c0.9,0.9,1.8,0.3,2.6,0.5c0.8,0.8,0.5,1.8,0.2,2.8c-0.4,0.1-0.9,0.2-1.4,0.3c-0.4,0.2-0.4,0.4-0.1,0.7c1,0.8,1.8,1.8,2.3,3.2
		c0.1-2.9,2.5-4.9,2.7-7.7c2.6-1.7,1.4-5.7,4.4-7.1c0.3,0.4,0.8,0.8,1.3,1.4c0.3,1.8-0.5,3.9,1.2,5.6c-2.2,2.4-0.9,4.6,0.3,6.9
		c2.4,0.1,4.9,0.4,6.9-1.1c0.5,0.5,0.8,0.8,1.2,1.1c0.5-0.5,1-1,1.5-1.5c-0.7-0.3-1.4-0.6-2.4-1.1c1.5-1.4,1.1-4.1,3.8-4.4
		c1.2,1-0.8,1.2-0.4,1.9c-0.1,1.1,0.9,1.3,1.6,2.4c0.2-0.8,0.4-1.5,0.5-2.1c1-0.2-0.2-0.2,0-0.9c0.3-0.5,0.9-0.2,1.3-0.3
		c0.8-0.6,0.3-1.5,0.5-2.3c3.2-1.9,3.5-6.3,7.1-8c-0.4-0.5-0.7-0.8-1-1.2c1.5-0.8,3.1-1.3,3-3.6c-0.1-1.3,1.6-1.9,2.4-2.9
		c2.4,3.8,1.7,8.6,4.3,12.4c0,0.9-1.8,1.5-0.9,2.4c0.5,1.7,2.4,2,2.2,3.7c-0.3,1-1.6,0.2-2,1.2c2.4,0.1,2.9,2.1,3.9,4.1
		c-0.6,0.3-1.5,0.7-2.2,1c1.1,1.8,2.2,0.8,3.2,1.5c0.8,0.6-0.4,1.9,0.6,2.6c0.2,0.2,0.4,0.5,0.6,0.7c-0.5,0.5-1,1-1.4,1.4
		c-0.8,0-1.7,0-2.5,0c0.1-0.5-0.1-0.8-0.6-0.9c-0.1,0-0.3,0.2-0.3,0.3c0.1,0.5,0.4,0.7,0.9,0.6c0.7,1.7,2.6,1.4,3.8,2.3
		c0.3,0.6-0.4,0.7-0.6,1.1c0.2,0.4,0.4,0.9,0.8,1.5c-1.3,0.1-2.4,0.1-3.5,0.2c0.1,1.4-1.6,2-1.4,3.4c1.4,1.7,2.1-1,3.5-0.4
		c0.3,0.2,0.6,0.6,1,0.9c1.5-0.6,1.3-2.4,2.5-3.3c-0.3-0.7-1.3-1.1-0.9-2.1c1-1.1,1.7-0.4,2.4,0.5c0.4-0.4,0.9-0.8,1.4-1.3
		c-1.2-2.1-1.5-4,0.7-5.6c0.4,0.3,0.8,0.6,1.1,0.9c0.6-2.7,2.5-5.3,4.9-6.9c0.5,0.5,0.9,0.9,1.4,1.4c0.4,1-0.4,1.5-0.9,2.1
		c1.8,2,1.8,2,2.5,4.5c0.4-0.3,0.7-0.6,1.1-1c1.1,1.1-0.3,2.8,0.7,3.6c1.6,1.3-1,1.7-0.4,2.9c0.3,0.7,0.6,1.4,1.2,2.1
		c-0.1,1.4-1.8,2.4-1.2,3.5c0.5,1.3,2.6,0.2,1.9,2.4c-1,0.5-2.4,1.2-3.8,1.9c1.3,0.8,2.4,0.9,3.4-0.3c0.8,0.4,1.6,0.7,2.5,1.2
		c-0.2,0.9-1.2,1.3-1.7,2.1c0,1,0,2.1,0,3.2c3.9,1.7,7.5,3.7,11.6,4.7c1.9,0.5,3.4,2.1,5.2,3.1c3,1.6,6.2,3.1,9.3,2.5
		c2.5-1.2,1.4-3.1,1.9-4.6c0.7-0.7,1.6-0.2,2.3-0.3c1.5-1.6-0.3-2.9-0.6-4.1c0.7-1.5,1.9-0.5,2.8-1c-0.2-2.6,2.4-3.8,2.8-5.9
		c1.5,0.1,2,0.8,2.4,1.7c-0.2,0.2-0.5,0.5-0.7,0.7c0.5,1.2,2.5,1.8,1.9,3.6c-0.5-0.1-0.8,0.1-0.9,0.6c0,0.1,0.2,0.3,0.3,0.3
		c0.5-0.1,0.7-0.4,0.6-0.9c0.5,0,1,0,1.6,0c0.9,1.3,0.6,2.9,0.3,4.2c-0.2,1.1-1.7,2.3-0.7,3.4c1.4,1.5-1.5,2.4,0.5,4.5
		c-0.1,0,0.7,0.5,1.3,0.9c-0.4,1.5-2.3,0.4-1.8,2c-0.9,0.3-1.8-0.4-2.2,0.7c0.7,0.7,1.3,0.6,2.2-0.7c1.1-0.3,1.9,0.6,2.6,1.5
		c-0.2,0.8-1.9,1.2-0.5,2.5c0.3-0.3,0.6-0.5,1.2-1c0.5,0.8,0.9,1.6,1.4,2.5c1-1,1.6-1.6,2.2-2.2c0.8-0.7,2,0.3,2.7-0.7
		c-1.8-1.4-0.6-3.4-1-5c0.8-1.1,2-0.1,2.8-0.8c0.5-0.8-0.9-0.7-0.4-1.5c1-1,1.3-2.6,2-4c1.7-0.8,2.8,0,3.7,1.3
		c-0.3,0.3-0.6,0.7-0.9,1c1.2,1.1,2.3,2.1,3.3,3.6c0.6-1,1.1-2.1,1.5-2.8c0.3-1-0.3-1.2-0.7-1.8c0.4-0.8,0.8-1.7,1.3-2.6
		c0.4,0.3,0.7,0.7,1.1,1c1.4,0.2,2-1.5,3.4-1.4c-1.1-1.8-0.8-2.7-1.3-3.8c-0.7-1.5,0.5-2.4,0.6-3.6c1.4-0.2,2.9-0.2,3.7-1.7
		c-0.3-0.3-0.6-0.7-1-1.1c0.6-0.2,1.2-0.4,1.8-0.6c0.3-0.9-1.4-1-0.8-1.8c0-1.5,1.5-0.5,1.9-1.4c0.1-0.8,0.2-1.5,0.3-2.3
		c0.7-0.5,0.8,0.4,1.3,0.5c0.4-0.2,0.8-0.5,1.3-0.8c1.2-0.1,1.6,1,2.2,1.6c0.4,1-0.8,1.3-1,2.2c0,1.4,1.4,1.7,2,2.7
		c0.2,1.6,0.1,3.1-1,4.5c-0.5-0.1-0.8,0.1-0.9,0.6c0,0.1,0.2,0.3,0.3,0.3c0.5-0.1,0.7-0.4,0.6-0.9c1.4,0.5,2.2-1.3,3.9-0.9
		c0,1.5,0.7,3-0.8,4.3c2.5,0.9-1,3.2,0.9,4.2c-1.1,1.4,0.3,2.8,0,4.1c-0.3,1.5-1.6,2.8-0.8,4.6c0.5,1.1,2.4,0.5,2.6,2.4
		c-1.1,1.3-2.9,1.9-5.5,2.9c1.2,0.2,1.9,0.3,2.6,0.3c0.3,0.7,1.1-0.3,2.2,0.1c0.9,0.3,1.6,1,1.9,2c-0.2,1.3-1.6,1.6-1.9,2.5
		c-0.5,1.3,1.2,1.6,0.9,2.9c-0.2,1.6-2.4,1.2-3.1,2.9c-0.4,1.1-2.5,1.5-3.9,2.3c3.3,1.4,6.3,3.5,10.1,3.4c0,1,0.8,1.5,1.4,1.8
		c0.6,0.4,1.6,0.2,1.9,1.2c0.3-0.3,0.6-0.4,1-0.8c0.8,0,1.6,1.2,2.7,0.8c-0.1,0.5,0.1,0.8,0.6,0.9c0.1,0,0.3-0.2,0.3-0.3
		c-0.1-0.5-0.4-0.7-0.9-0.6c0.1-1.5,0-2.9-1-3.9c0.8-2.1,2.6-3.7,2.1-6.2c1,0.4,1.2,1.2,2,1.1c-0.1,0.5,0.1,0.8,0.6,0.9
		c0.1,0,0.3-0.2,0.3-0.3c-0.1-0.5-0.4-0.7-0.9-0.6c0.6-1.3,2.9-1.9,2.6-3.2c-0.3-1.5,0.4-2.3,0.7-3.8c1.2,0,2.4,0,4,0
		c-1.1-2.4-1.8-4.5-1-6.7c0.4-0.4,0.8-0.8,1.2-1.2c0.3,0.3,0.7,0.5,1.1,0.9c0.5-0.4,1-0.9,1.6-1.4c-0.5-0.5-0.7-0.7-1-1
		c0-1.3,1.5-0.1,1.8-1.1c0.4-1-0.3-1.5-0.9-2c0.3-0.8,1.1-0.4,1.6-0.7c0.8-0.8,0-1.9,0.6-2.9c0.5,0.4,0.8,0.7,1.2,0.9
		c1-0.2,0.1-1.6,1.1-1.8c0.5,0.9,1,1.8,1.5,2.8c0.3,1-1.5,1.3-1,2.6c1,0.6,2.3,0.9,3,2.1c0,0.8,0,1.6,0,2.5c-0.7,0-1,0.3-1,1
		c-0.5-0.1-0.8,0.1-0.9,0.6c0,0.1,0.2,0.3,0.3,0.3c0.5-0.1,0.7-0.4,0.6-0.9c0.7,0,1-0.3,1-1c0.5,0,1,0,1.5,0
		c0.9,0.8,0.4,1.9,0.5,2.8c0.1,1-0.2,2,1.1,2.7c-0.7,0.5-1.3,1-2,1.5c0.8,1.5,0.5,2.9,0.8,4.3c0.3,1.6-1.6,3.2-0.6,5.2
		c0.8,0.5,2.1,0.8,2.7,2c-1.3,1.5-3.1,2-5.2,3c1.9,0.8,3.4,0.7,4.8-0.4c1,0.6,1.4,2.5,3.1,1.7c0.4-0.7-0.4-0.7-0.5-1.1
		c3.8-2.6,4.5-7.4,7.3-10.8c1.8,0.4,2.3,1.4,2.6,3c0.6,2.9,1,5.8,2.6,8.5c-1.6,2.3-0.2,4.2,1.2,6.1c-0.2,0.5-1.1,0.7-1,0.9
		c1.4,1.4,2.4,2.4,4,3.9c-1.6,0.7-2.5,1.1-3.2,1.4c1,2,2.5,2.1,3.2,3c0.4,0.4,0.4,1.4,1,1.7c-0.8,2-2.6,1.3-3.9,2
		c0.6,1.8,2.2,1.6,3.9,1.8c-0.6,1.2-1.2,2.3-1.8,3.5c2,2.2,5,2.5,7.6,4.4c1.1,0,2.5,0,4.1,0c0.1,1,0.1,1.7,0.2,2.4
		c4.4,2.4,8.8,4.8,13.1,7.2c0.7,0.4,1.3,0.2,1.9,0.3c-0.1,0.5,0.1,0.8,0.6,0.9c0.1,0,0.3-0.2,0.3-0.3c-0.1-0.5-0.4-0.7-0.9-0.6
		c-0.2-1.5,0.7-3.3-0.9-4.5c0.3-0.5,0.8-0.5,1.3-0.5c0.8-0.3,0.6-1,0.7-1.7c0-0.5-0.1-1,0.5-1.3c0.3,0.3,0.7,0.6,1,0.9
		c1-1,0.4-1.7-0.5-2.3c0.7-1.7,2.8-1.5,3.7-3c0.3-0.6-0.5-0.6-0.7-1.4c0.7-0.3,1.7-0.6,2.6-1c-1-1.1-1.3-1.5-1.6-1.8
		c1.5-0.8,3.1-1.2,3.2-3.6c0-0.9,2-2,2.6-3.2c0.7-1.4,1.4-2.9,1.5-4.8c0.6,0.6,0.8,0.8,1,1c0.7,0-0.1,0.5,0.4,0
		c0.1-0.1,0.3-0.3,0.3-0.4c-0.4-1.3,1.5-1.8,1.1-3c1.9-0.4-0.7-2.3,0.5-2.3c1.6,0,1.2-1.2,1.7-1.9c0.6-0.9,1.1-1.9,1.7-2.8
		c-0.2-0.2-0.4-0.4-0.9-0.9c1.1-0.6,2.5-0.9,2.5-2.5c0.7,0,1.3,0,2,0c0.9,0.8-0.2,1-0.4,1.5c0.6,0.7,1.3,1.3,1.9,2
		c-0.3,0.4-1,0.8-0.9,1.1c0.9,3.6,1,7.4,2.8,11c-0.7,1.6-0.7,1.6-0.5,4.2c0.5,0.1,0.9,0.2,1.5,0.4c0,1.4,0,2.8,0,4.6
		c-0.2,0.4-1,0-1.9,0.7c1,0.7,2.7,0.8,2.8,1.9c0.2,1.2,1.5,1.7,1.3,3c-0.3,1.7-2.6,1.1-3,2.7c-0.5-0.1-0.8,0.1-0.9,0.6
		c0,0.1,0.2,0.3,0.3,0.3c0.5-0.1,0.7-0.4,0.6-0.9c1.4-0.5,2.2,1.2,3.6,1c0.7,1.2,0.1,2.9,1.4,3.8c0,1.1-0.8,1.7-1.4,1.9
		c-1.3,0.4-2.9,0-3.5,1.9c2,0.3,3.7,1.7,6,1.9c-0.8,0.5-1.7,1-2.5,1.4c0.7,0.8,1,1.2,1.3,1.5c-0.5,1-2.4-0.3-2.1,1.9
		c-2.4-3.1-5.8-2.8-8.7-4.8c0.4,2.8,3.1,2.1,3.7,3.7c0.3,0.8,0,1.2-0.4,1.8c-0.4,0.5-0.5,1.1-0.7,1.7c-0.8,0.1-1.1-1.2-2.2-0.7
		c-1.7,2.5,0.9,3.4,2.2,5c2.7-1.9,5.3-1.3,7.8,0.8c0.9,0.6,0.4,1.7,0.6,2.6c1.6,1.9,4.2,2,6.2,4.1c0.9-2.8,2.2-5,1.7-7.3
		c1.3-0.8,1.8-0.1,2.2,0.3c1.2-1.2,2.5-2.4,4-3.8c0.3-0.8-2-0.9-0.3-3c0.6-0.4,2.3,0.6,4.2-0.1c-0.5-1.6-1.1-3.3-1.7-5.3
		c0.3-0.6,0.7-1.5,1.1-2.3c1.1-0.4,1.4,0.6,2.1,0.8c0.5-0.5,1-0.9,1.5-1.4c-0.6-0.6-1.4-1.1-0.9-2.2c0.5-0.2,1.1-0.4,1.7-0.6
		c0.2-0.6-0.4-0.7-0.6-1.1c0.1-1,0.9-0.5,1.4-0.7c1-0.7,0-1.9,0.7-2.7c0.6-0.4,0.7,0.4,1.2,0.6c1.3,0.1,0-1.5,1-1.7
		c0.6,0.9,1,2,2.4,2.1c-0.4,1-1.1,1.9-0.8,3.2c0.6,0.7,1.4,1.6,1.8,2.1c0.6,1.7-0.7,2.4-0.9,3.5c-0.5-0.1-0.8,0.1-0.9,0.6
		c0,0.1,0.2,0.3,0.3,0.3c0.5-0.1,0.7-0.4,0.6-0.9c1.4,0.5,2.2-1.3,3.8-0.9c0.3,1.5,0.7,3-0.6,4.4c0.3,0.5,1.3,0.9,0.9,1.9
		c-0.4,0.9-1.6,0.1-2,1.1c0.6,0.2,1.1,0.4,1.7,0.6c0.4,0.8-1,0.7-0.7,1.3c-0.5,1.3,1.5,1.5,0.5,3.3c-0.3,0.2-1.1,0.7-1.9,1.2
		c1.3,1.6,3.6,0,4.1,2.4c-0.3,2.5,1.4,4.9,0.6,7.7c-0.9,3.1-0.2,6.2-0.5,9.7c5.9,2.7,11.9,5.4,18,8.2c1.4,0.1,1.6-2,3-2
		c0.8-0.2,1,0.7,1.6,0.9c1.2-1.5-0.1-2.6-0.5-3.7c-0.3-1.1,1.2-1.3,0.9-2.2c0.8,0.2,1-0.8,1.7-1c1.2-0.2,1.9,1.9,3.5,1
		c1.6-0.9,2.7-2.2,3.2-4c1.5-0.3,2,0.8,2.5,1.7c0.2,0.8-0.5,1.2-0.9,1.7c0.2,0.8,1,0.5,1.7,0.8c0.3,1.3,0.5,2.6,1.2,3.9
		c0.8,1.3-1.4,2.1-0.9,3.5c1.5,0,1.7-1.2,2.2-2.3c0.5-0.9,1.5-1.6,2.7-2.8c0,4.4,0,8.2,0,12c0,0.3-0.6,0.7-0.9,1
		c2.5,2.1,5.6,2.8,8,4.6c2.7-1.4,1.7-4.6,3.6-6.2c1.1-0.2,1.5,0.9,2.3,1.5c-0.7,0.8-1.5,1.6-1.9,2.1c-0.1,1.9,1.3,1.1,1.7,1.7
		c0.2,0.8-1.2,1.1-0.6,2.3c3,1.3,5.9,3.3,9.7,4.2c0.3-0.1,0.7-1.1,1.7-0.7c0.9,0.4,0.1,1.7,1.1,2c3.9-1.5,3.9-1.5,6.4,0.5
		c-0.2,0.2-0.5,0.5-0.7,0.7c-0.4,0.6,0.3,0.9,0.6,1c5.4,2.5,10.6,4.9,17.1,2.9c6.5-2,13.4-3,19.9-5.2c2.7,0.8,5-1.4,7.6-1
		c1.2-2,1.2-2,5.2-3.9c0.9,1.7,3.3,0.2,4,1.6c9.7-1.3,19.1-4.2,28.9-3.6c0.6-0.6,1-1,1.5-1.5c-0.2-0.2-0.4-0.5-0.8-0.8
		c-0.5-0.7,0.8-0.7,0.7-1.3c-0.2-0.2-0.4-0.4-0.7-0.7c0.7-0.9,0.6-2.4,1.9-3c-0.4-0.4-0.7-0.8-1-1.1c1.5-1.6,1.5-4.2,3.5-5.5
		c1.2,3.3,2.6,6.5,0.5,10c-0.5-0.1-0.8,0.1-0.9,0.6c0,0.1,0.2,0.3,0.3,0.3c0.5-0.1,0.7-0.4,0.6-0.9c1.5,0.3,1.9,1.5,2.4,3.1
		c1.4-0.2,2.9-0.5,4.5-0.7c0.3,0.2,0.6,0.9,1.8,0.4c0.1-1.5,0.9-3.2,2-5.7c0.1,2.6,0.9,4.1,1.6,5.8c1.4,0,2.9,0,4.1,0
		c0.6-0.5,1.1-0.9,1.6-1.3c-0.8-1-2-0.2-3-0.9c0-1.6-0.6-3.5,0.1-4.7c0.9-1.6,0.1-3.8,1.1-4.5c2-1.4,1.2-4.1,3.4-5.5
		c0.5,0.7,1,1.5,1.5,2.3c1-0.9,1.7-1.6,2.4-2.2c0.4,0.4,0.8,0.8,1.2,1.2c0.6,0.8,0.2,1.8,0.3,2.8c-0.5-0.1-0.8,0.1-0.9,0.6
		c0,0.1,0.2,0.3,0.3,0.3c0.5-0.1,0.7-0.4,0.6-0.9c0.8,0,1.7,0,2.5,0c1.8,2.6-0.7,5.1-0.5,7.6c0.9,0.6,0.9-0.2,1.6-0.4
		c1.8-0.3,0.6,3.1,2.7,2.8c1.2-3.1,1.2-3.1,4.7-5c-0.1,0.5,0.1,0.8,0.6,0.9c0.1,0,0.3-0.2,0.3-0.3c-0.1-0.5-0.4-0.7-0.9-0.6
		c0.6-1.1,1.2-2.2,1.8-3.3c0.2-0.3,0.5-0.5,0.7-0.7c0.4,0.3,0.7,0.6,1.1,0.9c1.5-1.5,3-3,4.3-4.3c2,1.3,0.4,3.2,1.6,4.3
		c0.7-0.6,1.4-1.3,2.6-2.4c-0.8,3.6,1.3,6.2,1,9.3c1.6,0.1,0.3-1.5,1.3-1.6c1.1,0.3,0.5,1.3,0.6,1.9c0.1,1,1.1,1.2,1.4,1.9
		c0.8-0.3,0.4-1.1,0.7-1.6c1-0.5,1.3,1.5,2.4,0.6c0.1-0.3,0.5-0.7,0.4-0.8c-1.1-1.7-1.1-3.6-0.9-5.6c0.3-0.7,1.1-0.4,1.6-0.7
		c0.6-1.5,0.1-3.8,3-3.8c0.4,2.9,0.9,5.8,1.3,8.7c0.1,0.7,0,1.4-1.9,1.9c-0.1-0.2,0.4-0.6,0.9-1.1c-0.6-0.7-1.3-0.8-2-0.1
		c0,0.4,0.1,0.8,1.1,1.2c0.5,1,1.8,1.7,2.7,2.6c0.5,1.6,0.3,3-0.6,4.4c1.1,0.8,2.3,0,3.4,0.5c2.3-5.2,4.2-10.4,7-15.2
		c0.4-0.7,1.2-1.2,1.9-2c2.3,2.1,1.5,5.2,2.7,7.5c-0.6,0.2-0.9,0.4-1.1,0.5c-0.3,0.1-0.6,0.2-1,0.4c0.3,0.4,0.6,0.7,0.9,1.1
		c-0.3,0.3-0.6,0.7-0.9,1c1,1.2,2.5,0.1,4,0.9c-0.4,2.3,0.8,4.9-0.9,7.3c0.6,0.6,1.9,0.2,2.3,1.3c0.7-0.3,0.4-1.1,0.7-1.6
		c0.7-0.7,1.6-0.2,2.4-0.3c1,0.7,0,1.9,0.7,2.7c1.1,0.5,2.2,0.2,3.5,0.2c0-1.8,0-3.5,0-5.1c4.1-3.6,3.2-10.3,8.3-12.9
		c2.8,2.2,1.5,5.4,2.1,8.2c1.3-0.9,2.2-1.7,2-3.1c1.3,0.1,2.5-0.3,3,0.8c1,2,1.9,3.9,1.8,6.3c-0.6,0.2-1.5-0.5-1.9,0.5
		c0.7,0.7,1.3,0.6,1.9-0.5c1.2-0.1,2.3-0.1,3.6-0.1c1-1.8,0-3.9,0.6-5.7c0.7-0.6,1.6,0,2.5-0.4c0.3-2.7,2.3-4.6,3.8-7.1
		c0.8,1,1.5,1.9,2.5,3.1c0.2,1.8-0.2,4.3,2.7,5.3c1.3,1.3-0.4,2.5-0.2,3.8c0.2,1.3,0.5,2.6,0.5,3.9c0.1,1.5,0,3,0,4.5
		c0.3,1.1,1.6,0.3,2,1.2c0,0.3,0,0.6,0,1c-0.6,0.3-1.3,0.6-2,0.9c1,1.1,2.8-0.1,3.5,1.6c1.2-1-0.2-3.2,2.1-3.8
		c1.1,0.5,2.4,1.2,3.6,1.8c0.6-0.4,1-0.7,1.8-1.1c0,2.1,0,3.9,0,5.5c0.6,0.6,1.1,1.1,1.6,1.6c0.9-1.5,1.6-3,1.7-4.7
		c0.6-0.2,1.2-0.4,1.8-0.6c-0.3-0.3-0.5-0.6-0.7-0.8c0.6-5,3.4-8.6,7.2-11.7c0.4,0.8,0.8,1.7,1.3,2.6c-0.3,0.3-0.5,0.5-0.8,0.8
		c0.6,0.7,1.3,1.4,1.9,2.1c-0.8,0.7-1.5,1.4-0.6,2.5c0.4-0.4,0.8-0.7,1.5-1.3c0,3.8,0,7.4,0,12.1c1.2-2.1,2-3.3,2.7-4.5
		c2.1,1.1,1,2.8,2.3,3c-1,1.8,0,3,1.2,4.2c-1.3,2.6-1.1,3.7,1,4.5c0.6,0.2,1.4-0.3,1.9,0.3c0.5,0.6,1,0.9,2,0.6
		c0.1-1.6,0.8-3.1,1.5-4.7c1.3-0.8,3-0.9,4.2-2.2c0.4,0.4,0.9,0.8,1.6,1.5c-0.9,2.6,1.3,5,0.9,7.8c1.3,1.9,2.9,3.4,5.7,3.2
		c0.8,0.1,1.1-1.3,2.3-1.4c0,56.3,0,112.7,0,169c-400,0-800,0-1200,0C0,355,0,189,0,23z M304,73c-0.3,0.1-0.8,0.2-0.8,0.3
		c-0.1,0.6,0.3,0.7,0.8,0.7c-0.1,0.5,0.1,0.8,0.6,0.9c0.1,0,0.3-0.2,0.3-0.3c-0.1-0.5-0.4-0.7-0.9-0.6C304,73.7,304,73.3,304,73
		c0.5,0.1,0.8-0.1,0.9-0.6c0-0.1-0.2-0.3-0.3-0.3C304.1,72.2,303.9,72.5,304,73z M810,265c0.5,0.1,0.8-0.1,0.9-0.6
		c0-0.1-0.2-0.3-0.3-0.3C810.1,264.2,809.9,264.5,810,265c-0.5-0.1-0.8,0.1-0.9,0.6c0,0.1,0.2,0.3,0.3,0.3
		C809.9,265.8,810.1,265.5,810,265z M267,71c-0.1,0.5,0.1,0.8,0.6,0.9c0.1,0,0.3-0.2,0.3-0.3c-0.1-0.5-0.4-0.7-2.8-1.2
		c0.2,0.2,0.5,0.6,0.5,0.6c0.4-0.3,1.5,0.6,1.3-0.4C266.7,69.7,265.8,69.8,267,71z M815,267c-1.9-0.6-2.4,1.2-3.9,2.2
		c-1.1,0-2.6,0-4.8,0c2.6,1.2,4.4,2.1,6.2,3C813.4,270.3,814.2,268.6,815,267c0.5,0.1,0.8-0.2,0.9-0.6c0-0.1-0.2-0.3-0.3-0.3
		C815.1,266.2,814.9,266.5,815,267z M1152.5,333.9c-0.6,3.6-0.2,4,3.3,3.8c0.3-0.6,0.2-1.2-0.3-1.7c-0.3,0.3-0.7,0.6-1,1
		C1153.3,336.3,1155,334.3,1152.5,333.9z M172.3,31.8c-0.6-1.1,0.1-2-0.7-2.7c-0.4,0-0.8,0-1.3,0c-0.4,1.3-0.4,2.5,0,3.8
		c1.3,0.1,2.6,0.5,3.7-0.3C173.6,31.8,172.9,32.1,172.3,31.8z M460.8,134.7c2.3,0.1,0.4,2.5,2.4,3.6c-0.6-2,0.3-3.7-0.7-5.4
		C462,133.5,461.7,133.8,460.8,134.7z M374.1,109c1.7,0.2,2.3-0.7,2.8-1.6c-1-0.5-1.9-0.6-2.8,0C374.1,107.8,374.1,108.2,374.1,109z
		 M901.3,305.5c-1.3-0.6-1.7-2.2-3.2-1.1c0,0.4,0,0.8,0,1.2C899,306.2,899.9,306.1,901.3,305.5z M1051.5,321c0.7-0.7,0.7-1.3,0-2
		c-0.5,0.1-1-0.2-1.3,0.4C1049.7,320.6,1050.2,321.1,1051.5,321z M1079,320.6c1.1,0.6,2,0.6,2.8,0.1c0.3-0.6,0.3-1.2-0.2-1.6
		C1080.7,319.6,1079.9,320.1,1079,320.6z M1050,313.5c0.7,0.7,1.3,0.7,2,0c-0.1-0.5,0.2-1-0.4-1.3c-0.6-0.3-1.2-0.2-1.6,0.4
		C1050,312.9,1050,313.2,1050,313.5z M820.7,273.9c-2.2,0.3,0.5-2.9-1.3-2.7c-0.5,0.9-0.5,1.8,0.1,2.7
		C819.8,273.9,820.2,273.9,820.7,273.9z M70.1,15.4c-1.3-0.6-2.1-0.6-3,0c0.6,0.7,1,1.2,1.4,1.6C69,16.5,69.4,16.1,70.1,15.4z
		 M103.9,11.4c-0.7,0.3-1.4,0.6-2.2,1c1,0.8,1.6,0.8,2.2,0.2C103.9,12.2,103.9,11.8,103.9,11.4z M100.1,15.6
		c-1.9-0.6-2.5-0.2-2.1,0.7C98.6,16.1,99.4,15.9,100.1,15.6z M69.8,8.3c-0.9,0-1.9-0.6-2.9,0.3C68.1,9.2,69,9.2,69.8,8.3z
		 M100.3,18.2c0.3,0.5-1,1.3,0.4,1.6C101.2,19.3,101.2,18.7,100.3,18.2z M861.9,288.5c0.9,0.6,1.6,0.9,1.9-0.2
		C863.3,287.8,862.7,287.8,861.9,288.5z M711,208.5c0.7,0.7,1.3,0.7,2,0C712.3,207.8,711.7,207.8,711,208.5z M720.1,214.5
		c-0.9-0.6-1.6-0.9-1.9,0.2C718.7,215.2,719.3,215.2,720.1,214.5z M521.1,148.5c-0.9-0.6-1.6-0.9-1.9,0.2
		C519.7,149.2,520.3,149.2,521.1,148.5z M104.5,20c0.7-0.7,0.7-1.3,0-2C103.8,18.7,103.8,19.3,104.5,20z M440.1,130.5
		c-0.9-0.6-1.6-0.9-1.9,0.2C438.7,131.2,439.3,131.2,440.1,130.5z M468.1,127.5c-0.9-0.6-1.6-0.9-1.9,0.2
		C466.7,128.2,467.3,128.2,468.1,127.5z M900.5,314.1c0.6-0.9,0.9-1.5-0.1-2C899.8,312.7,899.8,313.3,900.5,314.1z M120,21.5
		c-0.9-0.6-1.5-0.9-2,0.3C118.7,22,119.3,22.2,120,21.5z M400.5,109.1c0.6-0.9,0.9-1.5-0.1-2C399.8,107.7,399.8,108.3,400.5,109.1z
		 M1043.5,318.1c0.6-0.9,0.9-1.6-0.2-1.9C1042.8,316.7,1042.8,317.3,1043.5,318.1z M1117.5,322.9c-0.6,0.9-0.9,1.5,0.1,2
		C1118.2,324.3,1118.2,323.7,1117.5,322.9z M1083.1,323.5c-0.9-0.6-1.6-0.9-1.9,0.2C1081.7,324.2,1082.3,324.2,1083.1,323.5z
		 M1086.5,322c-0.7,0.7-0.7,1.3,0,2C1087.2,323.3,1087.2,322.7,1086.5,322z M756.1,231.5c-0.9-0.6-1.6-0.9-1.9,0.2
		C754.7,232.2,755.3,232.2,756.1,231.5z M807,262.5c-0.3-0.5-0.7-0.5-1,0C806.3,263,806.7,263,807,262.5z M804,261.5
		c0.3,0.5,0.7,0.5,1,0C804.7,261,804.3,261,804,261.5z M822,276.5c-0.3-0.5-0.7-0.5-1,0C821.3,277,821.7,277,822,276.5z M857.5,287
		c-0.5,0.3-0.5,0.7,0,1C858,287.7,858,287.3,857.5,287z M865.5,294c0.5-0.3,0.5-0.7,0-1C865,293.3,865,293.7,865.5,294z M905.5,311
		c-0.5,0.3-0.5,0.7,0,1C906,311.7,906,311.3,905.5,311z M1120.5,323c-0.5,0.3-0.5,0.7,0,1C1121,323.7,1121,323.3,1120.5,323z
		 M1058.5,322c0.5-0.3,0.5-0.7,0-1C1058,321.3,1058,321.7,1058.5,322z M1084.5,319c-0.5,0.3-0.5,0.7,0,1
		C1085,319.7,1085,319.3,1084.5,319z M397.5,106c-0.5,0.3-0.5,0.7,0,1C398,106.7,398,106.3,397.5,106z M378.5,103
		c-0.5,0.3-0.5,0.7,0,1C379,103.7,379,103.3,378.5,103z M388,92.5c0.3,0.5,0.7,0.5,1,0C388.7,92,388.3,92,388,92.5z M321,88.5
		c0.3,0.5,0.7,0.5,1,0C321.7,88,321.3,88,321,88.5z M283.5,77c0.5-0.3,0.5-0.7,0-1C283,76.3,283,76.7,283.5,77z M135,19.5
		c0.3,0.5,0.7,0.5,1,0C135.7,19,135.3,19,135,19.5z M76.5,16c-0.5,0.3-0.5,0.7,0,1C77,16.7,77,16.3,76.5,16z M96,15.5
		c0.3,0.5,0.7,0.5,1,0C96.7,15,96.3,15,96,15.5z M103,14.5c-0.3-0.5-0.7-0.5-1,0C102.3,15,102.7,15,103,14.5z M61.5,13
		c0.5-0.3,0.5-0.7,0-1C61,12.3,61,12.7,61.5,13z M752.5,237c-0.5,0.3-0.5,0.7,0,1C753,237.7,753,237.3,752.5,237z M710.5,206
		c0.5-0.3,0.5-0.7,0-1C710,205.3,710,205.7,710.5,206z M709,187.5c0.3,0.5,0.7,0.5,1,0C709.7,187,709.3,187,709,187.5z M638.5,185
		c-0.5,0.3-0.5,0.7,0,1C639,185.7,639,185.3,638.5,185z M605,168.5c-0.3-0.5-0.7-0.5-1,0C604.3,169,604.7,169,605,168.5z M600.5,166
		c-0.5,0.3-0.5,0.7,0,1C601,166.7,601,166.3,600.5,166z M616.5,162c0.5-0.3,0.5-0.7,0-1C616,161.3,616,161.7,616.5,162z M538,141.5
		c0.3,0.5,0.7,0.5,1,0C538.7,141,538.3,141,538,141.5z M476.5,140c-0.5,0.3-0.5,0.7,0,1C477,140.7,477,140.3,476.5,140z M464,131.5
		c-0.3-0.5-0.7-0.5-1,0C463.3,132,463.7,132,464,131.5z"/>
	<path class="st0" d="M725,225c0.2-1.6-0.4-2.6-2-3c0-1.1,0-2.3,0-3.5c1.1-1.1,2.3-2.2,3.6-3.4c0.4,0.3,0.8,0.8,1.3,1.2
		c0.6,1.8-0.6,3.9,1.3,5.5c-0.5,1.1-1.1,2.2-1.6,3.2C726.6,225,725.8,225,725,225z M725,219.5c0.3,0.5,0.7,0.5,1,0
		C725.7,219,725.3,219,725,219.5z"/>
	<path class="st0" d="M373,102c-0.6-1.4-1.8-2.5-0.4-4.3c0.7-0.9,1.5-2.3,1.5-3.8c0-0.9,0.9-1.6,2.4-2c0.2,1.4,1.7,2.2,1.5,3.9
		c0.1,1.6-1.9,1.7-2,3.3c0.3,0.6,0.7,1.2,1,1.9c-1.2,0.2-1.6,1.4-2.5,2C374,102.7,373.8,101.9,373,102z M375.5,96
		c-0.5,0.3-0.5,0.7,0,1C376,96.7,376,96.3,375.5,96z"/>
	<path class="st0" d="M281,60c0.1,0.8-0.7,1-1.1,1.8c1.7,1.2,0.4,3.2,0.6,5.1c-0.9,0.9-1.4-0.6-2.1-1c-1.2-0.5-1.7,1.7-3.2,0.8
		c-0.3-1.1-0.3-2.3,0-3.6c1-0.1,1.4,1.7,2.6,0.4c-0.7-0.4-1.4-0.8-1.9-1.1c1-2.4,2-3.7,3.7-4.4C280,58.8,281,59,281,60z"/>
	<path class="st0" d="M1157.3,329.2c-0.3,0.7-0.7,1.4-1,2.1c-1.7-0.6-1.4-2.3-2.3-3.1c0.8-1.7,1.6-3.3,2.6-5.4
		c0.3,1.5,1.4,2.4,1.5,3.8C1158.1,327.6,1156.5,328.5,1157.3,329.2z"/>
	<path class="st0" d="M174.8,18.8c0,2.7,0,4.9,0,7.1c-2.1,0.3-2.5-1.6-4-2.5C172.8,22.6,172.8,20.3,174.8,18.8z"/>
	<path class="st0" d="M939.3,326.7c-2.1,0.7-2.8-1-4-0.9c-0.3-0.6,0.4-0.7,0.6-1.1c0.2-0.3,0.4-0.5,0.7-0.7c0.5-0.2,0.4,0.2,0.5,0.4
		C937.6,325.2,938.4,325.8,939.3,326.7z"/>
	<path class="st0" d="M937,324c0-0.6,0.1-1.2,0.1-1.9c0.6-0.1,1-0.1,1.4-0.1c0.6,0.5,0.6,1.1,0.2,1.9C938.2,323.9,937.6,324,937,324
		z"/>
	<path class="st0" d="M1110.1,324.5c-0.8,0.7-1.4,0.7-2,0.1C1108.5,323.6,1109.2,323.9,1110.1,324.5z"/>
	<path class="st0" d="M891,302c-0.5,0.1-0.8-0.1-0.9-0.6c0-0.1,0.2-0.3,0.3-0.3C890.9,301.2,891.1,301.5,891,302z"/>
	<path class="st0" d="M723,222c0.1,0.5-0.1,0.8-0.6,0.9c-0.1,0-0.3-0.2-0.3-0.3C722.2,222.1,722.5,221.9,723,222z"/>
	<path class="st0" d="M437,125c0.1,0.5-0.1,0.8-0.6,0.9c-0.1,0-0.3-0.2-0.3-0.3C436.2,125.1,436.5,124.9,437,125z"/>
</g>
</svg>
