<?xml version="1.0" standalone="no"?>
<!DOCTYPE svg PUBLIC "-//W3C//DTD SVG 20010904//EN"
 "http://www.w3.org/TR/2001/REC-SVG-20010904/DTD/svg10.dtd">
<svg version="1.0" xmlns="http://www.w3.org/2000/svg"
 width="260.000000pt" height="260.000000pt" viewBox="0 0 260.000000 260.000000"
 preserveAspectRatio="xMidYMid meet">
<metadata>
Created by potrace 1.11, written by Peter Selinger 2001-2013
</metadata>
<g transform="translate(0.000000,260.000000) scale(0.100000,-0.100000)"
fill="#000000" stroke="none">
<path d="M1550 1324 l0 -613 338 3 c326 2 339 3 407 26 91 32 159 88 199 164
28 55 31 68 31 155 0 79 -4 103 -22 137 -30 57 -79 102 -143 133 l-56 27 38
27 c122 86 142 277 45 414 -30 43 -46 56 -109 91 -69 39 -131 45 -435 47
l-293 1 0 -612z m568 350 c79 -46 75 -166 -7 -209 -26 -13 -153 -21 -258 -16
-23 1 -23 4 -23 120 0 84 4 121 12 123 7 3 64 4 128 3 94 -2 123 -6 148 -21z
m50 -478 c67 -23 100 -105 70 -171 -6 -14 -28 -36 -47 -48 -33 -20 -51 -22
-198 -25 l-163 -4 0 131 0 130 53 3 c94 5 248 -3 285 -16z"/>
<path d="M555 1910 c-299 -78 -487 -324 -480 -625 3 -100 11 -143 41 -224 84
-222 290 -373 545 -399 384 -39 680 227 688 620 l2 88 -318 0 -318 0 0 -120 0
-120 30 -1 c16 0 86 -1 155 -1 69 0 128 -2 132 -4 21 -13 -63 -122 -122 -159
-36 -22 -123 -47 -169 -48 -222 -5 -380 150 -382 373 -2 203 143 362 344 377
117 9 221 -34 307 -127 l35 -37 102 87 c101 87 101 88 85 111 -54 79 -164 156
-279 195 -104 36 -290 43 -398 14z"/>
</g>
</svg>
